<?xml version="1.0" encoding="utf-8" standalone="no"?>
<!DOCTYPE svg PUBLIC "-//W3C//DTD SVG 1.1//EN"
  "http://www.w3.org/Graphics/SVG/1.1/DTD/svg11.dtd">
<svg xmlns:xlink="http://www.w3.org/1999/xlink" width="460.8pt" height="345.6pt" viewBox="0 0 460.8 345.6" xmlns="http://www.w3.org/2000/svg" version="1.1">
 <metadata>
  <rdf:RDF xmlns:dc="http://purl.org/dc/elements/1.1/" xmlns:cc="http://creativecommons.org/ns#" xmlns:rdf="http://www.w3.org/1999/02/22-rdf-syntax-ns#">
   <cc:Work>
    <dc:type rdf:resource="http://purl.org/dc/dcmitype/StillImage"/>
    <dc:date>2022-11-03T14:02:47.965975</dc:date>
    <dc:format>image/svg+xml</dc:format>
    <dc:creator>
     <cc:Agent>
      <dc:title>Matplotlib v3.5.3, https://matplotlib.org/</dc:title>
     </cc:Agent>
    </dc:creator>
   </cc:Work>
  </rdf:RDF>
 </metadata>
 <defs>
  <style type="text/css">*{stroke-linejoin: round; stroke-linecap: butt}</style>
 </defs>
 <g id="figure_1">
  <g id="patch_1">
   <path d="M 0 345.6 
L 460.8 345.6 
L 460.8 0 
L 0 0 
z
" style="fill: #ffffff"/>
  </g>
  <g id="axes_1">
   <g id="patch_2">
    <path d="M 57.6 307.584 
L 414.72 307.584 
L 414.72 41.472 
L 57.6 41.472 
z
" style="fill: #ffffff"/>
   </g>
   <g id="patch_3">
    <path d="M 73.832727 54619.770407 
L 75.456 54619.770407 
L 75.456 205.159874 
L 73.832727 205.159874 
z
" clip-path="url(#p4bd3caf6e1)" style="fill: #1f77b4"/>
   </g>
   <g id="patch_4">
    <path d="M 75.456 54619.770407 
L 77.079273 54619.770407 
L 77.079273 54619.770407 
L 75.456 54619.770407 
z
" clip-path="url(#p4bd3caf6e1)" style="fill: #1f77b4"/>
   </g>
   <g id="patch_5">
    <path d="M 77.079273 54619.770407 
L 78.702545 54619.770407 
L 78.702545 162.047678 
L 77.079273 162.047678 
z
" clip-path="url(#p4bd3caf6e1)" style="fill: #1f77b4"/>
   </g>
   <g id="patch_6">
    <path d="M 78.702545 54619.770407 
L 80.325818 54619.770407 
L 80.325818 54619.770407 
L 78.702545 54619.770407 
z
" clip-path="url(#p4bd3caf6e1)" style="fill: #1f77b4"/>
   </g>
   <g id="patch_7">
    <path d="M 80.325818 54619.770407 
L 81.949091 54619.770407 
L 81.949091 54619.770407 
L 80.325818 54619.770407 
z
" clip-path="url(#p4bd3caf6e1)" style="fill: #1f77b4"/>
   </g>
   <g id="patch_8">
    <path d="M 81.949091 54619.770407 
L 83.572364 54619.770407 
L 83.572364 139.39692 
L 81.949091 139.39692 
z
" clip-path="url(#p4bd3caf6e1)" style="fill: #1f77b4"/>
   </g>
   <g id="patch_9">
    <path d="M 83.572364 54619.770407 
L 85.195636 54619.770407 
L 85.195636 54619.770407 
L 83.572364 54619.770407 
z
" clip-path="url(#p4bd3caf6e1)" style="fill: #1f77b4"/>
   </g>
   <g id="patch_10">
    <path d="M 85.195636 54619.770407 
L 86.818909 54619.770407 
L 86.818909 54619.770407 
L 85.195636 54619.770407 
z
" clip-path="url(#p4bd3caf6e1)" style="fill: #1f77b4"/>
   </g>
   <g id="patch_11">
    <path d="M 86.818909 54619.770407 
L 88.442182 54619.770407 
L 88.442182 97.672919 
L 86.818909 97.672919 
z
" clip-path="url(#p4bd3caf6e1)" style="fill: #1f77b4"/>
   </g>
   <g id="patch_12">
    <path d="M 88.442182 54619.770407 
L 90.065455 54619.770407 
L 90.065455 54619.770407 
L 88.442182 54619.770407 
z
" clip-path="url(#p4bd3caf6e1)" style="fill: #1f77b4"/>
   </g>
   <g id="patch_13">
    <path d="M 90.065455 54619.770407 
L 91.688727 54619.770407 
L 91.688727 54619.770407 
L 90.065455 54619.770407 
z
" clip-path="url(#p4bd3caf6e1)" style="fill: #1f77b4"/>
   </g>
   <g id="patch_14">
    <path d="M 91.688727 54619.770407 
L 93.312 54619.770407 
L 93.312 99.260661 
L 91.688727 99.260661 
z
" clip-path="url(#p4bd3caf6e1)" style="fill: #1f77b4"/>
   </g>
   <g id="patch_15">
    <path d="M 93.312 54619.770407 
L 94.935273 54619.770407 
L 94.935273 54619.770407 
L 93.312 54619.770407 
z
" clip-path="url(#p4bd3caf6e1)" style="fill: #1f77b4"/>
   </g>
   <g id="patch_16">
    <path d="M 94.935273 54619.770407 
L 96.558545 54619.770407 
L 96.558545 54619.770407 
L 94.935273 54619.770407 
z
" clip-path="url(#p4bd3caf6e1)" style="fill: #1f77b4"/>
   </g>
   <g id="patch_17">
    <path d="M 96.558545 54619.770407 
L 98.181818 54619.770407 
L 98.181818 67.556277 
L 96.558545 67.556277 
z
" clip-path="url(#p4bd3caf6e1)" style="fill: #1f77b4"/>
   </g>
   <g id="patch_18">
    <path d="M 98.181818 54619.770407 
L 99.805091 54619.770407 
L 99.805091 54619.770407 
L 98.181818 54619.770407 
z
" clip-path="url(#p4bd3caf6e1)" style="fill: #1f77b4"/>
   </g>
   <g id="patch_19">
    <path d="M 99.805091 54619.770407 
L 101.428364 54619.770407 
L 101.428364 54619.770407 
L 99.805091 54619.770407 
z
" clip-path="url(#p4bd3caf6e1)" style="fill: #1f77b4"/>
   </g>
   <g id="patch_20">
    <path d="M 101.428364 54619.770407 
L 103.051636 54619.770407 
L 103.051636 95.988865 
L 101.428364 95.988865 
z
" clip-path="url(#p4bd3caf6e1)" style="fill: #1f77b4"/>
   </g>
   <g id="patch_21">
    <path d="M 103.051636 54619.770407 
L 104.674909 54619.770407 
L 104.674909 54619.770407 
L 103.051636 54619.770407 
z
" clip-path="url(#p4bd3caf6e1)" style="fill: #1f77b4"/>
   </g>
   <g id="patch_22">
    <path d="M 104.674909 54619.770407 
L 106.298182 54619.770407 
L 106.298182 54619.770407 
L 104.674909 54619.770407 
z
" clip-path="url(#p4bd3caf6e1)" style="fill: #1f77b4"/>
   </g>
   <g id="patch_23">
    <path d="M 106.298182 54619.770407 
L 107.921455 54619.770407 
L 107.921455 55.712255 
L 106.298182 55.712255 
z
" clip-path="url(#p4bd3caf6e1)" style="fill: #1f77b4"/>
   </g>
   <g id="patch_24">
    <path d="M 107.921455 54619.770407 
L 109.544727 54619.770407 
L 109.544727 54619.770407 
L 107.921455 54619.770407 
z
" clip-path="url(#p4bd3caf6e1)" style="fill: #1f77b4"/>
   </g>
   <g id="patch_25">
    <path d="M 109.544727 54619.770407 
L 111.168 54619.770407 
L 111.168 54619.770407 
L 109.544727 54619.770407 
z
" clip-path="url(#p4bd3caf6e1)" style="fill: #1f77b4"/>
   </g>
   <g id="patch_26">
    <path d="M 111.168 54619.770407 
L 112.791273 54619.770407 
L 112.791273 87.805316 
L 111.168 87.805316 
z
" clip-path="url(#p4bd3caf6e1)" style="fill: #1f77b4"/>
   </g>
   <g id="patch_27">
    <path d="M 112.791273 54619.770407 
L 114.414545 54619.770407 
L 114.414545 54619.770407 
L 112.791273 54619.770407 
z
" clip-path="url(#p4bd3caf6e1)" style="fill: #1f77b4"/>
   </g>
   <g id="patch_28">
    <path d="M 114.414545 54619.770407 
L 116.037818 54619.770407 
L 116.037818 54619.770407 
L 114.414545 54619.770407 
z
" clip-path="url(#p4bd3caf6e1)" style="fill: #1f77b4"/>
   </g>
   <g id="patch_29">
    <path d="M 116.037818 54619.770407 
L 117.661091 54619.770407 
L 117.661091 53.568 
L 116.037818 53.568 
z
" clip-path="url(#p4bd3caf6e1)" style="fill: #1f77b4"/>
   </g>
   <g id="patch_30">
    <path d="M 117.661091 54619.770407 
L 119.284364 54619.770407 
L 119.284364 54619.770407 
L 117.661091 54619.770407 
z
" clip-path="url(#p4bd3caf6e1)" style="fill: #1f77b4"/>
   </g>
   <g id="patch_31">
    <path d="M 119.284364 54619.770407 
L 120.907636 54619.770407 
L 120.907636 54619.770407 
L 119.284364 54619.770407 
z
" clip-path="url(#p4bd3caf6e1)" style="fill: #1f77b4"/>
   </g>
   <g id="patch_32">
    <path d="M 120.907636 54619.770407 
L 122.530909 54619.770407 
L 122.530909 88.705263 
L 120.907636 88.705263 
z
" clip-path="url(#p4bd3caf6e1)" style="fill: #1f77b4"/>
   </g>
   <g id="patch_33">
    <path d="M 122.530909 54619.770407 
L 124.154182 54619.770407 
L 124.154182 54619.770407 
L 122.530909 54619.770407 
z
" clip-path="url(#p4bd3caf6e1)" style="fill: #1f77b4"/>
   </g>
   <g id="patch_34">
    <path d="M 124.154182 54619.770407 
L 125.777455 54619.770407 
L 125.777455 54619.770407 
L 124.154182 54619.770407 
z
" clip-path="url(#p4bd3caf6e1)" style="fill: #1f77b4"/>
   </g>
   <g id="patch_35">
    <path d="M 125.777455 54619.770407 
L 127.400727 54619.770407 
L 127.400727 54.337309 
L 125.777455 54.337309 
z
" clip-path="url(#p4bd3caf6e1)" style="fill: #1f77b4"/>
   </g>
   <g id="patch_36">
    <path d="M 127.400727 54619.770407 
L 129.024 54619.770407 
L 129.024 54619.770407 
L 127.400727 54619.770407 
z
" clip-path="url(#p4bd3caf6e1)" style="fill: #1f77b4"/>
   </g>
   <g id="patch_37">
    <path d="M 129.024 54619.770407 
L 130.647273 54619.770407 
L 130.647273 54619.770407 
L 129.024 54619.770407 
z
" clip-path="url(#p4bd3caf6e1)" style="fill: #1f77b4"/>
   </g>
   <g id="patch_38">
    <path d="M 130.647273 54619.770407 
L 132.270545 54619.770407 
L 132.270545 101.262212 
L 130.647273 101.262212 
z
" clip-path="url(#p4bd3caf6e1)" style="fill: #1f77b4"/>
   </g>
   <g id="patch_39">
    <path d="M 132.270545 54619.770407 
L 133.893818 54619.770407 
L 133.893818 54619.770407 
L 132.270545 54619.770407 
z
" clip-path="url(#p4bd3caf6e1)" style="fill: #1f77b4"/>
   </g>
   <g id="patch_40">
    <path d="M 133.893818 54619.770407 
L 135.517091 54619.770407 
L 135.517091 54619.770407 
L 133.893818 54619.770407 
z
" clip-path="url(#p4bd3caf6e1)" style="fill: #1f77b4"/>
   </g>
   <g id="patch_41">
    <path d="M 135.517091 54619.770407 
L 137.140364 54619.770407 
L 137.140364 55.956458 
L 135.517091 55.956458 
z
" clip-path="url(#p4bd3caf6e1)" style="fill: #1f77b4"/>
   </g>
   <g id="patch_42">
    <path d="M 137.140364 54619.770407 
L 138.763636 54619.770407 
L 138.763636 54619.770407 
L 137.140364 54619.770407 
z
" clip-path="url(#p4bd3caf6e1)" style="fill: #1f77b4"/>
   </g>
   <g id="patch_43">
    <path d="M 138.763636 54619.770407 
L 140.386909 54619.770407 
L 140.386909 54619.770407 
L 138.763636 54619.770407 
z
" clip-path="url(#p4bd3caf6e1)" style="fill: #1f77b4"/>
   </g>
   <g id="patch_44">
    <path d="M 140.386909 54619.770407 
L 142.010182 54619.770407 
L 142.010182 108.571633 
L 140.386909 108.571633 
z
" clip-path="url(#p4bd3caf6e1)" style="fill: #1f77b4"/>
   </g>
   <g id="patch_45">
    <path d="M 142.010182 54619.770407 
L 143.633455 54619.770407 
L 143.633455 54619.770407 
L 142.010182 54619.770407 
z
" clip-path="url(#p4bd3caf6e1)" style="fill: #1f77b4"/>
   </g>
   <g id="patch_46">
    <path d="M 143.633455 54619.770407 
L 145.256727 54619.770407 
L 145.256727 54619.770407 
L 143.633455 54619.770407 
z
" clip-path="url(#p4bd3caf6e1)" style="fill: #1f77b4"/>
   </g>
   <g id="patch_47">
    <path d="M 145.256727 54619.770407 
L 146.88 54619.770407 
L 146.88 64.931448 
L 145.256727 64.931448 
z
" clip-path="url(#p4bd3caf6e1)" style="fill: #1f77b4"/>
   </g>
   <g id="patch_48">
    <path d="M 146.88 54619.770407 
L 148.503273 54619.770407 
L 148.503273 54619.770407 
L 146.88 54619.770407 
z
" clip-path="url(#p4bd3caf6e1)" style="fill: #1f77b4"/>
   </g>
   <g id="patch_49">
    <path d="M 148.503273 54619.770407 
L 150.126545 54619.770407 
L 150.126545 54619.770407 
L 148.503273 54619.770407 
z
" clip-path="url(#p4bd3caf6e1)" style="fill: #1f77b4"/>
   </g>
   <g id="patch_50">
    <path d="M 150.126545 54619.770407 
L 151.749818 54619.770407 
L 151.749818 112.609489 
L 150.126545 112.609489 
z
" clip-path="url(#p4bd3caf6e1)" style="fill: #1f77b4"/>
   </g>
   <g id="patch_51">
    <path d="M 151.749818 54619.770407 
L 153.373091 54619.770407 
L 153.373091 54619.770407 
L 151.749818 54619.770407 
z
" clip-path="url(#p4bd3caf6e1)" style="fill: #1f77b4"/>
   </g>
   <g id="patch_52">
    <path d="M 153.373091 54619.770407 
L 154.996364 54619.770407 
L 154.996364 54619.770407 
L 153.373091 54619.770407 
z
" clip-path="url(#p4bd3caf6e1)" style="fill: #1f77b4"/>
   </g>
   <g id="patch_53">
    <path d="M 154.996364 54619.770407 
L 156.619636 54619.770407 
L 156.619636 80.595489 
L 154.996364 80.595489 
z
" clip-path="url(#p4bd3caf6e1)" style="fill: #1f77b4"/>
   </g>
   <g id="patch_54">
    <path d="M 156.619636 54619.770407 
L 158.242909 54619.770407 
L 158.242909 54619.770407 
L 156.619636 54619.770407 
z
" clip-path="url(#p4bd3caf6e1)" style="fill: #1f77b4"/>
   </g>
   <g id="patch_55">
    <path d="M 158.242909 54619.770407 
L 159.866182 54619.770407 
L 159.866182 54619.770407 
L 158.242909 54619.770407 
z
" clip-path="url(#p4bd3caf6e1)" style="fill: #1f77b4"/>
   </g>
   <g id="patch_56">
    <path d="M 159.866182 54619.770407 
L 161.489455 54619.770407 
L 161.489455 115.089595 
L 159.866182 115.089595 
z
" clip-path="url(#p4bd3caf6e1)" style="fill: #1f77b4"/>
   </g>
   <g id="patch_57">
    <path d="M 161.489455 54619.770407 
L 163.112727 54619.770407 
L 163.112727 54619.770407 
L 161.489455 54619.770407 
z
" clip-path="url(#p4bd3caf6e1)" style="fill: #1f77b4"/>
   </g>
   <g id="patch_58">
    <path d="M 163.112727 54619.770407 
L 164.736 54619.770407 
L 164.736 54619.770407 
L 163.112727 54619.770407 
z
" clip-path="url(#p4bd3caf6e1)" style="fill: #1f77b4"/>
   </g>
   <g id="patch_59">
    <path d="M 164.736 54619.770407 
L 166.359273 54619.770407 
L 166.359273 94.529957 
L 164.736 94.529957 
z
" clip-path="url(#p4bd3caf6e1)" style="fill: #1f77b4"/>
   </g>
   <g id="patch_60">
    <path d="M 166.359273 54619.770407 
L 167.982545 54619.770407 
L 167.982545 54619.770407 
L 166.359273 54619.770407 
z
" clip-path="url(#p4bd3caf6e1)" style="fill: #1f77b4"/>
   </g>
   <g id="patch_61">
    <path d="M 167.982545 54619.770407 
L 169.605818 54619.770407 
L 169.605818 54619.770407 
L 167.982545 54619.770407 
z
" clip-path="url(#p4bd3caf6e1)" style="fill: #1f77b4"/>
   </g>
   <g id="patch_62">
    <path d="M 169.605818 54619.770407 
L 171.229091 54619.770407 
L 171.229091 119.433932 
L 169.605818 119.433932 
z
" clip-path="url(#p4bd3caf6e1)" style="fill: #1f77b4"/>
   </g>
   <g id="patch_63">
    <path d="M 171.229091 54619.770407 
L 172.852364 54619.770407 
L 172.852364 54619.770407 
L 171.229091 54619.770407 
z
" clip-path="url(#p4bd3caf6e1)" style="fill: #1f77b4"/>
   </g>
   <g id="patch_64">
    <path d="M 172.852364 54619.770407 
L 174.475636 54619.770407 
L 174.475636 54619.770407 
L 172.852364 54619.770407 
z
" clip-path="url(#p4bd3caf6e1)" style="fill: #1f77b4"/>
   </g>
   <g id="patch_65">
    <path d="M 174.475636 54619.770407 
L 176.098909 54619.770407 
L 176.098909 105.845124 
L 174.475636 105.845124 
z
" clip-path="url(#p4bd3caf6e1)" style="fill: #1f77b4"/>
   </g>
   <g id="patch_66">
    <path d="M 176.098909 54619.770407 
L 177.722182 54619.770407 
L 177.722182 54619.770407 
L 176.098909 54619.770407 
z
" clip-path="url(#p4bd3caf6e1)" style="fill: #1f77b4"/>
   </g>
   <g id="patch_67">
    <path d="M 177.722182 54619.770407 
L 179.345455 54619.770407 
L 179.345455 54619.770407 
L 177.722182 54619.770407 
z
" clip-path="url(#p4bd3caf6e1)" style="fill: #1f77b4"/>
   </g>
   <g id="patch_68">
    <path d="M 179.345455 54619.770407 
L 180.968727 54619.770407 
L 180.968727 131.794885 
L 179.345455 131.794885 
z
" clip-path="url(#p4bd3caf6e1)" style="fill: #1f77b4"/>
   </g>
   <g id="patch_69">
    <path d="M 180.968727 54619.770407 
L 182.592 54619.770407 
L 182.592 54619.770407 
L 180.968727 54619.770407 
z
" clip-path="url(#p4bd3caf6e1)" style="fill: #1f77b4"/>
   </g>
   <g id="patch_70">
    <path d="M 182.592 54619.770407 
L 184.215273 54619.770407 
L 184.215273 54619.770407 
L 182.592 54619.770407 
z
" clip-path="url(#p4bd3caf6e1)" style="fill: #1f77b4"/>
   </g>
   <g id="patch_71">
    <path d="M 184.215273 54619.770407 
L 185.838545 54619.770407 
L 185.838545 119.651755 
L 184.215273 119.651755 
z
" clip-path="url(#p4bd3caf6e1)" style="fill: #1f77b4"/>
   </g>
   <g id="patch_72">
    <path d="M 185.838545 54619.770407 
L 187.461818 54619.770407 
L 187.461818 54619.770407 
L 185.838545 54619.770407 
z
" clip-path="url(#p4bd3caf6e1)" style="fill: #1f77b4"/>
   </g>
   <g id="patch_73">
    <path d="M 187.461818 54619.770407 
L 189.085091 54619.770407 
L 189.085091 54619.770407 
L 187.461818 54619.770407 
z
" clip-path="url(#p4bd3caf6e1)" style="fill: #1f77b4"/>
   </g>
   <g id="patch_74">
    <path d="M 189.085091 54619.770407 
L 190.708364 54619.770407 
L 190.708364 138.958846 
L 189.085091 138.958846 
z
" clip-path="url(#p4bd3caf6e1)" style="fill: #1f77b4"/>
   </g>
   <g id="patch_75">
    <path d="M 190.708364 54619.770407 
L 192.331636 54619.770407 
L 192.331636 54619.770407 
L 190.708364 54619.770407 
z
" clip-path="url(#p4bd3caf6e1)" style="fill: #1f77b4"/>
   </g>
   <g id="patch_76">
    <path d="M 192.331636 54619.770407 
L 193.954909 54619.770407 
L 193.954909 54619.770407 
L 192.331636 54619.770407 
z
" clip-path="url(#p4bd3caf6e1)" style="fill: #1f77b4"/>
   </g>
   <g id="patch_77">
    <path d="M 193.954909 54619.770407 
L 195.578182 54619.770407 
L 195.578182 129.135867 
L 193.954909 129.135867 
z
" clip-path="url(#p4bd3caf6e1)" style="fill: #1f77b4"/>
   </g>
   <g id="patch_78">
    <path d="M 195.578182 54619.770407 
L 197.201455 54619.770407 
L 197.201455 54619.770407 
L 195.578182 54619.770407 
z
" clip-path="url(#p4bd3caf6e1)" style="fill: #1f77b4"/>
   </g>
   <g id="patch_79">
    <path d="M 197.201455 54619.770407 
L 198.824727 54619.770407 
L 198.824727 54619.770407 
L 197.201455 54619.770407 
z
" clip-path="url(#p4bd3caf6e1)" style="fill: #1f77b4"/>
   </g>
   <g id="patch_80">
    <path d="M 198.824727 54619.770407 
L 200.448 54619.770407 
L 200.448 152.426716 
L 198.824727 152.426716 
z
" clip-path="url(#p4bd3caf6e1)" style="fill: #1f77b4"/>
   </g>
   <g id="patch_81">
    <path d="M 200.448 54619.770407 
L 202.071273 54619.770407 
L 202.071273 54619.770407 
L 200.448 54619.770407 
z
" clip-path="url(#p4bd3caf6e1)" style="fill: #1f77b4"/>
   </g>
   <g id="patch_82">
    <path d="M 202.071273 54619.770407 
L 203.694545 54619.770407 
L 203.694545 54619.770407 
L 202.071273 54619.770407 
z
" clip-path="url(#p4bd3caf6e1)" style="fill: #1f77b4"/>
   </g>
   <g id="patch_83">
    <path d="M 203.694545 54619.770407 
L 205.317818 54619.770407 
L 205.317818 134.636723 
L 203.694545 134.636723 
z
" clip-path="url(#p4bd3caf6e1)" style="fill: #1f77b4"/>
   </g>
   <g id="patch_84">
    <path d="M 205.317818 54619.770407 
L 206.941091 54619.770407 
L 206.941091 54619.770407 
L 205.317818 54619.770407 
z
" clip-path="url(#p4bd3caf6e1)" style="fill: #1f77b4"/>
   </g>
   <g id="patch_85">
    <path d="M 206.941091 54619.770407 
L 208.564364 54619.770407 
L 208.564364 54619.770407 
L 206.941091 54619.770407 
z
" clip-path="url(#p4bd3caf6e1)" style="fill: #1f77b4"/>
   </g>
   <g id="patch_86">
    <path d="M 208.564364 54619.770407 
L 210.187636 54619.770407 
L 210.187636 155.592768 
L 208.564364 155.592768 
z
" clip-path="url(#p4bd3caf6e1)" style="fill: #1f77b4"/>
   </g>
   <g id="patch_87">
    <path d="M 210.187636 54619.770407 
L 211.810909 54619.770407 
L 211.810909 54619.770407 
L 210.187636 54619.770407 
z
" clip-path="url(#p4bd3caf6e1)" style="fill: #1f77b4"/>
   </g>
   <g id="patch_88">
    <path d="M 211.810909 54619.770407 
L 213.434182 54619.770407 
L 213.434182 54619.770407 
L 211.810909 54619.770407 
z
" clip-path="url(#p4bd3caf6e1)" style="fill: #1f77b4"/>
   </g>
   <g id="patch_89">
    <path d="M 213.434182 54619.770407 
L 215.057455 54619.770407 
L 215.057455 140.529071 
L 213.434182 140.529071 
z
" clip-path="url(#p4bd3caf6e1)" style="fill: #1f77b4"/>
   </g>
   <g id="patch_90">
    <path d="M 215.057455 54619.770407 
L 216.680727 54619.770407 
L 216.680727 54619.770407 
L 215.057455 54619.770407 
z
" clip-path="url(#p4bd3caf6e1)" style="fill: #1f77b4"/>
   </g>
   <g id="patch_91">
    <path d="M 216.680727 54619.770407 
L 218.304 54619.770407 
L 218.304 54619.770407 
L 216.680727 54619.770407 
z
" clip-path="url(#p4bd3caf6e1)" style="fill: #1f77b4"/>
   </g>
   <g id="patch_92">
    <path d="M 218.304 54619.770407 
L 219.927273 54619.770407 
L 219.927273 162.887366 
L 218.304 162.887366 
z
" clip-path="url(#p4bd3caf6e1)" style="fill: #1f77b4"/>
   </g>
   <g id="patch_93">
    <path d="M 219.927273 54619.770407 
L 221.550545 54619.770407 
L 221.550545 54619.770407 
L 219.927273 54619.770407 
z
" clip-path="url(#p4bd3caf6e1)" style="fill: #1f77b4"/>
   </g>
   <g id="patch_94">
    <path d="M 221.550545 54619.770407 
L 223.173818 54619.770407 
L 223.173818 54619.770407 
L 221.550545 54619.770407 
z
" clip-path="url(#p4bd3caf6e1)" style="fill: #1f77b4"/>
   </g>
   <g id="patch_95">
    <path d="M 223.173818 54619.770407 
L 224.797091 54619.770407 
L 224.797091 146.110548 
L 223.173818 146.110548 
z
" clip-path="url(#p4bd3caf6e1)" style="fill: #1f77b4"/>
   </g>
   <g id="patch_96">
    <path d="M 224.797091 54619.770407 
L 226.420364 54619.770407 
L 226.420364 54619.770407 
L 224.797091 54619.770407 
z
" clip-path="url(#p4bd3caf6e1)" style="fill: #1f77b4"/>
   </g>
   <g id="patch_97">
    <path d="M 226.420364 54619.770407 
L 228.043636 54619.770407 
L 228.043636 54619.770407 
L 226.420364 54619.770407 
z
" clip-path="url(#p4bd3caf6e1)" style="fill: #1f77b4"/>
   </g>
   <g id="patch_98">
    <path d="M 228.043636 54619.770407 
L 229.666909 54619.770407 
L 229.666909 172.581968 
L 228.043636 172.581968 
z
" clip-path="url(#p4bd3caf6e1)" style="fill: #1f77b4"/>
   </g>
   <g id="patch_99">
    <path d="M 229.666909 54619.770407 
L 231.290182 54619.770407 
L 231.290182 54619.770407 
L 229.666909 54619.770407 
z
" clip-path="url(#p4bd3caf6e1)" style="fill: #1f77b4"/>
   </g>
   <g id="patch_100">
    <path d="M 231.290182 54619.770407 
L 232.913455 54619.770407 
L 232.913455 54619.770407 
L 231.290182 54619.770407 
z
" clip-path="url(#p4bd3caf6e1)" style="fill: #1f77b4"/>
   </g>
   <g id="patch_101">
    <path d="M 232.913455 54619.770407 
L 234.536727 54619.770407 
L 234.536727 155.405275 
L 232.913455 155.405275 
z
" clip-path="url(#p4bd3caf6e1)" style="fill: #1f77b4"/>
   </g>
   <g id="patch_102">
    <path d="M 234.536727 54619.770407 
L 236.16 54619.770407 
L 236.16 54619.770407 
L 234.536727 54619.770407 
z
" clip-path="url(#p4bd3caf6e1)" style="fill: #1f77b4"/>
   </g>
   <g id="patch_103">
    <path d="M 236.16 54619.770407 
L 237.783273 54619.770407 
L 237.783273 54619.770407 
L 236.16 54619.770407 
z
" clip-path="url(#p4bd3caf6e1)" style="fill: #1f77b4"/>
   </g>
   <g id="patch_104">
    <path d="M 237.783273 54619.770407 
L 239.406545 54619.770407 
L 239.406545 182.147999 
L 237.783273 182.147999 
z
" clip-path="url(#p4bd3caf6e1)" style="fill: #1f77b4"/>
   </g>
   <g id="patch_105">
    <path d="M 239.406545 54619.770407 
L 241.029818 54619.770407 
L 241.029818 54619.770407 
L 239.406545 54619.770407 
z
" clip-path="url(#p4bd3caf6e1)" style="fill: #1f77b4"/>
   </g>
   <g id="patch_106">
    <path d="M 241.029818 54619.770407 
L 242.653091 54619.770407 
L 242.653091 54619.770407 
L 241.029818 54619.770407 
z
" clip-path="url(#p4bd3caf6e1)" style="fill: #1f77b4"/>
   </g>
   <g id="patch_107">
    <path d="M 242.653091 54619.770407 
L 244.276364 54619.770407 
L 244.276364 162.296461 
L 242.653091 162.296461 
z
" clip-path="url(#p4bd3caf6e1)" style="fill: #1f77b4"/>
   </g>
   <g id="patch_108">
    <path d="M 244.276364 54619.770407 
L 245.899636 54619.770407 
L 245.899636 54619.770407 
L 244.276364 54619.770407 
z
" clip-path="url(#p4bd3caf6e1)" style="fill: #1f77b4"/>
   </g>
   <g id="patch_109">
    <path d="M 245.899636 54619.770407 
L 247.522909 54619.770407 
L 247.522909 54619.770407 
L 245.899636 54619.770407 
z
" clip-path="url(#p4bd3caf6e1)" style="fill: #1f77b4"/>
   </g>
   <g id="patch_110">
    <path d="M 247.522909 54619.770407 
L 249.146182 54619.770407 
L 249.146182 190.39776 
L 247.522909 190.39776 
z
" clip-path="url(#p4bd3caf6e1)" style="fill: #1f77b4"/>
   </g>
   <g id="patch_111">
    <path d="M 249.146182 54619.770407 
L 250.769455 54619.770407 
L 250.769455 54619.770407 
L 249.146182 54619.770407 
z
" clip-path="url(#p4bd3caf6e1)" style="fill: #1f77b4"/>
   </g>
   <g id="patch_112">
    <path d="M 250.769455 54619.770407 
L 252.392727 54619.770407 
L 252.392727 54619.770407 
L 250.769455 54619.770407 
z
" clip-path="url(#p4bd3caf6e1)" style="fill: #1f77b4"/>
   </g>
   <g id="patch_113">
    <path d="M 252.392727 54619.770407 
L 254.016 54619.770407 
L 254.016 168.345053 
L 252.392727 168.345053 
z
" clip-path="url(#p4bd3caf6e1)" style="fill: #1f77b4"/>
   </g>
   <g id="patch_114">
    <path d="M 254.016 54619.770407 
L 255.639273 54619.770407 
L 255.639273 54619.770407 
L 254.016 54619.770407 
z
" clip-path="url(#p4bd3caf6e1)" style="fill: #1f77b4"/>
   </g>
   <g id="patch_115">
    <path d="M 255.639273 54619.770407 
L 257.262545 54619.770407 
L 257.262545 54619.770407 
L 255.639273 54619.770407 
z
" clip-path="url(#p4bd3caf6e1)" style="fill: #1f77b4"/>
   </g>
   <g id="patch_116">
    <path d="M 257.262545 54619.770407 
L 258.885818 54619.770407 
L 258.885818 203.192674 
L 257.262545 203.192674 
z
" clip-path="url(#p4bd3caf6e1)" style="fill: #1f77b4"/>
   </g>
   <g id="patch_117">
    <path d="M 258.885818 54619.770407 
L 260.509091 54619.770407 
L 260.509091 54619.770407 
L 258.885818 54619.770407 
z
" clip-path="url(#p4bd3caf6e1)" style="fill: #1f77b4"/>
   </g>
   <g id="patch_118">
    <path d="M 260.509091 54619.770407 
L 262.132364 54619.770407 
L 262.132364 54619.770407 
L 260.509091 54619.770407 
z
" clip-path="url(#p4bd3caf6e1)" style="fill: #1f77b4"/>
   </g>
   <g id="patch_119">
    <path d="M 262.132364 54619.770407 
L 263.755636 54619.770407 
L 263.755636 177.59009 
L 262.132364 177.59009 
z
" clip-path="url(#p4bd3caf6e1)" style="fill: #1f77b4"/>
   </g>
   <g id="patch_120">
    <path d="M 263.755636 54619.770407 
L 265.378909 54619.770407 
L 265.378909 54619.770407 
L 263.755636 54619.770407 
z
" clip-path="url(#p4bd3caf6e1)" style="fill: #1f77b4"/>
   </g>
   <g id="patch_121">
    <path d="M 265.378909 54619.770407 
L 267.002182 54619.770407 
L 267.002182 54619.770407 
L 265.378909 54619.770407 
z
" clip-path="url(#p4bd3caf6e1)" style="fill: #1f77b4"/>
   </g>
   <g id="patch_122">
    <path d="M 267.002182 54619.770407 
L 268.625455 54619.770407 
L 268.625455 201.817951 
L 267.002182 201.817951 
z
" clip-path="url(#p4bd3caf6e1)" style="fill: #1f77b4"/>
   </g>
   <g id="patch_123">
    <path d="M 268.625455 54619.770407 
L 270.248727 54619.770407 
L 270.248727 54619.770407 
L 268.625455 54619.770407 
z
" clip-path="url(#p4bd3caf6e1)" style="fill: #1f77b4"/>
   </g>
   <g id="patch_124">
    <path d="M 270.248727 54619.770407 
L 271.872 54619.770407 
L 271.872 54619.770407 
L 270.248727 54619.770407 
z
" clip-path="url(#p4bd3caf6e1)" style="fill: #1f77b4"/>
   </g>
   <g id="patch_125">
    <path d="M 271.872 54619.770407 
L 273.495273 54619.770407 
L 273.495273 187.316072 
L 271.872 187.316072 
z
" clip-path="url(#p4bd3caf6e1)" style="fill: #1f77b4"/>
   </g>
   <g id="patch_126">
    <path d="M 273.495273 54619.770407 
L 275.118545 54619.770407 
L 275.118545 54619.770407 
L 273.495273 54619.770407 
z
" clip-path="url(#p4bd3caf6e1)" style="fill: #1f77b4"/>
   </g>
   <g id="patch_127">
    <path d="M 275.118545 54619.770407 
L 276.741818 54619.770407 
L 276.741818 54619.770407 
L 275.118545 54619.770407 
z
" clip-path="url(#p4bd3caf6e1)" style="fill: #1f77b4"/>
   </g>
   <g id="patch_128">
    <path d="M 276.741818 54619.770407 
L 278.365091 54619.770407 
L 278.365091 213.721808 
L 276.741818 213.721808 
z
" clip-path="url(#p4bd3caf6e1)" style="fill: #1f77b4"/>
   </g>
   <g id="patch_129">
    <path d="M 278.365091 54619.770407 
L 279.988364 54619.770407 
L 279.988364 54619.770407 
L 278.365091 54619.770407 
z
" clip-path="url(#p4bd3caf6e1)" style="fill: #1f77b4"/>
   </g>
   <g id="patch_130">
    <path d="M 279.988364 54619.770407 
L 281.611636 54619.770407 
L 281.611636 54619.770407 
L 279.988364 54619.770407 
z
" clip-path="url(#p4bd3caf6e1)" style="fill: #1f77b4"/>
   </g>
   <g id="patch_131">
    <path d="M 281.611636 54619.770407 
L 283.234909 54619.770407 
L 283.234909 195.938268 
L 281.611636 195.938268 
z
" clip-path="url(#p4bd3caf6e1)" style="fill: #1f77b4"/>
   </g>
   <g id="patch_132">
    <path d="M 283.234909 54619.770407 
L 284.858182 54619.770407 
L 284.858182 54619.770407 
L 283.234909 54619.770407 
z
" clip-path="url(#p4bd3caf6e1)" style="fill: #1f77b4"/>
   </g>
   <g id="patch_133">
    <path d="M 284.858182 54619.770407 
L 286.481455 54619.770407 
L 286.481455 54619.770407 
L 284.858182 54619.770407 
z
" clip-path="url(#p4bd3caf6e1)" style="fill: #1f77b4"/>
   </g>
   <g id="patch_134">
    <path d="M 286.481455 54619.770407 
L 288.104727 54619.770407 
L 288.104727 211.607612 
L 286.481455 211.607612 
z
" clip-path="url(#p4bd3caf6e1)" style="fill: #1f77b4"/>
   </g>
   <g id="patch_135">
    <path d="M 288.104727 54619.770407 
L 289.728 54619.770407 
L 289.728 54619.770407 
L 288.104727 54619.770407 
z
" clip-path="url(#p4bd3caf6e1)" style="fill: #1f77b4"/>
   </g>
   <g id="patch_136">
    <path d="M 289.728 54619.770407 
L 291.351273 54619.770407 
L 291.351273 54619.770407 
L 289.728 54619.770407 
z
" clip-path="url(#p4bd3caf6e1)" style="fill: #1f77b4"/>
   </g>
   <g id="patch_137">
    <path d="M 291.351273 54619.770407 
L 292.974545 54619.770407 
L 292.974545 204.652484 
L 291.351273 204.652484 
z
" clip-path="url(#p4bd3caf6e1)" style="fill: #1f77b4"/>
   </g>
   <g id="patch_138">
    <path d="M 292.974545 54619.770407 
L 294.597818 54619.770407 
L 294.597818 54619.770407 
L 292.974545 54619.770407 
z
" clip-path="url(#p4bd3caf6e1)" style="fill: #1f77b4"/>
   </g>
   <g id="patch_139">
    <path d="M 294.597818 54619.770407 
L 296.221091 54619.770407 
L 296.221091 54619.770407 
L 294.597818 54619.770407 
z
" clip-path="url(#p4bd3caf6e1)" style="fill: #1f77b4"/>
   </g>
   <g id="patch_140">
    <path d="M 296.221091 54619.770407 
L 297.844364 54619.770407 
L 297.844364 215.244448 
L 296.221091 215.244448 
z
" clip-path="url(#p4bd3caf6e1)" style="fill: #1f77b4"/>
   </g>
   <g id="patch_141">
    <path d="M 297.844364 54619.770407 
L 299.467636 54619.770407 
L 299.467636 54619.770407 
L 297.844364 54619.770407 
z
" clip-path="url(#p4bd3caf6e1)" style="fill: #1f77b4"/>
   </g>
   <g id="patch_142">
    <path d="M 299.467636 54619.770407 
L 301.090909 54619.770407 
L 301.090909 54619.770407 
L 299.467636 54619.770407 
z
" clip-path="url(#p4bd3caf6e1)" style="fill: #1f77b4"/>
   </g>
   <g id="patch_143">
    <path d="M 301.090909 54619.770407 
L 302.714182 54619.770407 
L 302.714182 214.470846 
L 301.090909 214.470846 
z
" clip-path="url(#p4bd3caf6e1)" style="fill: #1f77b4"/>
   </g>
   <g id="patch_144">
    <path d="M 302.714182 54619.770407 
L 304.337455 54619.770407 
L 304.337455 54619.770407 
L 302.714182 54619.770407 
z
" clip-path="url(#p4bd3caf6e1)" style="fill: #1f77b4"/>
   </g>
   <g id="patch_145">
    <path d="M 304.337455 54619.770407 
L 305.960727 54619.770407 
L 305.960727 54619.770407 
L 304.337455 54619.770407 
z
" clip-path="url(#p4bd3caf6e1)" style="fill: #1f77b4"/>
   </g>
   <g id="patch_146">
    <path d="M 305.960727 54619.770407 
L 307.584 54619.770407 
L 307.584 233.225417 
L 305.960727 233.225417 
z
" clip-path="url(#p4bd3caf6e1)" style="fill: #1f77b4"/>
   </g>
   <g id="patch_147">
    <path d="M 307.584 54619.770407 
L 309.207273 54619.770407 
L 309.207273 54619.770407 
L 307.584 54619.770407 
z
" clip-path="url(#p4bd3caf6e1)" style="fill: #1f77b4"/>
   </g>
   <g id="patch_148">
    <path d="M 309.207273 54619.770407 
L 310.830545 54619.770407 
L 310.830545 54619.770407 
L 309.207273 54619.770407 
z
" clip-path="url(#p4bd3caf6e1)" style="fill: #1f77b4"/>
   </g>
   <g id="patch_149">
    <path d="M 310.830545 54619.770407 
L 312.453818 54619.770407 
L 312.453818 224.810479 
L 310.830545 224.810479 
z
" clip-path="url(#p4bd3caf6e1)" style="fill: #1f77b4"/>
   </g>
   <g id="patch_150">
    <path d="M 312.453818 54619.770407 
L 314.077091 54619.770407 
L 314.077091 54619.770407 
L 312.453818 54619.770407 
z
" clip-path="url(#p4bd3caf6e1)" style="fill: #1f77b4"/>
   </g>
   <g id="patch_151">
    <path d="M 314.077091 54619.770407 
L 315.700364 54619.770407 
L 315.700364 54619.770407 
L 314.077091 54619.770407 
z
" clip-path="url(#p4bd3caf6e1)" style="fill: #1f77b4"/>
   </g>
   <g id="patch_152">
    <path d="M 315.700364 54619.770407 
L 317.323636 54619.770407 
L 317.323636 243.64946 
L 315.700364 243.64946 
z
" clip-path="url(#p4bd3caf6e1)" style="fill: #1f77b4"/>
   </g>
   <g id="patch_153">
    <path d="M 317.323636 54619.770407 
L 318.946909 54619.770407 
L 318.946909 54619.770407 
L 317.323636 54619.770407 
z
" clip-path="url(#p4bd3caf6e1)" style="fill: #1f77b4"/>
   </g>
   <g id="patch_154">
    <path d="M 318.946909 54619.770407 
L 320.570182 54619.770407 
L 320.570182 54619.770407 
L 318.946909 54619.770407 
z
" clip-path="url(#p4bd3caf6e1)" style="fill: #1f77b4"/>
   </g>
   <g id="patch_155">
    <path d="M 320.570182 54619.770407 
L 322.193455 54619.770407 
L 322.193455 236.862253 
L 320.570182 236.862253 
z
" clip-path="url(#p4bd3caf6e1)" style="fill: #1f77b4"/>
   </g>
   <g id="patch_156">
    <path d="M 322.193455 54619.770407 
L 323.816727 54619.770407 
L 323.816727 54619.770407 
L 322.193455 54619.770407 
z
" clip-path="url(#p4bd3caf6e1)" style="fill: #1f77b4"/>
   </g>
   <g id="patch_157">
    <path d="M 323.816727 54619.770407 
L 325.44 54619.770407 
L 325.44 54619.770407 
L 323.816727 54619.770407 
z
" clip-path="url(#p4bd3caf6e1)" style="fill: #1f77b4"/>
   </g>
   <g id="patch_158">
    <path d="M 325.44 54619.770407 
L 327.063273 54619.770407 
L 327.063273 238.91509 
L 325.44 238.91509 
z
" clip-path="url(#p4bd3caf6e1)" style="fill: #1f77b4"/>
   </g>
   <g id="patch_159">
    <path d="M 327.063273 54619.770407 
L 328.686545 54619.770407 
L 328.686545 54619.770407 
L 327.063273 54619.770407 
z
" clip-path="url(#p4bd3caf6e1)" style="fill: #1f77b4"/>
   </g>
   <g id="patch_160">
    <path d="M 328.686545 54619.770407 
L 330.309818 54619.770407 
L 330.309818 54619.770407 
L 328.686545 54619.770407 
z
" clip-path="url(#p4bd3caf6e1)" style="fill: #1f77b4"/>
   </g>
   <g id="patch_161">
    <path d="M 330.309818 54619.770407 
L 331.933091 54619.770407 
L 331.933091 236.862253 
L 330.309818 236.862253 
z
" clip-path="url(#p4bd3caf6e1)" style="fill: #1f77b4"/>
   </g>
   <g id="patch_162">
    <path d="M 331.933091 54619.770407 
L 333.556364 54619.770407 
L 333.556364 54619.770407 
L 331.933091 54619.770407 
z
" clip-path="url(#p4bd3caf6e1)" style="fill: #1f77b4"/>
   </g>
   <g id="patch_163">
    <path d="M 333.556364 54619.770407 
L 335.179636 54619.770407 
L 335.179636 54619.770407 
L 333.556364 54619.770407 
z
" clip-path="url(#p4bd3caf6e1)" style="fill: #1f77b4"/>
   </g>
   <g id="patch_164">
    <path d="M 335.179636 54619.770407 
L 336.802909 54619.770407 
L 336.802909 269.56873 
L 335.179636 269.56873 
z
" clip-path="url(#p4bd3caf6e1)" style="fill: #1f77b4"/>
   </g>
   <g id="patch_165">
    <path d="M 336.802909 54619.770407 
L 338.426182 54619.770407 
L 338.426182 54619.770407 
L 336.802909 54619.770407 
z
" clip-path="url(#p4bd3caf6e1)" style="fill: #1f77b4"/>
   </g>
   <g id="patch_166">
    <path d="M 338.426182 54619.770407 
L 340.049455 54619.770407 
L 340.049455 54619.770407 
L 338.426182 54619.770407 
z
" clip-path="url(#p4bd3caf6e1)" style="fill: #1f77b4"/>
   </g>
   <g id="patch_167">
    <path d="M 340.049455 54619.770407 
L 341.672727 54619.770407 
L 341.672727 234.973827 
L 340.049455 234.973827 
z
" clip-path="url(#p4bd3caf6e1)" style="fill: #1f77b4"/>
   </g>
   <g id="patch_168">
    <path d="M 341.672727 54619.770407 
L 343.296 54619.770407 
L 343.296 54619.770407 
L 341.672727 54619.770407 
z
" clip-path="url(#p4bd3caf6e1)" style="fill: #1f77b4"/>
   </g>
   <g id="patch_169">
    <path d="M 343.296 54619.770407 
L 344.919273 54619.770407 
L 344.919273 54619.770407 
L 343.296 54619.770407 
z
" clip-path="url(#p4bd3caf6e1)" style="fill: #1f77b4"/>
   </g>
   <g id="patch_170">
    <path d="M 344.919273 54619.770407 
L 346.542545 54619.770407 
L 346.542545 279.134762 
L 344.919273 279.134762 
z
" clip-path="url(#p4bd3caf6e1)" style="fill: #1f77b4"/>
   </g>
   <g id="patch_171">
    <path d="M 346.542545 54619.770407 
L 348.165818 54619.770407 
L 348.165818 54619.770407 
L 346.542545 54619.770407 
z
" clip-path="url(#p4bd3caf6e1)" style="fill: #1f77b4"/>
   </g>
   <g id="patch_172">
    <path d="M 348.165818 54619.770407 
L 349.789091 54619.770407 
L 349.789091 54619.770407 
L 348.165818 54619.770407 
z
" clip-path="url(#p4bd3caf6e1)" style="fill: #1f77b4"/>
   </g>
   <g id="patch_173">
    <path d="M 349.789091 54619.770407 
L 351.412364 54619.770407 
L 351.412364 262.781523 
L 349.789091 262.781523 
z
" clip-path="url(#p4bd3caf6e1)" style="fill: #1f77b4"/>
   </g>
   <g id="patch_174">
    <path d="M 351.412364 54619.770407 
L 353.035636 54619.770407 
L 353.035636 54619.770407 
L 351.412364 54619.770407 
z
" clip-path="url(#p4bd3caf6e1)" style="fill: #1f77b4"/>
   </g>
   <g id="patch_175">
    <path d="M 353.035636 54619.770407 
L 354.658909 54619.770407 
L 354.658909 54619.770407 
L 353.035636 54619.770407 
z
" clip-path="url(#p4bd3caf6e1)" style="fill: #1f77b4"/>
   </g>
   <g id="patch_176">
    <path d="M 354.658909 54619.770407 
L 356.282182 54619.770407 
L 356.282182 54619.770407 
L 354.658909 54619.770407 
z
" clip-path="url(#p4bd3caf6e1)" style="fill: #1f77b4"/>
   </g>
   <g id="patch_177">
    <path d="M 356.282182 54619.770407 
L 357.905455 54619.770407 
L 357.905455 54619.770407 
L 356.282182 54619.770407 
z
" clip-path="url(#p4bd3caf6e1)" style="fill: #1f77b4"/>
   </g>
   <g id="patch_178">
    <path d="M 357.905455 54619.770407 
L 359.528727 54619.770407 
L 359.528727 54619.770407 
L 357.905455 54619.770407 
z
" clip-path="url(#p4bd3caf6e1)" style="fill: #1f77b4"/>
   </g>
   <g id="patch_179">
    <path d="M 359.528727 54619.770407 
L 361.152 54619.770407 
L 361.152 262.781523 
L 359.528727 262.781523 
z
" clip-path="url(#p4bd3caf6e1)" style="fill: #1f77b4"/>
   </g>
   <g id="patch_180">
    <path d="M 361.152 54619.770407 
L 362.775273 54619.770407 
L 362.775273 54619.770407 
L 361.152 54619.770407 
z
" clip-path="url(#p4bd3caf6e1)" style="fill: #1f77b4"/>
   </g>
   <g id="patch_181">
    <path d="M 362.775273 54619.770407 
L 364.398545 54619.770407 
L 364.398545 54619.770407 
L 362.775273 54619.770407 
z
" clip-path="url(#p4bd3caf6e1)" style="fill: #1f77b4"/>
   </g>
   <g id="patch_182">
    <path d="M 364.398545 54619.770407 
L 366.021818 54619.770407 
L 366.021818 54619.770407 
L 364.398545 54619.770407 
z
" clip-path="url(#p4bd3caf6e1)" style="fill: #1f77b4"/>
   </g>
   <g id="patch_183">
    <path d="M 366.021818 54619.770407 
L 367.645091 54619.770407 
L 367.645091 54619.770407 
L 366.021818 54619.770407 
z
" clip-path="url(#p4bd3caf6e1)" style="fill: #1f77b4"/>
   </g>
   <g id="patch_184">
    <path d="M 367.645091 54619.770407 
L 369.268364 54619.770407 
L 369.268364 54619.770407 
L 367.645091 54619.770407 
z
" clip-path="url(#p4bd3caf6e1)" style="fill: #1f77b4"/>
   </g>
   <g id="patch_185">
    <path d="M 369.268364 54619.770407 
L 370.891636 54619.770407 
L 370.891636 269.56873 
L 369.268364 269.56873 
z
" clip-path="url(#p4bd3caf6e1)" style="fill: #1f77b4"/>
   </g>
   <g id="patch_186">
    <path d="M 370.891636 54619.770407 
L 372.514909 54619.770407 
L 372.514909 54619.770407 
L 370.891636 54619.770407 
z
" clip-path="url(#p4bd3caf6e1)" style="fill: #1f77b4"/>
   </g>
   <g id="patch_187">
    <path d="M 372.514909 54619.770407 
L 374.138182 54619.770407 
L 374.138182 54619.770407 
L 372.514909 54619.770407 
z
" clip-path="url(#p4bd3caf6e1)" style="fill: #1f77b4"/>
   </g>
   <g id="patch_188">
    <path d="M 374.138182 54619.770407 
L 375.761455 54619.770407 
L 375.761455 295.488 
L 374.138182 295.488 
z
" clip-path="url(#p4bd3caf6e1)" style="fill: #1f77b4"/>
   </g>
   <g id="patch_189">
    <path d="M 375.761455 54619.770407 
L 377.384727 54619.770407 
L 377.384727 54619.770407 
L 375.761455 54619.770407 
z
" clip-path="url(#p4bd3caf6e1)" style="fill: #1f77b4"/>
   </g>
   <g id="patch_190">
    <path d="M 377.384727 54619.770407 
L 379.008 54619.770407 
L 379.008 54619.770407 
L 377.384727 54619.770407 
z
" clip-path="url(#p4bd3caf6e1)" style="fill: #1f77b4"/>
   </g>
   <g id="patch_191">
    <path d="M 379.008 54619.770407 
L 380.631273 54619.770407 
L 380.631273 54619.770407 
L 379.008 54619.770407 
z
" clip-path="url(#p4bd3caf6e1)" style="fill: #1f77b4"/>
   </g>
   <g id="patch_192">
    <path d="M 380.631273 54619.770407 
L 382.254545 54619.770407 
L 382.254545 54619.770407 
L 380.631273 54619.770407 
z
" clip-path="url(#p4bd3caf6e1)" style="fill: #1f77b4"/>
   </g>
   <g id="patch_193">
    <path d="M 382.254545 54619.770407 
L 383.877818 54619.770407 
L 383.877818 54619.770407 
L 382.254545 54619.770407 
z
" clip-path="url(#p4bd3caf6e1)" style="fill: #1f77b4"/>
   </g>
   <g id="patch_194">
    <path d="M 383.877818 54619.770407 
L 385.501091 54619.770407 
L 385.501091 54619.770407 
L 383.877818 54619.770407 
z
" clip-path="url(#p4bd3caf6e1)" style="fill: #1f77b4"/>
   </g>
   <g id="patch_195">
    <path d="M 385.501091 54619.770407 
L 387.124364 54619.770407 
L 387.124364 54619.770407 
L 385.501091 54619.770407 
z
" clip-path="url(#p4bd3caf6e1)" style="fill: #1f77b4"/>
   </g>
   <g id="patch_196">
    <path d="M 387.124364 54619.770407 
L 388.747636 54619.770407 
L 388.747636 54619.770407 
L 387.124364 54619.770407 
z
" clip-path="url(#p4bd3caf6e1)" style="fill: #1f77b4"/>
   </g>
   <g id="patch_197">
    <path d="M 388.747636 54619.770407 
L 390.370909 54619.770407 
L 390.370909 54619.770407 
L 388.747636 54619.770407 
z
" clip-path="url(#p4bd3caf6e1)" style="fill: #1f77b4"/>
   </g>
   <g id="patch_198">
    <path d="M 390.370909 54619.770407 
L 391.994182 54619.770407 
L 391.994182 54619.770407 
L 390.370909 54619.770407 
z
" clip-path="url(#p4bd3caf6e1)" style="fill: #1f77b4"/>
   </g>
   <g id="patch_199">
    <path d="M 391.994182 54619.770407 
L 393.617455 54619.770407 
L 393.617455 54619.770407 
L 391.994182 54619.770407 
z
" clip-path="url(#p4bd3caf6e1)" style="fill: #1f77b4"/>
   </g>
   <g id="patch_200">
    <path d="M 393.617455 54619.770407 
L 395.240727 54619.770407 
L 395.240727 54619.770407 
L 393.617455 54619.770407 
z
" clip-path="url(#p4bd3caf6e1)" style="fill: #1f77b4"/>
   </g>
   <g id="patch_201">
    <path d="M 395.240727 54619.770407 
L 396.864 54619.770407 
L 396.864 54619.770407 
L 395.240727 54619.770407 
z
" clip-path="url(#p4bd3caf6e1)" style="fill: #1f77b4"/>
   </g>
   <g id="patch_202">
    <path d="M 396.864 54619.770407 
L 398.487273 54619.770407 
L 398.487273 295.488 
L 396.864 295.488 
z
" clip-path="url(#p4bd3caf6e1)" style="fill: #1f77b4"/>
   </g>
   <g id="matplotlib.axis_1">
    <g id="xtick_1">
     <g id="line2d_1">
      <defs>
       <path id="mf208f7eda6" d="M 0 0 
L 0 3.5 
" style="stroke: #000000; stroke-width: 0.8"/>
      </defs>
      <g>
       <use xlink:href="#mf208f7eda6" x="68.987137" y="307.584" style="stroke: #000000; stroke-width: 0.8"/>
      </g>
     </g>
     <g id="text_1">
      <!-- 0 -->
      <g transform="translate(65.487762 322.942281)scale(0.11 -0.11)">
       <defs>
        <path id="DejaVuSans-30" d="M 2034 4250 
Q 1547 4250 1301 3770 
Q 1056 3291 1056 2328 
Q 1056 1369 1301 889 
Q 1547 409 2034 409 
Q 2525 409 2770 889 
Q 3016 1369 3016 2328 
Q 3016 3291 2770 3770 
Q 2525 4250 2034 4250 
z
M 2034 4750 
Q 2819 4750 3233 4129 
Q 3647 3509 3647 2328 
Q 3647 1150 3233 529 
Q 2819 -91 2034 -91 
Q 1250 -91 836 529 
Q 422 1150 422 2328 
Q 422 3509 836 4129 
Q 1250 4750 2034 4750 
z
" transform="scale(0.015625)"/>
       </defs>
       <use xlink:href="#DejaVuSans-30"/>
      </g>
     </g>
    </g>
    <g id="xtick_2">
     <g id="line2d_2">
      <g>
       <use xlink:href="#mf208f7eda6" x="117.443039" y="307.584" style="stroke: #000000; stroke-width: 0.8"/>
      </g>
     </g>
     <g id="text_2">
      <!-- 10 -->
      <g transform="translate(110.444289 322.942281)scale(0.11 -0.11)">
       <defs>
        <path id="DejaVuSans-31" d="M 794 531 
L 1825 531 
L 1825 4091 
L 703 3866 
L 703 4441 
L 1819 4666 
L 2450 4666 
L 2450 531 
L 3481 531 
L 3481 0 
L 794 0 
L 794 531 
z
" transform="scale(0.015625)"/>
       </defs>
       <use xlink:href="#DejaVuSans-31"/>
       <use xlink:href="#DejaVuSans-30" x="63.623047"/>
      </g>
     </g>
    </g>
    <g id="xtick_3">
     <g id="line2d_3">
      <g>
       <use xlink:href="#mf208f7eda6" x="165.898942" y="307.584" style="stroke: #000000; stroke-width: 0.8"/>
      </g>
     </g>
     <g id="text_3">
      <!-- 20 -->
      <g transform="translate(158.900192 322.942281)scale(0.11 -0.11)">
       <defs>
        <path id="DejaVuSans-32" d="M 1228 531 
L 3431 531 
L 3431 0 
L 469 0 
L 469 531 
Q 828 903 1448 1529 
Q 2069 2156 2228 2338 
Q 2531 2678 2651 2914 
Q 2772 3150 2772 3378 
Q 2772 3750 2511 3984 
Q 2250 4219 1831 4219 
Q 1534 4219 1204 4116 
Q 875 4013 500 3803 
L 500 4441 
Q 881 4594 1212 4672 
Q 1544 4750 1819 4750 
Q 2544 4750 2975 4387 
Q 3406 4025 3406 3419 
Q 3406 3131 3298 2873 
Q 3191 2616 2906 2266 
Q 2828 2175 2409 1742 
Q 1991 1309 1228 531 
z
" transform="scale(0.015625)"/>
       </defs>
       <use xlink:href="#DejaVuSans-32"/>
       <use xlink:href="#DejaVuSans-30" x="63.623047"/>
      </g>
     </g>
    </g>
    <g id="xtick_4">
     <g id="line2d_4">
      <g>
       <use xlink:href="#mf208f7eda6" x="214.354844" y="307.584" style="stroke: #000000; stroke-width: 0.8"/>
      </g>
     </g>
     <g id="text_4">
      <!-- 30 -->
      <g transform="translate(207.356094 322.942281)scale(0.11 -0.11)">
       <defs>
        <path id="DejaVuSans-33" d="M 2597 2516 
Q 3050 2419 3304 2112 
Q 3559 1806 3559 1356 
Q 3559 666 3084 287 
Q 2609 -91 1734 -91 
Q 1441 -91 1130 -33 
Q 819 25 488 141 
L 488 750 
Q 750 597 1062 519 
Q 1375 441 1716 441 
Q 2309 441 2620 675 
Q 2931 909 2931 1356 
Q 2931 1769 2642 2001 
Q 2353 2234 1838 2234 
L 1294 2234 
L 1294 2753 
L 1863 2753 
Q 2328 2753 2575 2939 
Q 2822 3125 2822 3475 
Q 2822 3834 2567 4026 
Q 2313 4219 1838 4219 
Q 1578 4219 1281 4162 
Q 984 4106 628 3988 
L 628 4550 
Q 988 4650 1302 4700 
Q 1616 4750 1894 4750 
Q 2613 4750 3031 4423 
Q 3450 4097 3450 3541 
Q 3450 3153 3228 2886 
Q 3006 2619 2597 2516 
z
" transform="scale(0.015625)"/>
       </defs>
       <use xlink:href="#DejaVuSans-33"/>
       <use xlink:href="#DejaVuSans-30" x="63.623047"/>
      </g>
     </g>
    </g>
    <g id="xtick_5">
     <g id="line2d_5">
      <g>
       <use xlink:href="#mf208f7eda6" x="262.810746" y="307.584" style="stroke: #000000; stroke-width: 0.8"/>
      </g>
     </g>
     <g id="text_5">
      <!-- 40 -->
      <g transform="translate(255.811996 322.942281)scale(0.11 -0.11)">
       <defs>
        <path id="DejaVuSans-34" d="M 2419 4116 
L 825 1625 
L 2419 1625 
L 2419 4116 
z
M 2253 4666 
L 3047 4666 
L 3047 1625 
L 3713 1625 
L 3713 1100 
L 3047 1100 
L 3047 0 
L 2419 0 
L 2419 1100 
L 313 1100 
L 313 1709 
L 2253 4666 
z
" transform="scale(0.015625)"/>
       </defs>
       <use xlink:href="#DejaVuSans-34"/>
       <use xlink:href="#DejaVuSans-30" x="63.623047"/>
      </g>
     </g>
    </g>
    <g id="xtick_6">
     <g id="line2d_6">
      <g>
       <use xlink:href="#mf208f7eda6" x="311.266649" y="307.584" style="stroke: #000000; stroke-width: 0.8"/>
      </g>
     </g>
     <g id="text_6">
      <!-- 50 -->
      <g transform="translate(304.267899 322.942281)scale(0.11 -0.11)">
       <defs>
        <path id="DejaVuSans-35" d="M 691 4666 
L 3169 4666 
L 3169 4134 
L 1269 4134 
L 1269 2991 
Q 1406 3038 1543 3061 
Q 1681 3084 1819 3084 
Q 2600 3084 3056 2656 
Q 3513 2228 3513 1497 
Q 3513 744 3044 326 
Q 2575 -91 1722 -91 
Q 1428 -91 1123 -41 
Q 819 9 494 109 
L 494 744 
Q 775 591 1075 516 
Q 1375 441 1709 441 
Q 2250 441 2565 725 
Q 2881 1009 2881 1497 
Q 2881 1984 2565 2268 
Q 2250 2553 1709 2553 
Q 1456 2553 1204 2497 
Q 953 2441 691 2322 
L 691 4666 
z
" transform="scale(0.015625)"/>
       </defs>
       <use xlink:href="#DejaVuSans-35"/>
       <use xlink:href="#DejaVuSans-30" x="63.623047"/>
      </g>
     </g>
    </g>
    <g id="xtick_7">
     <g id="line2d_7">
      <g>
       <use xlink:href="#mf208f7eda6" x="359.722551" y="307.584" style="stroke: #000000; stroke-width: 0.8"/>
      </g>
     </g>
     <g id="text_7">
      <!-- 60 -->
      <g transform="translate(352.723801 322.942281)scale(0.11 -0.11)">
       <defs>
        <path id="DejaVuSans-36" d="M 2113 2584 
Q 1688 2584 1439 2293 
Q 1191 2003 1191 1497 
Q 1191 994 1439 701 
Q 1688 409 2113 409 
Q 2538 409 2786 701 
Q 3034 994 3034 1497 
Q 3034 2003 2786 2293 
Q 2538 2584 2113 2584 
z
M 3366 4563 
L 3366 3988 
Q 3128 4100 2886 4159 
Q 2644 4219 2406 4219 
Q 1781 4219 1451 3797 
Q 1122 3375 1075 2522 
Q 1259 2794 1537 2939 
Q 1816 3084 2150 3084 
Q 2853 3084 3261 2657 
Q 3669 2231 3669 1497 
Q 3669 778 3244 343 
Q 2819 -91 2113 -91 
Q 1303 -91 875 529 
Q 447 1150 447 2328 
Q 447 3434 972 4092 
Q 1497 4750 2381 4750 
Q 2619 4750 2861 4703 
Q 3103 4656 3366 4563 
z
" transform="scale(0.015625)"/>
       </defs>
       <use xlink:href="#DejaVuSans-36"/>
       <use xlink:href="#DejaVuSans-30" x="63.623047"/>
      </g>
     </g>
    </g>
    <g id="xtick_8">
     <g id="line2d_8">
      <g>
       <use xlink:href="#mf208f7eda6" x="408.178453" y="307.584" style="stroke: #000000; stroke-width: 0.8"/>
      </g>
     </g>
     <g id="text_8">
      <!-- 70 -->
      <g transform="translate(401.179703 322.942281)scale(0.11 -0.11)">
       <defs>
        <path id="DejaVuSans-37" d="M 525 4666 
L 3525 4666 
L 3525 4397 
L 1831 0 
L 1172 0 
L 2766 4134 
L 525 4134 
L 525 4666 
z
" transform="scale(0.015625)"/>
       </defs>
       <use xlink:href="#DejaVuSans-37"/>
       <use xlink:href="#DejaVuSans-30" x="63.623047"/>
      </g>
     </g>
    </g>
    <g id="text_9">
     <!-- object instance bounding box height -->
     <g transform="translate(135.622578 337.588219)scale(0.11 -0.11)">
      <defs>
       <path id="DejaVuSans-6f" d="M 1959 3097 
Q 1497 3097 1228 2736 
Q 959 2375 959 1747 
Q 959 1119 1226 758 
Q 1494 397 1959 397 
Q 2419 397 2687 759 
Q 2956 1122 2956 1747 
Q 2956 2369 2687 2733 
Q 2419 3097 1959 3097 
z
M 1959 3584 
Q 2709 3584 3137 3096 
Q 3566 2609 3566 1747 
Q 3566 888 3137 398 
Q 2709 -91 1959 -91 
Q 1206 -91 779 398 
Q 353 888 353 1747 
Q 353 2609 779 3096 
Q 1206 3584 1959 3584 
z
" transform="scale(0.015625)"/>
       <path id="DejaVuSans-62" d="M 3116 1747 
Q 3116 2381 2855 2742 
Q 2594 3103 2138 3103 
Q 1681 3103 1420 2742 
Q 1159 2381 1159 1747 
Q 1159 1113 1420 752 
Q 1681 391 2138 391 
Q 2594 391 2855 752 
Q 3116 1113 3116 1747 
z
M 1159 2969 
Q 1341 3281 1617 3432 
Q 1894 3584 2278 3584 
Q 2916 3584 3314 3078 
Q 3713 2572 3713 1747 
Q 3713 922 3314 415 
Q 2916 -91 2278 -91 
Q 1894 -91 1617 61 
Q 1341 213 1159 525 
L 1159 0 
L 581 0 
L 581 4863 
L 1159 4863 
L 1159 2969 
z
" transform="scale(0.015625)"/>
       <path id="DejaVuSans-6a" d="M 603 3500 
L 1178 3500 
L 1178 -63 
Q 1178 -731 923 -1031 
Q 669 -1331 103 -1331 
L -116 -1331 
L -116 -844 
L 38 -844 
Q 366 -844 484 -692 
Q 603 -541 603 -63 
L 603 3500 
z
M 603 4863 
L 1178 4863 
L 1178 4134 
L 603 4134 
L 603 4863 
z
" transform="scale(0.015625)"/>
       <path id="DejaVuSans-65" d="M 3597 1894 
L 3597 1613 
L 953 1613 
Q 991 1019 1311 708 
Q 1631 397 2203 397 
Q 2534 397 2845 478 
Q 3156 559 3463 722 
L 3463 178 
Q 3153 47 2828 -22 
Q 2503 -91 2169 -91 
Q 1331 -91 842 396 
Q 353 884 353 1716 
Q 353 2575 817 3079 
Q 1281 3584 2069 3584 
Q 2775 3584 3186 3129 
Q 3597 2675 3597 1894 
z
M 3022 2063 
Q 3016 2534 2758 2815 
Q 2500 3097 2075 3097 
Q 1594 3097 1305 2825 
Q 1016 2553 972 2059 
L 3022 2063 
z
" transform="scale(0.015625)"/>
       <path id="DejaVuSans-63" d="M 3122 3366 
L 3122 2828 
Q 2878 2963 2633 3030 
Q 2388 3097 2138 3097 
Q 1578 3097 1268 2742 
Q 959 2388 959 1747 
Q 959 1106 1268 751 
Q 1578 397 2138 397 
Q 2388 397 2633 464 
Q 2878 531 3122 666 
L 3122 134 
Q 2881 22 2623 -34 
Q 2366 -91 2075 -91 
Q 1284 -91 818 406 
Q 353 903 353 1747 
Q 353 2603 823 3093 
Q 1294 3584 2113 3584 
Q 2378 3584 2631 3529 
Q 2884 3475 3122 3366 
z
" transform="scale(0.015625)"/>
       <path id="DejaVuSans-74" d="M 1172 4494 
L 1172 3500 
L 2356 3500 
L 2356 3053 
L 1172 3053 
L 1172 1153 
Q 1172 725 1289 603 
Q 1406 481 1766 481 
L 2356 481 
L 2356 0 
L 1766 0 
Q 1100 0 847 248 
Q 594 497 594 1153 
L 594 3053 
L 172 3053 
L 172 3500 
L 594 3500 
L 594 4494 
L 1172 4494 
z
" transform="scale(0.015625)"/>
       <path id="DejaVuSans-20" transform="scale(0.015625)"/>
       <path id="DejaVuSans-69" d="M 603 3500 
L 1178 3500 
L 1178 0 
L 603 0 
L 603 3500 
z
M 603 4863 
L 1178 4863 
L 1178 4134 
L 603 4134 
L 603 4863 
z
" transform="scale(0.015625)"/>
       <path id="DejaVuSans-6e" d="M 3513 2113 
L 3513 0 
L 2938 0 
L 2938 2094 
Q 2938 2591 2744 2837 
Q 2550 3084 2163 3084 
Q 1697 3084 1428 2787 
Q 1159 2491 1159 1978 
L 1159 0 
L 581 0 
L 581 3500 
L 1159 3500 
L 1159 2956 
Q 1366 3272 1645 3428 
Q 1925 3584 2291 3584 
Q 2894 3584 3203 3211 
Q 3513 2838 3513 2113 
z
" transform="scale(0.015625)"/>
       <path id="DejaVuSans-73" d="M 2834 3397 
L 2834 2853 
Q 2591 2978 2328 3040 
Q 2066 3103 1784 3103 
Q 1356 3103 1142 2972 
Q 928 2841 928 2578 
Q 928 2378 1081 2264 
Q 1234 2150 1697 2047 
L 1894 2003 
Q 2506 1872 2764 1633 
Q 3022 1394 3022 966 
Q 3022 478 2636 193 
Q 2250 -91 1575 -91 
Q 1294 -91 989 -36 
Q 684 19 347 128 
L 347 722 
Q 666 556 975 473 
Q 1284 391 1588 391 
Q 1994 391 2212 530 
Q 2431 669 2431 922 
Q 2431 1156 2273 1281 
Q 2116 1406 1581 1522 
L 1381 1569 
Q 847 1681 609 1914 
Q 372 2147 372 2553 
Q 372 3047 722 3315 
Q 1072 3584 1716 3584 
Q 2034 3584 2315 3537 
Q 2597 3491 2834 3397 
z
" transform="scale(0.015625)"/>
       <path id="DejaVuSans-61" d="M 2194 1759 
Q 1497 1759 1228 1600 
Q 959 1441 959 1056 
Q 959 750 1161 570 
Q 1363 391 1709 391 
Q 2188 391 2477 730 
Q 2766 1069 2766 1631 
L 2766 1759 
L 2194 1759 
z
M 3341 1997 
L 3341 0 
L 2766 0 
L 2766 531 
Q 2569 213 2275 61 
Q 1981 -91 1556 -91 
Q 1019 -91 701 211 
Q 384 513 384 1019 
Q 384 1609 779 1909 
Q 1175 2209 1959 2209 
L 2766 2209 
L 2766 2266 
Q 2766 2663 2505 2880 
Q 2244 3097 1772 3097 
Q 1472 3097 1187 3025 
Q 903 2953 641 2809 
L 641 3341 
Q 956 3463 1253 3523 
Q 1550 3584 1831 3584 
Q 2591 3584 2966 3190 
Q 3341 2797 3341 1997 
z
" transform="scale(0.015625)"/>
       <path id="DejaVuSans-75" d="M 544 1381 
L 544 3500 
L 1119 3500 
L 1119 1403 
Q 1119 906 1312 657 
Q 1506 409 1894 409 
Q 2359 409 2629 706 
Q 2900 1003 2900 1516 
L 2900 3500 
L 3475 3500 
L 3475 0 
L 2900 0 
L 2900 538 
Q 2691 219 2414 64 
Q 2138 -91 1772 -91 
Q 1169 -91 856 284 
Q 544 659 544 1381 
z
M 1991 3584 
L 1991 3584 
z
" transform="scale(0.015625)"/>
       <path id="DejaVuSans-64" d="M 2906 2969 
L 2906 4863 
L 3481 4863 
L 3481 0 
L 2906 0 
L 2906 525 
Q 2725 213 2448 61 
Q 2172 -91 1784 -91 
Q 1150 -91 751 415 
Q 353 922 353 1747 
Q 353 2572 751 3078 
Q 1150 3584 1784 3584 
Q 2172 3584 2448 3432 
Q 2725 3281 2906 2969 
z
M 947 1747 
Q 947 1113 1208 752 
Q 1469 391 1925 391 
Q 2381 391 2643 752 
Q 2906 1113 2906 1747 
Q 2906 2381 2643 2742 
Q 2381 3103 1925 3103 
Q 1469 3103 1208 2742 
Q 947 2381 947 1747 
z
" transform="scale(0.015625)"/>
       <path id="DejaVuSans-67" d="M 2906 1791 
Q 2906 2416 2648 2759 
Q 2391 3103 1925 3103 
Q 1463 3103 1205 2759 
Q 947 2416 947 1791 
Q 947 1169 1205 825 
Q 1463 481 1925 481 
Q 2391 481 2648 825 
Q 2906 1169 2906 1791 
z
M 3481 434 
Q 3481 -459 3084 -895 
Q 2688 -1331 1869 -1331 
Q 1566 -1331 1297 -1286 
Q 1028 -1241 775 -1147 
L 775 -588 
Q 1028 -725 1275 -790 
Q 1522 -856 1778 -856 
Q 2344 -856 2625 -561 
Q 2906 -266 2906 331 
L 2906 616 
Q 2728 306 2450 153 
Q 2172 0 1784 0 
Q 1141 0 747 490 
Q 353 981 353 1791 
Q 353 2603 747 3093 
Q 1141 3584 1784 3584 
Q 2172 3584 2450 3431 
Q 2728 3278 2906 2969 
L 2906 3500 
L 3481 3500 
L 3481 434 
z
" transform="scale(0.015625)"/>
       <path id="DejaVuSans-78" d="M 3513 3500 
L 2247 1797 
L 3578 0 
L 2900 0 
L 1881 1375 
L 863 0 
L 184 0 
L 1544 1831 
L 300 3500 
L 978 3500 
L 1906 2253 
L 2834 3500 
L 3513 3500 
z
" transform="scale(0.015625)"/>
       <path id="DejaVuSans-68" d="M 3513 2113 
L 3513 0 
L 2938 0 
L 2938 2094 
Q 2938 2591 2744 2837 
Q 2550 3084 2163 3084 
Q 1697 3084 1428 2787 
Q 1159 2491 1159 1978 
L 1159 0 
L 581 0 
L 581 4863 
L 1159 4863 
L 1159 2956 
Q 1366 3272 1645 3428 
Q 1925 3584 2291 3584 
Q 2894 3584 3203 3211 
Q 3513 2838 3513 2113 
z
" transform="scale(0.015625)"/>
      </defs>
      <use xlink:href="#DejaVuSans-6f"/>
      <use xlink:href="#DejaVuSans-62" x="61.181641"/>
      <use xlink:href="#DejaVuSans-6a" x="124.658203"/>
      <use xlink:href="#DejaVuSans-65" x="152.441406"/>
      <use xlink:href="#DejaVuSans-63" x="213.964844"/>
      <use xlink:href="#DejaVuSans-74" x="268.945312"/>
      <use xlink:href="#DejaVuSans-20" x="308.154297"/>
      <use xlink:href="#DejaVuSans-69" x="339.941406"/>
      <use xlink:href="#DejaVuSans-6e" x="367.724609"/>
      <use xlink:href="#DejaVuSans-73" x="431.103516"/>
      <use xlink:href="#DejaVuSans-74" x="483.203125"/>
      <use xlink:href="#DejaVuSans-61" x="522.412109"/>
      <use xlink:href="#DejaVuSans-6e" x="583.691406"/>
      <use xlink:href="#DejaVuSans-63" x="647.070312"/>
      <use xlink:href="#DejaVuSans-65" x="702.050781"/>
      <use xlink:href="#DejaVuSans-20" x="763.574219"/>
      <use xlink:href="#DejaVuSans-62" x="795.361328"/>
      <use xlink:href="#DejaVuSans-6f" x="858.837891"/>
      <use xlink:href="#DejaVuSans-75" x="920.019531"/>
      <use xlink:href="#DejaVuSans-6e" x="983.398438"/>
      <use xlink:href="#DejaVuSans-64" x="1046.777344"/>
      <use xlink:href="#DejaVuSans-69" x="1110.253906"/>
      <use xlink:href="#DejaVuSans-6e" x="1138.037109"/>
      <use xlink:href="#DejaVuSans-67" x="1201.416016"/>
      <use xlink:href="#DejaVuSans-20" x="1264.892578"/>
      <use xlink:href="#DejaVuSans-62" x="1296.679688"/>
      <use xlink:href="#DejaVuSans-6f" x="1360.15625"/>
      <use xlink:href="#DejaVuSans-78" x="1418.212891"/>
      <use xlink:href="#DejaVuSans-20" x="1477.392578"/>
      <use xlink:href="#DejaVuSans-68" x="1509.179688"/>
      <use xlink:href="#DejaVuSans-65" x="1572.558594"/>
      <use xlink:href="#DejaVuSans-69" x="1634.082031"/>
      <use xlink:href="#DejaVuSans-67" x="1661.865234"/>
      <use xlink:href="#DejaVuSans-68" x="1725.341797"/>
      <use xlink:href="#DejaVuSans-74" x="1788.720703"/>
     </g>
    </g>
   </g>
   <g id="matplotlib.axis_2">
    <g id="ytick_1">
     <g id="line2d_9">
      <defs>
       <path id="m3ca3b21a41" d="M 0 0 
L -3.5 0 
" style="stroke: #000000; stroke-width: 0.8"/>
      </defs>
      <g>
       <use xlink:href="#m3ca3b21a41" x="57.6" y="295.488" style="stroke: #000000; stroke-width: 0.8"/>
      </g>
     </g>
     <g id="text_10">
      <!-- $\mathdefault{10^{0}}$ -->
      <g transform="translate(31.24 299.667141)scale(0.11 -0.11)">
       <use xlink:href="#DejaVuSans-31" transform="translate(0 0.765625)"/>
       <use xlink:href="#DejaVuSans-30" transform="translate(63.623047 0.765625)"/>
       <use xlink:href="#DejaVuSans-30" transform="translate(128.203125 39.046875)scale(0.7)"/>
      </g>
     </g>
    </g>
    <g id="ytick_2">
     <g id="line2d_10">
      <g>
       <use xlink:href="#m3ca3b21a41" x="57.6" y="241.163718" style="stroke: #000000; stroke-width: 0.8"/>
      </g>
     </g>
     <g id="text_11">
      <!-- $\mathdefault{10^{1}}$ -->
      <g transform="translate(31.24 245.342858)scale(0.11 -0.11)">
       <use xlink:href="#DejaVuSans-31" transform="translate(0 0.684375)"/>
       <use xlink:href="#DejaVuSans-30" transform="translate(63.623047 0.684375)"/>
       <use xlink:href="#DejaVuSans-31" transform="translate(128.203125 38.965625)scale(0.7)"/>
      </g>
     </g>
    </g>
    <g id="ytick_3">
     <g id="line2d_11">
      <g>
       <use xlink:href="#m3ca3b21a41" x="57.6" y="186.839435" style="stroke: #000000; stroke-width: 0.8"/>
      </g>
     </g>
     <g id="text_12">
      <!-- $\mathdefault{10^{2}}$ -->
      <g transform="translate(31.24 191.018576)scale(0.11 -0.11)">
       <use xlink:href="#DejaVuSans-31" transform="translate(0 0.765625)"/>
       <use xlink:href="#DejaVuSans-30" transform="translate(63.623047 0.765625)"/>
       <use xlink:href="#DejaVuSans-32" transform="translate(128.203125 39.046875)scale(0.7)"/>
      </g>
     </g>
    </g>
    <g id="ytick_4">
     <g id="line2d_12">
      <g>
       <use xlink:href="#m3ca3b21a41" x="57.6" y="132.515153" style="stroke: #000000; stroke-width: 0.8"/>
      </g>
     </g>
     <g id="text_13">
      <!-- $\mathdefault{10^{3}}$ -->
      <g transform="translate(31.24 136.694293)scale(0.11 -0.11)">
       <use xlink:href="#DejaVuSans-31" transform="translate(0 0.765625)"/>
       <use xlink:href="#DejaVuSans-30" transform="translate(63.623047 0.765625)"/>
       <use xlink:href="#DejaVuSans-33" transform="translate(128.203125 39.046875)scale(0.7)"/>
      </g>
     </g>
    </g>
    <g id="ytick_5">
     <g id="line2d_13">
      <g>
       <use xlink:href="#m3ca3b21a41" x="57.6" y="78.19087" style="stroke: #000000; stroke-width: 0.8"/>
      </g>
     </g>
     <g id="text_14">
      <!-- $\mathdefault{10^{4}}$ -->
      <g transform="translate(31.24 82.370011)scale(0.11 -0.11)">
       <use xlink:href="#DejaVuSans-31" transform="translate(0 0.684375)"/>
       <use xlink:href="#DejaVuSans-30" transform="translate(63.623047 0.684375)"/>
       <use xlink:href="#DejaVuSans-34" transform="translate(128.203125 38.965625)scale(0.7)"/>
      </g>
     </g>
    </g>
    <g id="ytick_6">
     <g id="line2d_14">
      <defs>
       <path id="m76656815d0" d="M 0 0 
L -2 0 
" style="stroke: #000000; stroke-width: 0.6"/>
      </defs>
      <g>
       <use xlink:href="#m76656815d0" x="57.6" y="307.539774" style="stroke: #000000; stroke-width: 0.6"/>
      </g>
     </g>
    </g>
    <g id="ytick_7">
     <g id="line2d_15">
      <g>
       <use xlink:href="#m76656815d0" x="57.6" y="303.902938" style="stroke: #000000; stroke-width: 0.6"/>
      </g>
     </g>
    </g>
    <g id="ytick_8">
     <g id="line2d_16">
      <g>
       <use xlink:href="#m76656815d0" x="57.6" y="300.752567" style="stroke: #000000; stroke-width: 0.6"/>
      </g>
     </g>
    </g>
    <g id="ytick_9">
     <g id="line2d_17">
      <g>
       <use xlink:href="#m76656815d0" x="57.6" y="297.973743" style="stroke: #000000; stroke-width: 0.6"/>
      </g>
     </g>
    </g>
    <g id="ytick_10">
     <g id="line2d_18">
      <g>
       <use xlink:href="#m76656815d0" x="57.6" y="279.134762" style="stroke: #000000; stroke-width: 0.6"/>
      </g>
     </g>
    </g>
    <g id="ytick_11">
     <g id="line2d_19">
      <g>
       <use xlink:href="#m76656815d0" x="57.6" y="269.56873" style="stroke: #000000; stroke-width: 0.6"/>
      </g>
     </g>
    </g>
    <g id="ytick_12">
     <g id="line2d_20">
      <g>
       <use xlink:href="#m76656815d0" x="57.6" y="262.781523" style="stroke: #000000; stroke-width: 0.6"/>
      </g>
     </g>
    </g>
    <g id="ytick_13">
     <g id="line2d_21">
      <g>
       <use xlink:href="#m76656815d0" x="57.6" y="257.516956" style="stroke: #000000; stroke-width: 0.6"/>
      </g>
     </g>
    </g>
    <g id="ytick_14">
     <g id="line2d_22">
      <g>
       <use xlink:href="#m76656815d0" x="57.6" y="253.215492" style="stroke: #000000; stroke-width: 0.6"/>
      </g>
     </g>
    </g>
    <g id="ytick_15">
     <g id="line2d_23">
      <g>
       <use xlink:href="#m76656815d0" x="57.6" y="249.578655" style="stroke: #000000; stroke-width: 0.6"/>
      </g>
     </g>
    </g>
    <g id="ytick_16">
     <g id="line2d_24">
      <g>
       <use xlink:href="#m76656815d0" x="57.6" y="246.428285" style="stroke: #000000; stroke-width: 0.6"/>
      </g>
     </g>
    </g>
    <g id="ytick_17">
     <g id="line2d_25">
      <g>
       <use xlink:href="#m76656815d0" x="57.6" y="243.64946" style="stroke: #000000; stroke-width: 0.6"/>
      </g>
     </g>
    </g>
    <g id="ytick_18">
     <g id="line2d_26">
      <g>
       <use xlink:href="#m76656815d0" x="57.6" y="224.810479" style="stroke: #000000; stroke-width: 0.6"/>
      </g>
     </g>
    </g>
    <g id="ytick_19">
     <g id="line2d_27">
      <g>
       <use xlink:href="#m76656815d0" x="57.6" y="215.244448" style="stroke: #000000; stroke-width: 0.6"/>
      </g>
     </g>
    </g>
    <g id="ytick_20">
     <g id="line2d_28">
      <g>
       <use xlink:href="#m76656815d0" x="57.6" y="208.457241" style="stroke: #000000; stroke-width: 0.6"/>
      </g>
     </g>
    </g>
    <g id="ytick_21">
     <g id="line2d_29">
      <g>
       <use xlink:href="#m76656815d0" x="57.6" y="203.192674" style="stroke: #000000; stroke-width: 0.6"/>
      </g>
     </g>
    </g>
    <g id="ytick_22">
     <g id="line2d_30">
      <g>
       <use xlink:href="#m76656815d0" x="57.6" y="198.891209" style="stroke: #000000; stroke-width: 0.6"/>
      </g>
     </g>
    </g>
    <g id="ytick_23">
     <g id="line2d_31">
      <g>
       <use xlink:href="#m76656815d0" x="57.6" y="195.254373" style="stroke: #000000; stroke-width: 0.6"/>
      </g>
     </g>
    </g>
    <g id="ytick_24">
     <g id="line2d_32">
      <g>
       <use xlink:href="#m76656815d0" x="57.6" y="192.104002" style="stroke: #000000; stroke-width: 0.6"/>
      </g>
     </g>
    </g>
    <g id="ytick_25">
     <g id="line2d_33">
      <g>
       <use xlink:href="#m76656815d0" x="57.6" y="189.325178" style="stroke: #000000; stroke-width: 0.6"/>
      </g>
     </g>
    </g>
    <g id="ytick_26">
     <g id="line2d_34">
      <g>
       <use xlink:href="#m76656815d0" x="57.6" y="170.486197" style="stroke: #000000; stroke-width: 0.6"/>
      </g>
     </g>
    </g>
    <g id="ytick_27">
     <g id="line2d_35">
      <g>
       <use xlink:href="#m76656815d0" x="57.6" y="160.920165" style="stroke: #000000; stroke-width: 0.6"/>
      </g>
     </g>
    </g>
    <g id="ytick_28">
     <g id="line2d_36">
      <g>
       <use xlink:href="#m76656815d0" x="57.6" y="154.132958" style="stroke: #000000; stroke-width: 0.6"/>
      </g>
     </g>
    </g>
    <g id="ytick_29">
     <g id="line2d_37">
      <g>
       <use xlink:href="#m76656815d0" x="57.6" y="148.868391" style="stroke: #000000; stroke-width: 0.6"/>
      </g>
     </g>
    </g>
    <g id="ytick_30">
     <g id="line2d_38">
      <g>
       <use xlink:href="#m76656815d0" x="57.6" y="144.566927" style="stroke: #000000; stroke-width: 0.6"/>
      </g>
     </g>
    </g>
    <g id="ytick_31">
     <g id="line2d_39">
      <g>
       <use xlink:href="#m76656815d0" x="57.6" y="140.930091" style="stroke: #000000; stroke-width: 0.6"/>
      </g>
     </g>
    </g>
    <g id="ytick_32">
     <g id="line2d_40">
      <g>
       <use xlink:href="#m76656815d0" x="57.6" y="137.77972" style="stroke: #000000; stroke-width: 0.6"/>
      </g>
     </g>
    </g>
    <g id="ytick_33">
     <g id="line2d_41">
      <g>
       <use xlink:href="#m76656815d0" x="57.6" y="135.000896" style="stroke: #000000; stroke-width: 0.6"/>
      </g>
     </g>
    </g>
    <g id="ytick_34">
     <g id="line2d_42">
      <g>
       <use xlink:href="#m76656815d0" x="57.6" y="116.161914" style="stroke: #000000; stroke-width: 0.6"/>
      </g>
     </g>
    </g>
    <g id="ytick_35">
     <g id="line2d_43">
      <g>
       <use xlink:href="#m76656815d0" x="57.6" y="106.595883" style="stroke: #000000; stroke-width: 0.6"/>
      </g>
     </g>
    </g>
    <g id="ytick_36">
     <g id="line2d_44">
      <g>
       <use xlink:href="#m76656815d0" x="57.6" y="99.808676" style="stroke: #000000; stroke-width: 0.6"/>
      </g>
     </g>
    </g>
    <g id="ytick_37">
     <g id="line2d_45">
      <g>
       <use xlink:href="#m76656815d0" x="57.6" y="94.544109" style="stroke: #000000; stroke-width: 0.6"/>
      </g>
     </g>
    </g>
    <g id="ytick_38">
     <g id="line2d_46">
      <g>
       <use xlink:href="#m76656815d0" x="57.6" y="90.242644" style="stroke: #000000; stroke-width: 0.6"/>
      </g>
     </g>
    </g>
    <g id="ytick_39">
     <g id="line2d_47">
      <g>
       <use xlink:href="#m76656815d0" x="57.6" y="86.605808" style="stroke: #000000; stroke-width: 0.6"/>
      </g>
     </g>
    </g>
    <g id="ytick_40">
     <g id="line2d_48">
      <g>
       <use xlink:href="#m76656815d0" x="57.6" y="83.455437" style="stroke: #000000; stroke-width: 0.6"/>
      </g>
     </g>
    </g>
    <g id="ytick_41">
     <g id="line2d_49">
      <g>
       <use xlink:href="#m76656815d0" x="57.6" y="80.676613" style="stroke: #000000; stroke-width: 0.6"/>
      </g>
     </g>
    </g>
    <g id="ytick_42">
     <g id="line2d_50">
      <g>
       <use xlink:href="#m76656815d0" x="57.6" y="61.837632" style="stroke: #000000; stroke-width: 0.6"/>
      </g>
     </g>
    </g>
    <g id="ytick_43">
     <g id="line2d_51">
      <g>
       <use xlink:href="#m76656815d0" x="57.6" y="52.271601" style="stroke: #000000; stroke-width: 0.6"/>
      </g>
     </g>
    </g>
    <g id="ytick_44">
     <g id="line2d_52">
      <g>
       <use xlink:href="#m76656815d0" x="57.6" y="45.484393" style="stroke: #000000; stroke-width: 0.6"/>
      </g>
     </g>
    </g>
    <g id="text_15">
     <!-- number of objects -->
     <g transform="translate(24.952344 224.6055)rotate(-90)scale(0.11 -0.11)">
      <defs>
       <path id="DejaVuSans-6d" d="M 3328 2828 
Q 3544 3216 3844 3400 
Q 4144 3584 4550 3584 
Q 5097 3584 5394 3201 
Q 5691 2819 5691 2113 
L 5691 0 
L 5113 0 
L 5113 2094 
Q 5113 2597 4934 2840 
Q 4756 3084 4391 3084 
Q 3944 3084 3684 2787 
Q 3425 2491 3425 1978 
L 3425 0 
L 2847 0 
L 2847 2094 
Q 2847 2600 2669 2842 
Q 2491 3084 2119 3084 
Q 1678 3084 1418 2786 
Q 1159 2488 1159 1978 
L 1159 0 
L 581 0 
L 581 3500 
L 1159 3500 
L 1159 2956 
Q 1356 3278 1631 3431 
Q 1906 3584 2284 3584 
Q 2666 3584 2933 3390 
Q 3200 3197 3328 2828 
z
" transform="scale(0.015625)"/>
       <path id="DejaVuSans-72" d="M 2631 2963 
Q 2534 3019 2420 3045 
Q 2306 3072 2169 3072 
Q 1681 3072 1420 2755 
Q 1159 2438 1159 1844 
L 1159 0 
L 581 0 
L 581 3500 
L 1159 3500 
L 1159 2956 
Q 1341 3275 1631 3429 
Q 1922 3584 2338 3584 
Q 2397 3584 2469 3576 
Q 2541 3569 2628 3553 
L 2631 2963 
z
" transform="scale(0.015625)"/>
       <path id="DejaVuSans-66" d="M 2375 4863 
L 2375 4384 
L 1825 4384 
Q 1516 4384 1395 4259 
Q 1275 4134 1275 3809 
L 1275 3500 
L 2222 3500 
L 2222 3053 
L 1275 3053 
L 1275 0 
L 697 0 
L 697 3053 
L 147 3053 
L 147 3500 
L 697 3500 
L 697 3744 
Q 697 4328 969 4595 
Q 1241 4863 1831 4863 
L 2375 4863 
z
" transform="scale(0.015625)"/>
      </defs>
      <use xlink:href="#DejaVuSans-6e"/>
      <use xlink:href="#DejaVuSans-75" x="63.378906"/>
      <use xlink:href="#DejaVuSans-6d" x="126.757812"/>
      <use xlink:href="#DejaVuSans-62" x="224.169922"/>
      <use xlink:href="#DejaVuSans-65" x="287.646484"/>
      <use xlink:href="#DejaVuSans-72" x="349.169922"/>
      <use xlink:href="#DejaVuSans-20" x="390.283203"/>
      <use xlink:href="#DejaVuSans-6f" x="422.070312"/>
      <use xlink:href="#DejaVuSans-66" x="483.251953"/>
      <use xlink:href="#DejaVuSans-20" x="518.457031"/>
      <use xlink:href="#DejaVuSans-6f" x="550.244141"/>
      <use xlink:href="#DejaVuSans-62" x="611.425781"/>
      <use xlink:href="#DejaVuSans-6a" x="674.902344"/>
      <use xlink:href="#DejaVuSans-65" x="702.685547"/>
      <use xlink:href="#DejaVuSans-63" x="764.208984"/>
      <use xlink:href="#DejaVuSans-74" x="819.189453"/>
      <use xlink:href="#DejaVuSans-73" x="858.398438"/>
     </g>
    </g>
   </g>
   <g id="patch_203">
    <path d="M 57.6 307.584 
L 57.6 41.472 
" style="fill: none; stroke: #000000; stroke-width: 0.8; stroke-linejoin: miter; stroke-linecap: square"/>
   </g>
   <g id="patch_204">
    <path d="M 414.72 307.584 
L 414.72 41.472 
" style="fill: none; stroke: #000000; stroke-width: 0.8; stroke-linejoin: miter; stroke-linecap: square"/>
   </g>
   <g id="patch_205">
    <path d="M 57.6 307.584 
L 414.72 307.584 
" style="fill: none; stroke: #000000; stroke-width: 0.8; stroke-linejoin: miter; stroke-linecap: square"/>
   </g>
   <g id="patch_206">
    <path d="M 57.6 41.472 
L 414.72 41.472 
" style="fill: none; stroke: #000000; stroke-width: 0.8; stroke-linejoin: miter; stroke-linecap: square"/>
   </g>
   <g id="text_16">
    <!-- Bounding Box height pixel overview -->
    <g transform="translate(117.601312 20.690888)scale(0.132 -0.132)">
     <defs>
      <path id="DejaVuSans-42" d="M 1259 2228 
L 1259 519 
L 2272 519 
Q 2781 519 3026 730 
Q 3272 941 3272 1375 
Q 3272 1813 3026 2020 
Q 2781 2228 2272 2228 
L 1259 2228 
z
M 1259 4147 
L 1259 2741 
L 2194 2741 
Q 2656 2741 2882 2914 
Q 3109 3088 3109 3444 
Q 3109 3797 2882 3972 
Q 2656 4147 2194 4147 
L 1259 4147 
z
M 628 4666 
L 2241 4666 
Q 2963 4666 3353 4366 
Q 3744 4066 3744 3513 
Q 3744 3084 3544 2831 
Q 3344 2578 2956 2516 
Q 3422 2416 3680 2098 
Q 3938 1781 3938 1306 
Q 3938 681 3513 340 
Q 3088 0 2303 0 
L 628 0 
L 628 4666 
z
" transform="scale(0.015625)"/>
      <path id="DejaVuSans-70" d="M 1159 525 
L 1159 -1331 
L 581 -1331 
L 581 3500 
L 1159 3500 
L 1159 2969 
Q 1341 3281 1617 3432 
Q 1894 3584 2278 3584 
Q 2916 3584 3314 3078 
Q 3713 2572 3713 1747 
Q 3713 922 3314 415 
Q 2916 -91 2278 -91 
Q 1894 -91 1617 61 
Q 1341 213 1159 525 
z
M 3116 1747 
Q 3116 2381 2855 2742 
Q 2594 3103 2138 3103 
Q 1681 3103 1420 2742 
Q 1159 2381 1159 1747 
Q 1159 1113 1420 752 
Q 1681 391 2138 391 
Q 2594 391 2855 752 
Q 3116 1113 3116 1747 
z
" transform="scale(0.015625)"/>
      <path id="DejaVuSans-6c" d="M 603 4863 
L 1178 4863 
L 1178 0 
L 603 0 
L 603 4863 
z
" transform="scale(0.015625)"/>
      <path id="DejaVuSans-76" d="M 191 3500 
L 800 3500 
L 1894 563 
L 2988 3500 
L 3597 3500 
L 2284 0 
L 1503 0 
L 191 3500 
z
" transform="scale(0.015625)"/>
      <path id="DejaVuSans-77" d="M 269 3500 
L 844 3500 
L 1563 769 
L 2278 3500 
L 2956 3500 
L 3675 769 
L 4391 3500 
L 4966 3500 
L 4050 0 
L 3372 0 
L 2619 2869 
L 1863 0 
L 1184 0 
L 269 3500 
z
" transform="scale(0.015625)"/>
     </defs>
     <use xlink:href="#DejaVuSans-42"/>
     <use xlink:href="#DejaVuSans-6f" x="68.603516"/>
     <use xlink:href="#DejaVuSans-75" x="129.785156"/>
     <use xlink:href="#DejaVuSans-6e" x="193.164062"/>
     <use xlink:href="#DejaVuSans-64" x="256.542969"/>
     <use xlink:href="#DejaVuSans-69" x="320.019531"/>
     <use xlink:href="#DejaVuSans-6e" x="347.802734"/>
     <use xlink:href="#DejaVuSans-67" x="411.181641"/>
     <use xlink:href="#DejaVuSans-20" x="474.658203"/>
     <use xlink:href="#DejaVuSans-42" x="506.445312"/>
     <use xlink:href="#DejaVuSans-6f" x="575.048828"/>
     <use xlink:href="#DejaVuSans-78" x="633.105469"/>
     <use xlink:href="#DejaVuSans-20" x="692.285156"/>
     <use xlink:href="#DejaVuSans-68" x="724.072266"/>
     <use xlink:href="#DejaVuSans-65" x="787.451172"/>
     <use xlink:href="#DejaVuSans-69" x="848.974609"/>
     <use xlink:href="#DejaVuSans-67" x="876.757812"/>
     <use xlink:href="#DejaVuSans-68" x="940.234375"/>
     <use xlink:href="#DejaVuSans-74" x="1003.613281"/>
     <use xlink:href="#DejaVuSans-20" x="1042.822266"/>
     <use xlink:href="#DejaVuSans-70" x="1074.609375"/>
     <use xlink:href="#DejaVuSans-69" x="1138.085938"/>
     <use xlink:href="#DejaVuSans-78" x="1165.869141"/>
     <use xlink:href="#DejaVuSans-65" x="1221.923828"/>
     <use xlink:href="#DejaVuSans-6c" x="1283.447266"/>
     <use xlink:href="#DejaVuSans-20" x="1311.230469"/>
     <use xlink:href="#DejaVuSans-6f" x="1343.017578"/>
     <use xlink:href="#DejaVuSans-76" x="1404.199219"/>
     <use xlink:href="#DejaVuSans-65" x="1463.378906"/>
     <use xlink:href="#DejaVuSans-72" x="1524.902344"/>
     <use xlink:href="#DejaVuSans-76" x="1566.015625"/>
     <use xlink:href="#DejaVuSans-69" x="1625.195312"/>
     <use xlink:href="#DejaVuSans-65" x="1652.978516"/>
     <use xlink:href="#DejaVuSans-77" x="1714.501953"/>
    </g>
    <!-- median = 12 pixels, mean = 12 pixels -->
    <g transform="translate(109.950469 35.472)scale(0.132 -0.132)">
     <defs>
      <path id="DejaVuSans-3d" d="M 678 2906 
L 4684 2906 
L 4684 2381 
L 678 2381 
L 678 2906 
z
M 678 1631 
L 4684 1631 
L 4684 1100 
L 678 1100 
L 678 1631 
z
" transform="scale(0.015625)"/>
      <path id="DejaVuSans-2c" d="M 750 794 
L 1409 794 
L 1409 256 
L 897 -744 
L 494 -744 
L 750 256 
L 750 794 
z
" transform="scale(0.015625)"/>
     </defs>
     <use xlink:href="#DejaVuSans-6d"/>
     <use xlink:href="#DejaVuSans-65" x="97.412109"/>
     <use xlink:href="#DejaVuSans-64" x="158.935547"/>
     <use xlink:href="#DejaVuSans-69" x="222.412109"/>
     <use xlink:href="#DejaVuSans-61" x="250.195312"/>
     <use xlink:href="#DejaVuSans-6e" x="311.474609"/>
     <use xlink:href="#DejaVuSans-20" x="374.853516"/>
     <use xlink:href="#DejaVuSans-3d" x="406.640625"/>
     <use xlink:href="#DejaVuSans-20" x="490.429688"/>
     <use xlink:href="#DejaVuSans-31" x="522.216797"/>
     <use xlink:href="#DejaVuSans-32" x="585.839844"/>
     <use xlink:href="#DejaVuSans-20" x="649.462891"/>
     <use xlink:href="#DejaVuSans-70" x="681.25"/>
     <use xlink:href="#DejaVuSans-69" x="744.726562"/>
     <use xlink:href="#DejaVuSans-78" x="772.509766"/>
     <use xlink:href="#DejaVuSans-65" x="828.564453"/>
     <use xlink:href="#DejaVuSans-6c" x="890.087891"/>
     <use xlink:href="#DejaVuSans-73" x="917.871094"/>
     <use xlink:href="#DejaVuSans-2c" x="969.970703"/>
     <use xlink:href="#DejaVuSans-20" x="1001.757812"/>
     <use xlink:href="#DejaVuSans-6d" x="1033.544922"/>
     <use xlink:href="#DejaVuSans-65" x="1130.957031"/>
     <use xlink:href="#DejaVuSans-61" x="1192.480469"/>
     <use xlink:href="#DejaVuSans-6e" x="1253.759766"/>
     <use xlink:href="#DejaVuSans-20" x="1317.138672"/>
     <use xlink:href="#DejaVuSans-3d" x="1348.925781"/>
     <use xlink:href="#DejaVuSans-20" x="1432.714844"/>
     <use xlink:href="#DejaVuSans-31" x="1464.501953"/>
     <use xlink:href="#DejaVuSans-32" x="1528.125"/>
     <use xlink:href="#DejaVuSans-20" x="1591.748047"/>
     <use xlink:href="#DejaVuSans-70" x="1623.535156"/>
     <use xlink:href="#DejaVuSans-69" x="1687.011719"/>
     <use xlink:href="#DejaVuSans-78" x="1714.794922"/>
     <use xlink:href="#DejaVuSans-65" x="1770.849609"/>
     <use xlink:href="#DejaVuSans-6c" x="1832.373047"/>
     <use xlink:href="#DejaVuSans-73" x="1860.15625"/>
    </g>
   </g>
  </g>
 </g>
 <defs>
  <clipPath id="p4bd3caf6e1">
   <rect x="57.6" y="41.472" width="357.12" height="266.112"/>
  </clipPath>
 </defs>
</svg>
