<?xml version="1.0" encoding="utf-8" standalone="no"?>
<!DOCTYPE svg PUBLIC "-//W3C//DTD SVG 1.1//EN"
  "http://www.w3.org/Graphics/SVG/1.1/DTD/svg11.dtd">
<svg xmlns:xlink="http://www.w3.org/1999/xlink" width="460.8pt" height="345.6pt" viewBox="0 0 460.8 345.6" xmlns="http://www.w3.org/2000/svg" version="1.1">
 <metadata>
  <rdf:RDF xmlns:dc="http://purl.org/dc/elements/1.1/" xmlns:cc="http://creativecommons.org/ns#" xmlns:rdf="http://www.w3.org/1999/02/22-rdf-syntax-ns#">
   <cc:Work>
    <dc:type rdf:resource="http://purl.org/dc/dcmitype/StillImage"/>
    <dc:date>2022-11-03T14:02:43.600642</dc:date>
    <dc:format>image/svg+xml</dc:format>
    <dc:creator>
     <cc:Agent>
      <dc:title>Matplotlib v3.5.3, https://matplotlib.org/</dc:title>
     </cc:Agent>
    </dc:creator>
   </cc:Work>
  </rdf:RDF>
 </metadata>
 <defs>
  <style type="text/css">*{stroke-linejoin: round; stroke-linecap: butt}</style>
 </defs>
 <g id="figure_1">
  <g id="patch_1">
   <path d="M 0 345.6 
L 460.8 345.6 
L 460.8 0 
L 0 0 
z
" style="fill: #ffffff"/>
  </g>
  <g id="axes_1">
   <g id="patch_2">
    <path d="M 57.6 307.584 
L 414.72 307.584 
L 414.72 41.472 
L 57.6 41.472 
z
" style="fill: #ffffff"/>
   </g>
   <g id="patch_3">
    <path d="M 73.832727 55048.946717 
L 75.456 55048.946717 
L 75.456 205.503282 
L 73.832727 205.503282 
z
" clip-path="url(#p21dd99f830)" style="fill: #1f77b4"/>
   </g>
   <g id="patch_4">
    <path d="M 75.456 55048.946717 
L 77.079273 55048.946717 
L 77.079273 146.056788 
L 75.456 146.056788 
z
" clip-path="url(#p21dd99f830)" style="fill: #1f77b4"/>
   </g>
   <g id="patch_5">
    <path d="M 77.079273 55048.946717 
L 78.702545 55048.946717 
L 78.702545 55048.946717 
L 77.079273 55048.946717 
z
" clip-path="url(#p21dd99f830)" style="fill: #1f77b4"/>
   </g>
   <g id="patch_6">
    <path d="M 78.702545 55048.946717 
L 80.325818 55048.946717 
L 80.325818 116.909552 
L 78.702545 116.909552 
z
" clip-path="url(#p21dd99f830)" style="fill: #1f77b4"/>
   </g>
   <g id="patch_7">
    <path d="M 80.325818 55048.946717 
L 81.949091 55048.946717 
L 81.949091 55048.946717 
L 80.325818 55048.946717 
z
" clip-path="url(#p21dd99f830)" style="fill: #1f77b4"/>
   </g>
   <g id="patch_8">
    <path d="M 81.949091 55048.946717 
L 83.572364 55048.946717 
L 83.572364 88.235897 
L 81.949091 88.235897 
z
" clip-path="url(#p21dd99f830)" style="fill: #1f77b4"/>
   </g>
   <g id="patch_9">
    <path d="M 83.572364 55048.946717 
L 85.195636 55048.946717 
L 85.195636 55048.946717 
L 83.572364 55048.946717 
z
" clip-path="url(#p21dd99f830)" style="fill: #1f77b4"/>
   </g>
   <g id="patch_10">
    <path d="M 85.195636 55048.946717 
L 86.818909 55048.946717 
L 86.818909 90.012522 
L 85.195636 90.012522 
z
" clip-path="url(#p21dd99f830)" style="fill: #1f77b4"/>
   </g>
   <g id="patch_11">
    <path d="M 86.818909 55048.946717 
L 88.442182 55048.946717 
L 88.442182 55048.946717 
L 86.818909 55048.946717 
z
" clip-path="url(#p21dd99f830)" style="fill: #1f77b4"/>
   </g>
   <g id="patch_12">
    <path d="M 88.442182 55048.946717 
L 90.065455 55048.946717 
L 90.065455 71.36284 
L 88.442182 71.36284 
z
" clip-path="url(#p21dd99f830)" style="fill: #1f77b4"/>
   </g>
   <g id="patch_13">
    <path d="M 90.065455 55048.946717 
L 91.688727 55048.946717 
L 91.688727 55048.946717 
L 90.065455 55048.946717 
z
" clip-path="url(#p21dd99f830)" style="fill: #1f77b4"/>
   </g>
   <g id="patch_14">
    <path d="M 91.688727 55048.946717 
L 93.312 55048.946717 
L 93.312 92.069737 
L 91.688727 92.069737 
z
" clip-path="url(#p21dd99f830)" style="fill: #1f77b4"/>
   </g>
   <g id="patch_15">
    <path d="M 93.312 55048.946717 
L 94.935273 55048.946717 
L 94.935273 55048.946717 
L 93.312 55048.946717 
z
" clip-path="url(#p21dd99f830)" style="fill: #1f77b4"/>
   </g>
   <g id="patch_16">
    <path d="M 94.935273 55048.946717 
L 96.558545 55048.946717 
L 96.558545 58.653304 
L 94.935273 58.653304 
z
" clip-path="url(#p21dd99f830)" style="fill: #1f77b4"/>
   </g>
   <g id="patch_17">
    <path d="M 96.558545 55048.946717 
L 98.181818 55048.946717 
L 98.181818 55048.946717 
L 96.558545 55048.946717 
z
" clip-path="url(#p21dd99f830)" style="fill: #1f77b4"/>
   </g>
   <g id="patch_18">
    <path d="M 98.181818 55048.946717 
L 99.805091 55048.946717 
L 99.805091 84.121142 
L 98.181818 84.121142 
z
" clip-path="url(#p21dd99f830)" style="fill: #1f77b4"/>
   </g>
   <g id="patch_19">
    <path d="M 99.805091 55048.946717 
L 101.428364 55048.946717 
L 101.428364 55048.946717 
L 99.805091 55048.946717 
z
" clip-path="url(#p21dd99f830)" style="fill: #1f77b4"/>
   </g>
   <g id="patch_20">
    <path d="M 101.428364 55048.946717 
L 103.051636 55048.946717 
L 103.051636 53.568 
L 101.428364 53.568 
z
" clip-path="url(#p21dd99f830)" style="fill: #1f77b4"/>
   </g>
   <g id="patch_21">
    <path d="M 103.051636 55048.946717 
L 104.674909 55048.946717 
L 104.674909 55048.946717 
L 103.051636 55048.946717 
z
" clip-path="url(#p21dd99f830)" style="fill: #1f77b4"/>
   </g>
   <g id="patch_22">
    <path d="M 104.674909 55048.946717 
L 106.298182 55048.946717 
L 106.298182 89.521785 
L 104.674909 89.521785 
z
" clip-path="url(#p21dd99f830)" style="fill: #1f77b4"/>
   </g>
   <g id="patch_23">
    <path d="M 106.298182 55048.946717 
L 107.921455 55048.946717 
L 107.921455 53.622512 
L 106.298182 53.622512 
z
" clip-path="url(#p21dd99f830)" style="fill: #1f77b4"/>
   </g>
   <g id="patch_24">
    <path d="M 107.921455 55048.946717 
L 109.544727 55048.946717 
L 109.544727 55048.946717 
L 107.921455 55048.946717 
z
" clip-path="url(#p21dd99f830)" style="fill: #1f77b4"/>
   </g>
   <g id="patch_25">
    <path d="M 109.544727 55048.946717 
L 111.168 55048.946717 
L 111.168 103.280859 
L 109.544727 103.280859 
z
" clip-path="url(#p21dd99f830)" style="fill: #1f77b4"/>
   </g>
   <g id="patch_26">
    <path d="M 111.168 55048.946717 
L 112.791273 55048.946717 
L 112.791273 55048.946717 
L 111.168 55048.946717 
z
" clip-path="url(#p21dd99f830)" style="fill: #1f77b4"/>
   </g>
   <g id="patch_27">
    <path d="M 112.791273 55048.946717 
L 114.414545 55048.946717 
L 114.414545 54.732226 
L 112.791273 54.732226 
z
" clip-path="url(#p21dd99f830)" style="fill: #1f77b4"/>
   </g>
   <g id="patch_28">
    <path d="M 114.414545 55048.946717 
L 116.037818 55048.946717 
L 116.037818 55048.946717 
L 114.414545 55048.946717 
z
" clip-path="url(#p21dd99f830)" style="fill: #1f77b4"/>
   </g>
   <g id="patch_29">
    <path d="M 116.037818 55048.946717 
L 117.661091 55048.946717 
L 117.661091 113.709888 
L 116.037818 113.709888 
z
" clip-path="url(#p21dd99f830)" style="fill: #1f77b4"/>
   </g>
   <g id="patch_30">
    <path d="M 117.661091 55048.946717 
L 119.284364 55048.946717 
L 119.284364 55048.946717 
L 117.661091 55048.946717 
z
" clip-path="url(#p21dd99f830)" style="fill: #1f77b4"/>
   </g>
   <g id="patch_31">
    <path d="M 119.284364 55048.946717 
L 120.907636 55048.946717 
L 120.907636 60.920371 
L 119.284364 60.920371 
z
" clip-path="url(#p21dd99f830)" style="fill: #1f77b4"/>
   </g>
   <g id="patch_32">
    <path d="M 120.907636 55048.946717 
L 122.530909 55048.946717 
L 122.530909 55048.946717 
L 120.907636 55048.946717 
z
" clip-path="url(#p21dd99f830)" style="fill: #1f77b4"/>
   </g>
   <g id="patch_33">
    <path d="M 122.530909 55048.946717 
L 124.154182 55048.946717 
L 124.154182 116.065234 
L 122.530909 116.065234 
z
" clip-path="url(#p21dd99f830)" style="fill: #1f77b4"/>
   </g>
   <g id="patch_34">
    <path d="M 124.154182 55048.946717 
L 125.777455 55048.946717 
L 125.777455 55048.946717 
L 124.154182 55048.946717 
z
" clip-path="url(#p21dd99f830)" style="fill: #1f77b4"/>
   </g>
   <g id="patch_35">
    <path d="M 125.777455 55048.946717 
L 127.400727 55048.946717 
L 127.400727 72.148628 
L 125.777455 72.148628 
z
" clip-path="url(#p21dd99f830)" style="fill: #1f77b4"/>
   </g>
   <g id="patch_36">
    <path d="M 127.400727 55048.946717 
L 129.024 55048.946717 
L 129.024 55048.946717 
L 127.400727 55048.946717 
z
" clip-path="url(#p21dd99f830)" style="fill: #1f77b4"/>
   </g>
   <g id="patch_37">
    <path d="M 129.024 55048.946717 
L 130.647273 55048.946717 
L 130.647273 116.831545 
L 129.024 116.831545 
z
" clip-path="url(#p21dd99f830)" style="fill: #1f77b4"/>
   </g>
   <g id="patch_38">
    <path d="M 130.647273 55048.946717 
L 132.270545 55048.946717 
L 132.270545 55048.946717 
L 130.647273 55048.946717 
z
" clip-path="url(#p21dd99f830)" style="fill: #1f77b4"/>
   </g>
   <g id="patch_39">
    <path d="M 132.270545 55048.946717 
L 133.893818 55048.946717 
L 133.893818 83.659902 
L 132.270545 83.659902 
z
" clip-path="url(#p21dd99f830)" style="fill: #1f77b4"/>
   </g>
   <g id="patch_40">
    <path d="M 133.893818 55048.946717 
L 135.517091 55048.946717 
L 135.517091 55048.946717 
L 133.893818 55048.946717 
z
" clip-path="url(#p21dd99f830)" style="fill: #1f77b4"/>
   </g>
   <g id="patch_41">
    <path d="M 135.517091 55048.946717 
L 137.140364 55048.946717 
L 137.140364 125.637814 
L 135.517091 125.637814 
z
" clip-path="url(#p21dd99f830)" style="fill: #1f77b4"/>
   </g>
   <g id="patch_42">
    <path d="M 137.140364 55048.946717 
L 138.763636 55048.946717 
L 138.763636 55048.946717 
L 137.140364 55048.946717 
z
" clip-path="url(#p21dd99f830)" style="fill: #1f77b4"/>
   </g>
   <g id="patch_43">
    <path d="M 138.763636 55048.946717 
L 140.386909 55048.946717 
L 140.386909 95.256782 
L 138.763636 95.256782 
z
" clip-path="url(#p21dd99f830)" style="fill: #1f77b4"/>
   </g>
   <g id="patch_44">
    <path d="M 140.386909 55048.946717 
L 142.010182 55048.946717 
L 142.010182 137.014185 
L 140.386909 137.014185 
z
" clip-path="url(#p21dd99f830)" style="fill: #1f77b4"/>
   </g>
   <g id="patch_45">
    <path d="M 142.010182 55048.946717 
L 143.633455 55048.946717 
L 143.633455 55048.946717 
L 142.010182 55048.946717 
z
" clip-path="url(#p21dd99f830)" style="fill: #1f77b4"/>
   </g>
   <g id="patch_46">
    <path d="M 143.633455 55048.946717 
L 145.256727 55048.946717 
L 145.256727 106.473955 
L 143.633455 106.473955 
z
" clip-path="url(#p21dd99f830)" style="fill: #1f77b4"/>
   </g>
   <g id="patch_47">
    <path d="M 145.256727 55048.946717 
L 146.88 55048.946717 
L 146.88 55048.946717 
L 145.256727 55048.946717 
z
" clip-path="url(#p21dd99f830)" style="fill: #1f77b4"/>
   </g>
   <g id="patch_48">
    <path d="M 146.88 55048.946717 
L 148.503273 55048.946717 
L 148.503273 146.595207 
L 146.88 146.595207 
z
" clip-path="url(#p21dd99f830)" style="fill: #1f77b4"/>
   </g>
   <g id="patch_49">
    <path d="M 148.503273 55048.946717 
L 150.126545 55048.946717 
L 150.126545 55048.946717 
L 148.503273 55048.946717 
z
" clip-path="url(#p21dd99f830)" style="fill: #1f77b4"/>
   </g>
   <g id="patch_50">
    <path d="M 150.126545 55048.946717 
L 151.749818 55048.946717 
L 151.749818 117.852607 
L 150.126545 117.852607 
z
" clip-path="url(#p21dd99f830)" style="fill: #1f77b4"/>
   </g>
   <g id="patch_51">
    <path d="M 151.749818 55048.946717 
L 153.373091 55048.946717 
L 153.373091 55048.946717 
L 151.749818 55048.946717 
z
" clip-path="url(#p21dd99f830)" style="fill: #1f77b4"/>
   </g>
   <g id="patch_52">
    <path d="M 153.373091 55048.946717 
L 154.996364 55048.946717 
L 154.996364 157.233063 
L 153.373091 157.233063 
z
" clip-path="url(#p21dd99f830)" style="fill: #1f77b4"/>
   </g>
   <g id="patch_53">
    <path d="M 154.996364 55048.946717 
L 156.619636 55048.946717 
L 156.619636 55048.946717 
L 154.996364 55048.946717 
z
" clip-path="url(#p21dd99f830)" style="fill: #1f77b4"/>
   </g>
   <g id="patch_54">
    <path d="M 156.619636 55048.946717 
L 158.242909 55048.946717 
L 158.242909 132.978874 
L 156.619636 132.978874 
z
" clip-path="url(#p21dd99f830)" style="fill: #1f77b4"/>
   </g>
   <g id="patch_55">
    <path d="M 158.242909 55048.946717 
L 159.866182 55048.946717 
L 159.866182 55048.946717 
L 158.242909 55048.946717 
z
" clip-path="url(#p21dd99f830)" style="fill: #1f77b4"/>
   </g>
   <g id="patch_56">
    <path d="M 159.866182 55048.946717 
L 161.489455 55048.946717 
L 161.489455 162.274516 
L 159.866182 162.274516 
z
" clip-path="url(#p21dd99f830)" style="fill: #1f77b4"/>
   </g>
   <g id="patch_57">
    <path d="M 161.489455 55048.946717 
L 163.112727 55048.946717 
L 163.112727 55048.946717 
L 161.489455 55048.946717 
z
" clip-path="url(#p21dd99f830)" style="fill: #1f77b4"/>
   </g>
   <g id="patch_58">
    <path d="M 163.112727 55048.946717 
L 164.736 55048.946717 
L 164.736 141.839941 
L 163.112727 141.839941 
z
" clip-path="url(#p21dd99f830)" style="fill: #1f77b4"/>
   </g>
   <g id="patch_59">
    <path d="M 164.736 55048.946717 
L 166.359273 55048.946717 
L 166.359273 55048.946717 
L 164.736 55048.946717 
z
" clip-path="url(#p21dd99f830)" style="fill: #1f77b4"/>
   </g>
   <g id="patch_60">
    <path d="M 166.359273 55048.946717 
L 167.982545 55048.946717 
L 167.982545 163.90884 
L 166.359273 163.90884 
z
" clip-path="url(#p21dd99f830)" style="fill: #1f77b4"/>
   </g>
   <g id="patch_61">
    <path d="M 167.982545 55048.946717 
L 169.605818 55048.946717 
L 169.605818 55048.946717 
L 167.982545 55048.946717 
z
" clip-path="url(#p21dd99f830)" style="fill: #1f77b4"/>
   </g>
   <g id="patch_62">
    <path d="M 169.605818 55048.946717 
L 171.229091 55048.946717 
L 171.229091 147.997133 
L 169.605818 147.997133 
z
" clip-path="url(#p21dd99f830)" style="fill: #1f77b4"/>
   </g>
   <g id="patch_63">
    <path d="M 171.229091 55048.946717 
L 172.852364 55048.946717 
L 172.852364 179.560074 
L 171.229091 179.560074 
z
" clip-path="url(#p21dd99f830)" style="fill: #1f77b4"/>
   </g>
   <g id="patch_64">
    <path d="M 172.852364 55048.946717 
L 174.475636 55048.946717 
L 174.475636 55048.946717 
L 172.852364 55048.946717 
z
" clip-path="url(#p21dd99f830)" style="fill: #1f77b4"/>
   </g>
   <g id="patch_65">
    <path d="M 174.475636 55048.946717 
L 176.098909 55048.946717 
L 176.098909 154.361409 
L 174.475636 154.361409 
z
" clip-path="url(#p21dd99f830)" style="fill: #1f77b4"/>
   </g>
   <g id="patch_66">
    <path d="M 176.098909 55048.946717 
L 177.722182 55048.946717 
L 177.722182 55048.946717 
L 176.098909 55048.946717 
z
" clip-path="url(#p21dd99f830)" style="fill: #1f77b4"/>
   </g>
   <g id="patch_67">
    <path d="M 177.722182 55048.946717 
L 179.345455 55048.946717 
L 179.345455 178.669365 
L 177.722182 178.669365 
z
" clip-path="url(#p21dd99f830)" style="fill: #1f77b4"/>
   </g>
   <g id="patch_68">
    <path d="M 179.345455 55048.946717 
L 180.968727 55048.946717 
L 180.968727 55048.946717 
L 179.345455 55048.946717 
z
" clip-path="url(#p21dd99f830)" style="fill: #1f77b4"/>
   </g>
   <g id="patch_69">
    <path d="M 180.968727 55048.946717 
L 182.592 55048.946717 
L 182.592 160.581337 
L 180.968727 160.581337 
z
" clip-path="url(#p21dd99f830)" style="fill: #1f77b4"/>
   </g>
   <g id="patch_70">
    <path d="M 182.592 55048.946717 
L 184.215273 55048.946717 
L 184.215273 55048.946717 
L 182.592 55048.946717 
z
" clip-path="url(#p21dd99f830)" style="fill: #1f77b4"/>
   </g>
   <g id="patch_71">
    <path d="M 184.215273 55048.946717 
L 185.838545 55048.946717 
L 185.838545 192.196108 
L 184.215273 192.196108 
z
" clip-path="url(#p21dd99f830)" style="fill: #1f77b4"/>
   </g>
   <g id="patch_72">
    <path d="M 185.838545 55048.946717 
L 187.461818 55048.946717 
L 187.461818 55048.946717 
L 185.838545 55048.946717 
z
" clip-path="url(#p21dd99f830)" style="fill: #1f77b4"/>
   </g>
   <g id="patch_73">
    <path d="M 187.461818 55048.946717 
L 189.085091 55048.946717 
L 189.085091 168.451966 
L 187.461818 168.451966 
z
" clip-path="url(#p21dd99f830)" style="fill: #1f77b4"/>
   </g>
   <g id="patch_74">
    <path d="M 189.085091 55048.946717 
L 190.708364 55048.946717 
L 190.708364 55048.946717 
L 189.085091 55048.946717 
z
" clip-path="url(#p21dd99f830)" style="fill: #1f77b4"/>
   </g>
   <g id="patch_75">
    <path d="M 190.708364 55048.946717 
L 192.331636 55048.946717 
L 192.331636 199.768659 
L 190.708364 199.768659 
z
" clip-path="url(#p21dd99f830)" style="fill: #1f77b4"/>
   </g>
   <g id="patch_76">
    <path d="M 192.331636 55048.946717 
L 193.954909 55048.946717 
L 193.954909 55048.946717 
L 192.331636 55048.946717 
z
" clip-path="url(#p21dd99f830)" style="fill: #1f77b4"/>
   </g>
   <g id="patch_77">
    <path d="M 193.954909 55048.946717 
L 195.578182 55048.946717 
L 195.578182 169.737637 
L 193.954909 169.737637 
z
" clip-path="url(#p21dd99f830)" style="fill: #1f77b4"/>
   </g>
   <g id="patch_78">
    <path d="M 195.578182 55048.946717 
L 197.201455 55048.946717 
L 197.201455 55048.946717 
L 195.578182 55048.946717 
z
" clip-path="url(#p21dd99f830)" style="fill: #1f77b4"/>
   </g>
   <g id="patch_79">
    <path d="M 197.201455 55048.946717 
L 198.824727 55048.946717 
L 198.824727 204.968897 
L 197.201455 204.968897 
z
" clip-path="url(#p21dd99f830)" style="fill: #1f77b4"/>
   </g>
   <g id="patch_80">
    <path d="M 198.824727 55048.946717 
L 200.448 55048.946717 
L 200.448 55048.946717 
L 198.824727 55048.946717 
z
" clip-path="url(#p21dd99f830)" style="fill: #1f77b4"/>
   </g>
   <g id="patch_81">
    <path d="M 200.448 55048.946717 
L 202.071273 55048.946717 
L 202.071273 177.310188 
L 200.448 177.310188 
z
" clip-path="url(#p21dd99f830)" style="fill: #1f77b4"/>
   </g>
   <g id="patch_82">
    <path d="M 202.071273 55048.946717 
L 203.694545 55048.946717 
L 203.694545 55048.946717 
L 202.071273 55048.946717 
z
" clip-path="url(#p21dd99f830)" style="fill: #1f77b4"/>
   </g>
   <g id="patch_83">
    <path d="M 203.694545 55048.946717 
L 205.317818 55048.946717 
L 205.317818 238.468149 
L 203.694545 238.468149 
z
" clip-path="url(#p21dd99f830)" style="fill: #1f77b4"/>
   </g>
   <g id="patch_84">
    <path d="M 205.317818 55048.946717 
L 206.941091 55048.946717 
L 206.941091 183.71469 
L 205.317818 183.71469 
z
" clip-path="url(#p21dd99f830)" style="fill: #1f77b4"/>
   </g>
   <g id="patch_85">
    <path d="M 206.941091 55048.946717 
L 208.564364 55048.946717 
L 208.564364 55048.946717 
L 206.941091 55048.946717 
z
" clip-path="url(#p21dd99f830)" style="fill: #1f77b4"/>
   </g>
   <g id="patch_86">
    <path d="M 208.564364 55048.946717 
L 210.187636 55048.946717 
L 210.187636 216.251092 
L 208.564364 216.251092 
z
" clip-path="url(#p21dd99f830)" style="fill: #1f77b4"/>
   </g>
   <g id="patch_87">
    <path d="M 210.187636 55048.946717 
L 211.810909 55048.946717 
L 211.810909 55048.946717 
L 210.187636 55048.946717 
z
" clip-path="url(#p21dd99f830)" style="fill: #1f77b4"/>
   </g>
   <g id="patch_88">
    <path d="M 211.810909 55048.946717 
L 213.434182 55048.946717 
L 213.434182 192.506951 
L 211.810909 192.506951 
z
" clip-path="url(#p21dd99f830)" style="fill: #1f77b4"/>
   </g>
   <g id="patch_89">
    <path d="M 213.434182 55048.946717 
L 215.057455 55048.946717 
L 215.057455 55048.946717 
L 213.434182 55048.946717 
z
" clip-path="url(#p21dd99f830)" style="fill: #1f77b4"/>
   </g>
   <g id="patch_90">
    <path d="M 215.057455 55048.946717 
L 216.680727 55048.946717 
L 216.680727 218.945949 
L 215.057455 218.945949 
z
" clip-path="url(#p21dd99f830)" style="fill: #1f77b4"/>
   </g>
   <g id="patch_91">
    <path d="M 216.680727 55048.946717 
L 218.304 55048.946717 
L 218.304 55048.946717 
L 216.680727 55048.946717 
z
" clip-path="url(#p21dd99f830)" style="fill: #1f77b4"/>
   </g>
   <g id="patch_92">
    <path d="M 218.304 55048.946717 
L 219.927273 55048.946717 
L 219.927273 197.735017 
L 218.304 197.735017 
z
" clip-path="url(#p21dd99f830)" style="fill: #1f77b4"/>
   </g>
   <g id="patch_93">
    <path d="M 219.927273 55048.946717 
L 221.550545 55048.946717 
L 221.550545 55048.946717 
L 219.927273 55048.946717 
z
" clip-path="url(#p21dd99f830)" style="fill: #1f77b4"/>
   </g>
   <g id="patch_94">
    <path d="M 221.550545 55048.946717 
L 223.173818 55048.946717 
L 223.173818 226.757489 
L 221.550545 226.757489 
z
" clip-path="url(#p21dd99f830)" style="fill: #1f77b4"/>
   </g>
   <g id="patch_95">
    <path d="M 223.173818 55048.946717 
L 224.797091 55048.946717 
L 224.797091 55048.946717 
L 223.173818 55048.946717 
z
" clip-path="url(#p21dd99f830)" style="fill: #1f77b4"/>
   </g>
   <g id="patch_96">
    <path d="M 224.797091 55048.946717 
L 226.420364 55048.946717 
L 226.420364 209.623532 
L 224.797091 209.623532 
z
" clip-path="url(#p21dd99f830)" style="fill: #1f77b4"/>
   </g>
   <g id="patch_97">
    <path d="M 226.420364 55048.946717 
L 228.043636 55048.946717 
L 228.043636 55048.946717 
L 226.420364 55048.946717 
z
" clip-path="url(#p21dd99f830)" style="fill: #1f77b4"/>
   </g>
   <g id="patch_98">
    <path d="M 228.043636 55048.946717 
L 229.666909 55048.946717 
L 229.666909 236.399094 
L 228.043636 236.399094 
z
" clip-path="url(#p21dd99f830)" style="fill: #1f77b4"/>
   </g>
   <g id="patch_99">
    <path d="M 229.666909 55048.946717 
L 231.290182 55048.946717 
L 231.290182 55048.946717 
L 229.666909 55048.946717 
z
" clip-path="url(#p21dd99f830)" style="fill: #1f77b4"/>
   </g>
   <g id="patch_100">
    <path d="M 231.290182 55048.946717 
L 232.913455 55048.946717 
L 232.913455 211.634232 
L 231.290182 211.634232 
z
" clip-path="url(#p21dd99f830)" style="fill: #1f77b4"/>
   </g>
   <g id="patch_101">
    <path d="M 232.913455 55048.946717 
L 234.536727 55048.946717 
L 234.536727 55048.946717 
L 232.913455 55048.946717 
z
" clip-path="url(#p21dd99f830)" style="fill: #1f77b4"/>
   </g>
   <g id="patch_102">
    <path d="M 234.536727 55048.946717 
L 236.16 55048.946717 
L 236.16 257.216975 
L 234.536727 257.216975 
z
" clip-path="url(#p21dd99f830)" style="fill: #1f77b4"/>
   </g>
   <g id="patch_103">
    <path d="M 236.16 55048.946717 
L 237.783273 55048.946717 
L 237.783273 223.09192 
L 236.16 223.09192 
z
" clip-path="url(#p21dd99f830)" style="fill: #1f77b4"/>
   </g>
   <g id="patch_104">
    <path d="M 237.783273 55048.946717 
L 239.406545 55048.946717 
L 239.406545 55048.946717 
L 237.783273 55048.946717 
z
" clip-path="url(#p21dd99f830)" style="fill: #1f77b4"/>
   </g>
   <g id="patch_105">
    <path d="M 239.406545 55048.946717 
L 241.029818 55048.946717 
L 241.029818 279.005567 
L 239.406545 279.005567 
z
" clip-path="url(#p21dd99f830)" style="fill: #1f77b4"/>
   </g>
   <g id="patch_106">
    <path d="M 241.029818 55048.946717 
L 242.653091 55048.946717 
L 242.653091 55048.946717 
L 241.029818 55048.946717 
z
" clip-path="url(#p21dd99f830)" style="fill: #1f77b4"/>
   </g>
   <g id="patch_107">
    <path d="M 242.653091 55048.946717 
L 244.276364 55048.946717 
L 244.276364 229.558266 
L 242.653091 229.558266 
z
" clip-path="url(#p21dd99f830)" style="fill: #1f77b4"/>
   </g>
   <g id="patch_108">
    <path d="M 244.276364 55048.946717 
L 245.899636 55048.946717 
L 245.899636 55048.946717 
L 244.276364 55048.946717 
z
" clip-path="url(#p21dd99f830)" style="fill: #1f77b4"/>
   </g>
   <g id="patch_109">
    <path d="M 245.899636 55048.946717 
L 247.522909 55048.946717 
L 247.522909 269.363961 
L 245.899636 269.363961 
z
" clip-path="url(#p21dd99f830)" style="fill: #1f77b4"/>
   </g>
   <g id="patch_110">
    <path d="M 247.522909 55048.946717 
L 249.146182 55048.946717 
L 249.146182 55048.946717 
L 247.522909 55048.946717 
z
" clip-path="url(#p21dd99f830)" style="fill: #1f77b4"/>
   </g>
   <g id="patch_111">
    <path d="M 249.146182 55048.946717 
L 250.769455 55048.946717 
L 250.769455 232.733526 
L 249.146182 232.733526 
z
" clip-path="url(#p21dd99f830)" style="fill: #1f77b4"/>
   </g>
   <g id="patch_112">
    <path d="M 250.769455 55048.946717 
L 252.392727 55048.946717 
L 252.392727 55048.946717 
L 250.769455 55048.946717 
z
" clip-path="url(#p21dd99f830)" style="fill: #1f77b4"/>
   </g>
   <g id="patch_113">
    <path d="M 252.392727 55048.946717 
L 254.016 55048.946717 
L 254.016 252.881528 
L 252.392727 252.881528 
z
" clip-path="url(#p21dd99f830)" style="fill: #1f77b4"/>
   </g>
   <g id="patch_114">
    <path d="M 254.016 55048.946717 
L 255.639273 55048.946717 
L 255.639273 55048.946717 
L 254.016 55048.946717 
z
" clip-path="url(#p21dd99f830)" style="fill: #1f77b4"/>
   </g>
   <g id="patch_115">
    <path d="M 255.639273 55048.946717 
L 257.262545 55048.946717 
L 257.262545 246.0407 
L 255.639273 246.0407 
z
" clip-path="url(#p21dd99f830)" style="fill: #1f77b4"/>
   </g>
   <g id="patch_116">
    <path d="M 257.262545 55048.946717 
L 258.885818 55048.946717 
L 258.885818 55048.946717 
L 257.262545 55048.946717 
z
" clip-path="url(#p21dd99f830)" style="fill: #1f77b4"/>
   </g>
   <g id="patch_117">
    <path d="M 258.885818 55048.946717 
L 260.509091 55048.946717 
L 260.509091 262.523133 
L 258.885818 262.523133 
z
" clip-path="url(#p21dd99f830)" style="fill: #1f77b4"/>
   </g>
   <g id="patch_118">
    <path d="M 260.509091 55048.946717 
L 262.132364 55048.946717 
L 262.132364 55048.946717 
L 260.509091 55048.946717 
z
" clip-path="url(#p21dd99f830)" style="fill: #1f77b4"/>
   </g>
   <g id="patch_119">
    <path d="M 262.132364 55048.946717 
L 263.755636 55048.946717 
L 263.755636 240.734541 
L 262.132364 240.734541 
z
" clip-path="url(#p21dd99f830)" style="fill: #1f77b4"/>
   </g>
   <g id="patch_120">
    <path d="M 263.755636 55048.946717 
L 265.378909 55048.946717 
L 265.378909 55048.946717 
L 263.755636 55048.946717 
z
" clip-path="url(#p21dd99f830)" style="fill: #1f77b4"/>
   </g>
   <g id="patch_121">
    <path d="M 265.378909 55048.946717 
L 267.002182 55048.946717 
L 267.002182 249.215959 
L 265.378909 249.215959 
z
" clip-path="url(#p21dd99f830)" style="fill: #1f77b4"/>
   </g>
   <g id="patch_122">
    <path d="M 267.002182 55048.946717 
L 268.625455 55048.946717 
L 268.625455 55048.946717 
L 267.002182 55048.946717 
z
" clip-path="url(#p21dd99f830)" style="fill: #1f77b4"/>
   </g>
   <g id="patch_123">
    <path d="M 268.625455 55048.946717 
L 270.248727 55048.946717 
L 270.248727 243.239922 
L 268.625455 243.239922 
z
" clip-path="url(#p21dd99f830)" style="fill: #1f77b4"/>
   </g>
   <g id="patch_124">
    <path d="M 270.248727 55048.946717 
L 271.872 55048.946717 
L 271.872 279.005567 
L 270.248727 279.005567 
z
" clip-path="url(#p21dd99f830)" style="fill: #1f77b4"/>
   </g>
   <g id="patch_125">
    <path d="M 271.872 55048.946717 
L 273.495273 55048.946717 
L 273.495273 55048.946717 
L 271.872 55048.946717 
z
" clip-path="url(#p21dd99f830)" style="fill: #1f77b4"/>
   </g>
   <g id="patch_126">
    <path d="M 273.495273 55048.946717 
L 275.118545 55048.946717 
L 275.118545 269.363961 
L 273.495273 269.363961 
z
" clip-path="url(#p21dd99f830)" style="fill: #1f77b4"/>
   </g>
   <g id="patch_127">
    <path d="M 275.118545 55048.946717 
L 276.741818 55048.946717 
L 276.741818 55048.946717 
L 275.118545 55048.946717 
z
" clip-path="url(#p21dd99f830)" style="fill: #1f77b4"/>
   </g>
   <g id="patch_128">
    <path d="M 276.741818 55048.946717 
L 278.365091 55048.946717 
L 278.365091 262.523133 
L 276.741818 262.523133 
z
" clip-path="url(#p21dd99f830)" style="fill: #1f77b4"/>
   </g>
   <g id="patch_129">
    <path d="M 278.365091 55048.946717 
L 279.988364 55048.946717 
L 279.988364 55048.946717 
L 278.365091 55048.946717 
z
" clip-path="url(#p21dd99f830)" style="fill: #1f77b4"/>
   </g>
   <g id="patch_130">
    <path d="M 279.988364 55048.946717 
L 281.611636 55048.946717 
L 281.611636 243.239922 
L 279.988364 243.239922 
z
" clip-path="url(#p21dd99f830)" style="fill: #1f77b4"/>
   </g>
   <g id="patch_131">
    <path d="M 281.611636 55048.946717 
L 283.234909 55048.946717 
L 283.234909 55048.946717 
L 281.611636 55048.946717 
z
" clip-path="url(#p21dd99f830)" style="fill: #1f77b4"/>
   </g>
   <g id="patch_132">
    <path d="M 283.234909 55048.946717 
L 284.858182 55048.946717 
L 284.858182 295.488 
L 283.234909 295.488 
z
" clip-path="url(#p21dd99f830)" style="fill: #1f77b4"/>
   </g>
   <g id="patch_133">
    <path d="M 284.858182 55048.946717 
L 286.481455 55048.946717 
L 286.481455 55048.946717 
L 284.858182 55048.946717 
z
" clip-path="url(#p21dd99f830)" style="fill: #1f77b4"/>
   </g>
   <g id="patch_134">
    <path d="M 286.481455 55048.946717 
L 288.104727 55048.946717 
L 288.104727 279.005567 
L 286.481455 279.005567 
z
" clip-path="url(#p21dd99f830)" style="fill: #1f77b4"/>
   </g>
   <g id="patch_135">
    <path d="M 288.104727 55048.946717 
L 289.728 55048.946717 
L 289.728 55048.946717 
L 288.104727 55048.946717 
z
" clip-path="url(#p21dd99f830)" style="fill: #1f77b4"/>
   </g>
   <g id="patch_136">
    <path d="M 289.728 55048.946717 
L 291.351273 55048.946717 
L 291.351273 295.488 
L 289.728 295.488 
z
" clip-path="url(#p21dd99f830)" style="fill: #1f77b4"/>
   </g>
   <g id="patch_137">
    <path d="M 291.351273 55048.946717 
L 292.974545 55048.946717 
L 292.974545 55048.946717 
L 291.351273 55048.946717 
z
" clip-path="url(#p21dd99f830)" style="fill: #1f77b4"/>
   </g>
   <g id="patch_138">
    <path d="M 292.974545 55048.946717 
L 294.597818 55048.946717 
L 294.597818 269.363961 
L 292.974545 269.363961 
z
" clip-path="url(#p21dd99f830)" style="fill: #1f77b4"/>
   </g>
   <g id="patch_139">
    <path d="M 294.597818 55048.946717 
L 296.221091 55048.946717 
L 296.221091 55048.946717 
L 294.597818 55048.946717 
z
" clip-path="url(#p21dd99f830)" style="fill: #1f77b4"/>
   </g>
   <g id="patch_140">
    <path d="M 296.221091 55048.946717 
L 297.844364 55048.946717 
L 297.844364 55048.946717 
L 296.221091 55048.946717 
z
" clip-path="url(#p21dd99f830)" style="fill: #1f77b4"/>
   </g>
   <g id="patch_141">
    <path d="M 297.844364 55048.946717 
L 299.467636 55048.946717 
L 299.467636 55048.946717 
L 297.844364 55048.946717 
z
" clip-path="url(#p21dd99f830)" style="fill: #1f77b4"/>
   </g>
   <g id="patch_142">
    <path d="M 299.467636 55048.946717 
L 301.090909 55048.946717 
L 301.090909 295.488 
L 299.467636 295.488 
z
" clip-path="url(#p21dd99f830)" style="fill: #1f77b4"/>
   </g>
   <g id="patch_143">
    <path d="M 301.090909 55048.946717 
L 302.714182 55048.946717 
L 302.714182 295.488 
L 301.090909 295.488 
z
" clip-path="url(#p21dd99f830)" style="fill: #1f77b4"/>
   </g>
   <g id="patch_144">
    <path d="M 302.714182 55048.946717 
L 304.337455 55048.946717 
L 304.337455 55048.946717 
L 302.714182 55048.946717 
z
" clip-path="url(#p21dd99f830)" style="fill: #1f77b4"/>
   </g>
   <g id="patch_145">
    <path d="M 304.337455 55048.946717 
L 305.960727 55048.946717 
L 305.960727 55048.946717 
L 304.337455 55048.946717 
z
" clip-path="url(#p21dd99f830)" style="fill: #1f77b4"/>
   </g>
   <g id="patch_146">
    <path d="M 305.960727 55048.946717 
L 307.584 55048.946717 
L 307.584 55048.946717 
L 305.960727 55048.946717 
z
" clip-path="url(#p21dd99f830)" style="fill: #1f77b4"/>
   </g>
   <g id="patch_147">
    <path d="M 307.584 55048.946717 
L 309.207273 55048.946717 
L 309.207273 55048.946717 
L 307.584 55048.946717 
z
" clip-path="url(#p21dd99f830)" style="fill: #1f77b4"/>
   </g>
   <g id="patch_148">
    <path d="M 309.207273 55048.946717 
L 310.830545 55048.946717 
L 310.830545 55048.946717 
L 309.207273 55048.946717 
z
" clip-path="url(#p21dd99f830)" style="fill: #1f77b4"/>
   </g>
   <g id="patch_149">
    <path d="M 310.830545 55048.946717 
L 312.453818 55048.946717 
L 312.453818 295.488 
L 310.830545 295.488 
z
" clip-path="url(#p21dd99f830)" style="fill: #1f77b4"/>
   </g>
   <g id="patch_150">
    <path d="M 312.453818 55048.946717 
L 314.077091 55048.946717 
L 314.077091 55048.946717 
L 312.453818 55048.946717 
z
" clip-path="url(#p21dd99f830)" style="fill: #1f77b4"/>
   </g>
   <g id="patch_151">
    <path d="M 314.077091 55048.946717 
L 315.700364 55048.946717 
L 315.700364 279.005567 
L 314.077091 279.005567 
z
" clip-path="url(#p21dd99f830)" style="fill: #1f77b4"/>
   </g>
   <g id="patch_152">
    <path d="M 315.700364 55048.946717 
L 317.323636 55048.946717 
L 317.323636 55048.946717 
L 315.700364 55048.946717 
z
" clip-path="url(#p21dd99f830)" style="fill: #1f77b4"/>
   </g>
   <g id="patch_153">
    <path d="M 317.323636 55048.946717 
L 318.946909 55048.946717 
L 318.946909 295.488 
L 317.323636 295.488 
z
" clip-path="url(#p21dd99f830)" style="fill: #1f77b4"/>
   </g>
   <g id="patch_154">
    <path d="M 318.946909 55048.946717 
L 320.570182 55048.946717 
L 320.570182 55048.946717 
L 318.946909 55048.946717 
z
" clip-path="url(#p21dd99f830)" style="fill: #1f77b4"/>
   </g>
   <g id="patch_155">
    <path d="M 320.570182 55048.946717 
L 322.193455 55048.946717 
L 322.193455 55048.946717 
L 320.570182 55048.946717 
z
" clip-path="url(#p21dd99f830)" style="fill: #1f77b4"/>
   </g>
   <g id="patch_156">
    <path d="M 322.193455 55048.946717 
L 323.816727 55048.946717 
L 323.816727 55048.946717 
L 322.193455 55048.946717 
z
" clip-path="url(#p21dd99f830)" style="fill: #1f77b4"/>
   </g>
   <g id="patch_157">
    <path d="M 323.816727 55048.946717 
L 325.44 55048.946717 
L 325.44 295.488 
L 323.816727 295.488 
z
" clip-path="url(#p21dd99f830)" style="fill: #1f77b4"/>
   </g>
   <g id="patch_158">
    <path d="M 325.44 55048.946717 
L 327.063273 55048.946717 
L 327.063273 55048.946717 
L 325.44 55048.946717 
z
" clip-path="url(#p21dd99f830)" style="fill: #1f77b4"/>
   </g>
   <g id="patch_159">
    <path d="M 327.063273 55048.946717 
L 328.686545 55048.946717 
L 328.686545 295.488 
L 327.063273 295.488 
z
" clip-path="url(#p21dd99f830)" style="fill: #1f77b4"/>
   </g>
   <g id="patch_160">
    <path d="M 328.686545 55048.946717 
L 330.309818 55048.946717 
L 330.309818 55048.946717 
L 328.686545 55048.946717 
z
" clip-path="url(#p21dd99f830)" style="fill: #1f77b4"/>
   </g>
   <g id="patch_161">
    <path d="M 330.309818 55048.946717 
L 331.933091 55048.946717 
L 331.933091 295.488 
L 330.309818 295.488 
z
" clip-path="url(#p21dd99f830)" style="fill: #1f77b4"/>
   </g>
   <g id="patch_162">
    <path d="M 331.933091 55048.946717 
L 333.556364 55048.946717 
L 333.556364 55048.946717 
L 331.933091 55048.946717 
z
" clip-path="url(#p21dd99f830)" style="fill: #1f77b4"/>
   </g>
   <g id="patch_163">
    <path d="M 333.556364 55048.946717 
L 335.179636 55048.946717 
L 335.179636 55048.946717 
L 333.556364 55048.946717 
z
" clip-path="url(#p21dd99f830)" style="fill: #1f77b4"/>
   </g>
   <g id="patch_164">
    <path d="M 335.179636 55048.946717 
L 336.802909 55048.946717 
L 336.802909 55048.946717 
L 335.179636 55048.946717 
z
" clip-path="url(#p21dd99f830)" style="fill: #1f77b4"/>
   </g>
   <g id="patch_165">
    <path d="M 336.802909 55048.946717 
L 338.426182 55048.946717 
L 338.426182 55048.946717 
L 336.802909 55048.946717 
z
" clip-path="url(#p21dd99f830)" style="fill: #1f77b4"/>
   </g>
   <g id="patch_166">
    <path d="M 338.426182 55048.946717 
L 340.049455 55048.946717 
L 340.049455 55048.946717 
L 338.426182 55048.946717 
z
" clip-path="url(#p21dd99f830)" style="fill: #1f77b4"/>
   </g>
   <g id="patch_167">
    <path d="M 340.049455 55048.946717 
L 341.672727 55048.946717 
L 341.672727 55048.946717 
L 340.049455 55048.946717 
z
" clip-path="url(#p21dd99f830)" style="fill: #1f77b4"/>
   </g>
   <g id="patch_168">
    <path d="M 341.672727 55048.946717 
L 343.296 55048.946717 
L 343.296 55048.946717 
L 341.672727 55048.946717 
z
" clip-path="url(#p21dd99f830)" style="fill: #1f77b4"/>
   </g>
   <g id="patch_169">
    <path d="M 343.296 55048.946717 
L 344.919273 55048.946717 
L 344.919273 55048.946717 
L 343.296 55048.946717 
z
" clip-path="url(#p21dd99f830)" style="fill: #1f77b4"/>
   </g>
   <g id="patch_170">
    <path d="M 344.919273 55048.946717 
L 346.542545 55048.946717 
L 346.542545 55048.946717 
L 344.919273 55048.946717 
z
" clip-path="url(#p21dd99f830)" style="fill: #1f77b4"/>
   </g>
   <g id="patch_171">
    <path d="M 346.542545 55048.946717 
L 348.165818 55048.946717 
L 348.165818 55048.946717 
L 346.542545 55048.946717 
z
" clip-path="url(#p21dd99f830)" style="fill: #1f77b4"/>
   </g>
   <g id="patch_172">
    <path d="M 348.165818 55048.946717 
L 349.789091 55048.946717 
L 349.789091 55048.946717 
L 348.165818 55048.946717 
z
" clip-path="url(#p21dd99f830)" style="fill: #1f77b4"/>
   </g>
   <g id="patch_173">
    <path d="M 349.789091 55048.946717 
L 351.412364 55048.946717 
L 351.412364 55048.946717 
L 349.789091 55048.946717 
z
" clip-path="url(#p21dd99f830)" style="fill: #1f77b4"/>
   </g>
   <g id="patch_174">
    <path d="M 351.412364 55048.946717 
L 353.035636 55048.946717 
L 353.035636 55048.946717 
L 351.412364 55048.946717 
z
" clip-path="url(#p21dd99f830)" style="fill: #1f77b4"/>
   </g>
   <g id="patch_175">
    <path d="M 353.035636 55048.946717 
L 354.658909 55048.946717 
L 354.658909 55048.946717 
L 353.035636 55048.946717 
z
" clip-path="url(#p21dd99f830)" style="fill: #1f77b4"/>
   </g>
   <g id="patch_176">
    <path d="M 354.658909 55048.946717 
L 356.282182 55048.946717 
L 356.282182 55048.946717 
L 354.658909 55048.946717 
z
" clip-path="url(#p21dd99f830)" style="fill: #1f77b4"/>
   </g>
   <g id="patch_177">
    <path d="M 356.282182 55048.946717 
L 357.905455 55048.946717 
L 357.905455 55048.946717 
L 356.282182 55048.946717 
z
" clip-path="url(#p21dd99f830)" style="fill: #1f77b4"/>
   </g>
   <g id="patch_178">
    <path d="M 357.905455 55048.946717 
L 359.528727 55048.946717 
L 359.528727 55048.946717 
L 357.905455 55048.946717 
z
" clip-path="url(#p21dd99f830)" style="fill: #1f77b4"/>
   </g>
   <g id="patch_179">
    <path d="M 359.528727 55048.946717 
L 361.152 55048.946717 
L 361.152 55048.946717 
L 359.528727 55048.946717 
z
" clip-path="url(#p21dd99f830)" style="fill: #1f77b4"/>
   </g>
   <g id="patch_180">
    <path d="M 361.152 55048.946717 
L 362.775273 55048.946717 
L 362.775273 55048.946717 
L 361.152 55048.946717 
z
" clip-path="url(#p21dd99f830)" style="fill: #1f77b4"/>
   </g>
   <g id="patch_181">
    <path d="M 362.775273 55048.946717 
L 364.398545 55048.946717 
L 364.398545 55048.946717 
L 362.775273 55048.946717 
z
" clip-path="url(#p21dd99f830)" style="fill: #1f77b4"/>
   </g>
   <g id="patch_182">
    <path d="M 364.398545 55048.946717 
L 366.021818 55048.946717 
L 366.021818 295.488 
L 364.398545 295.488 
z
" clip-path="url(#p21dd99f830)" style="fill: #1f77b4"/>
   </g>
   <g id="patch_183">
    <path d="M 366.021818 55048.946717 
L 367.645091 55048.946717 
L 367.645091 55048.946717 
L 366.021818 55048.946717 
z
" clip-path="url(#p21dd99f830)" style="fill: #1f77b4"/>
   </g>
   <g id="patch_184">
    <path d="M 367.645091 55048.946717 
L 369.268364 55048.946717 
L 369.268364 55048.946717 
L 367.645091 55048.946717 
z
" clip-path="url(#p21dd99f830)" style="fill: #1f77b4"/>
   </g>
   <g id="patch_185">
    <path d="M 369.268364 55048.946717 
L 370.891636 55048.946717 
L 370.891636 55048.946717 
L 369.268364 55048.946717 
z
" clip-path="url(#p21dd99f830)" style="fill: #1f77b4"/>
   </g>
   <g id="patch_186">
    <path d="M 370.891636 55048.946717 
L 372.514909 55048.946717 
L 372.514909 55048.946717 
L 370.891636 55048.946717 
z
" clip-path="url(#p21dd99f830)" style="fill: #1f77b4"/>
   </g>
   <g id="patch_187">
    <path d="M 372.514909 55048.946717 
L 374.138182 55048.946717 
L 374.138182 55048.946717 
L 372.514909 55048.946717 
z
" clip-path="url(#p21dd99f830)" style="fill: #1f77b4"/>
   </g>
   <g id="patch_188">
    <path d="M 374.138182 55048.946717 
L 375.761455 55048.946717 
L 375.761455 55048.946717 
L 374.138182 55048.946717 
z
" clip-path="url(#p21dd99f830)" style="fill: #1f77b4"/>
   </g>
   <g id="patch_189">
    <path d="M 375.761455 55048.946717 
L 377.384727 55048.946717 
L 377.384727 55048.946717 
L 375.761455 55048.946717 
z
" clip-path="url(#p21dd99f830)" style="fill: #1f77b4"/>
   </g>
   <g id="patch_190">
    <path d="M 377.384727 55048.946717 
L 379.008 55048.946717 
L 379.008 55048.946717 
L 377.384727 55048.946717 
z
" clip-path="url(#p21dd99f830)" style="fill: #1f77b4"/>
   </g>
   <g id="patch_191">
    <path d="M 379.008 55048.946717 
L 380.631273 55048.946717 
L 380.631273 55048.946717 
L 379.008 55048.946717 
z
" clip-path="url(#p21dd99f830)" style="fill: #1f77b4"/>
   </g>
   <g id="patch_192">
    <path d="M 380.631273 55048.946717 
L 382.254545 55048.946717 
L 382.254545 55048.946717 
L 380.631273 55048.946717 
z
" clip-path="url(#p21dd99f830)" style="fill: #1f77b4"/>
   </g>
   <g id="patch_193">
    <path d="M 382.254545 55048.946717 
L 383.877818 55048.946717 
L 383.877818 55048.946717 
L 382.254545 55048.946717 
z
" clip-path="url(#p21dd99f830)" style="fill: #1f77b4"/>
   </g>
   <g id="patch_194">
    <path d="M 383.877818 55048.946717 
L 385.501091 55048.946717 
L 385.501091 55048.946717 
L 383.877818 55048.946717 
z
" clip-path="url(#p21dd99f830)" style="fill: #1f77b4"/>
   </g>
   <g id="patch_195">
    <path d="M 385.501091 55048.946717 
L 387.124364 55048.946717 
L 387.124364 55048.946717 
L 385.501091 55048.946717 
z
" clip-path="url(#p21dd99f830)" style="fill: #1f77b4"/>
   </g>
   <g id="patch_196">
    <path d="M 387.124364 55048.946717 
L 388.747636 55048.946717 
L 388.747636 55048.946717 
L 387.124364 55048.946717 
z
" clip-path="url(#p21dd99f830)" style="fill: #1f77b4"/>
   </g>
   <g id="patch_197">
    <path d="M 388.747636 55048.946717 
L 390.370909 55048.946717 
L 390.370909 55048.946717 
L 388.747636 55048.946717 
z
" clip-path="url(#p21dd99f830)" style="fill: #1f77b4"/>
   </g>
   <g id="patch_198">
    <path d="M 390.370909 55048.946717 
L 391.994182 55048.946717 
L 391.994182 55048.946717 
L 390.370909 55048.946717 
z
" clip-path="url(#p21dd99f830)" style="fill: #1f77b4"/>
   </g>
   <g id="patch_199">
    <path d="M 391.994182 55048.946717 
L 393.617455 55048.946717 
L 393.617455 55048.946717 
L 391.994182 55048.946717 
z
" clip-path="url(#p21dd99f830)" style="fill: #1f77b4"/>
   </g>
   <g id="patch_200">
    <path d="M 393.617455 55048.946717 
L 395.240727 55048.946717 
L 395.240727 55048.946717 
L 393.617455 55048.946717 
z
" clip-path="url(#p21dd99f830)" style="fill: #1f77b4"/>
   </g>
   <g id="patch_201">
    <path d="M 395.240727 55048.946717 
L 396.864 55048.946717 
L 396.864 55048.946717 
L 395.240727 55048.946717 
z
" clip-path="url(#p21dd99f830)" style="fill: #1f77b4"/>
   </g>
   <g id="patch_202">
    <path d="M 396.864 55048.946717 
L 398.487273 55048.946717 
L 398.487273 295.488 
L 396.864 295.488 
z
" clip-path="url(#p21dd99f830)" style="fill: #1f77b4"/>
   </g>
   <g id="matplotlib.axis_1">
    <g id="xtick_1">
     <g id="line2d_1">
      <defs>
       <path id="m4aa861ad45" d="M 0 0 
L 0 3.5 
" style="stroke: #000000; stroke-width: 0.8"/>
      </defs>
      <g>
       <use xlink:href="#m4aa861ad45" x="70.740779" y="307.584" style="stroke: #000000; stroke-width: 0.8"/>
      </g>
     </g>
     <g id="text_1">
      <!-- 0 -->
      <g transform="translate(67.241404 322.942281)scale(0.11 -0.11)">
       <defs>
        <path id="DejaVuSans-30" d="M 2034 4250 
Q 1547 4250 1301 3770 
Q 1056 3291 1056 2328 
Q 1056 1369 1301 889 
Q 1547 409 2034 409 
Q 2525 409 2770 889 
Q 3016 1369 3016 2328 
Q 3016 3291 2770 3770 
Q 2525 4250 2034 4250 
z
M 2034 4750 
Q 2819 4750 3233 4129 
Q 3647 3509 3647 2328 
Q 3647 1150 3233 529 
Q 2819 -91 2034 -91 
Q 1250 -91 836 529 
Q 422 1150 422 2328 
Q 422 3509 836 4129 
Q 1250 4750 2034 4750 
z
" transform="scale(0.015625)"/>
       </defs>
       <use xlink:href="#DejaVuSans-30"/>
      </g>
     </g>
    </g>
    <g id="xtick_2">
     <g id="line2d_2">
      <g>
       <use xlink:href="#m4aa861ad45" x="132.57974" y="307.584" style="stroke: #000000; stroke-width: 0.8"/>
      </g>
     </g>
     <g id="text_2">
      <!-- 20 -->
      <g transform="translate(125.58099 322.942281)scale(0.11 -0.11)">
       <defs>
        <path id="DejaVuSans-32" d="M 1228 531 
L 3431 531 
L 3431 0 
L 469 0 
L 469 531 
Q 828 903 1448 1529 
Q 2069 2156 2228 2338 
Q 2531 2678 2651 2914 
Q 2772 3150 2772 3378 
Q 2772 3750 2511 3984 
Q 2250 4219 1831 4219 
Q 1534 4219 1204 4116 
Q 875 4013 500 3803 
L 500 4441 
Q 881 4594 1212 4672 
Q 1544 4750 1819 4750 
Q 2544 4750 2975 4387 
Q 3406 4025 3406 3419 
Q 3406 3131 3298 2873 
Q 3191 2616 2906 2266 
Q 2828 2175 2409 1742 
Q 1991 1309 1228 531 
z
" transform="scale(0.015625)"/>
       </defs>
       <use xlink:href="#DejaVuSans-32"/>
       <use xlink:href="#DejaVuSans-30" x="63.623047"/>
      </g>
     </g>
    </g>
    <g id="xtick_3">
     <g id="line2d_3">
      <g>
       <use xlink:href="#m4aa861ad45" x="194.418701" y="307.584" style="stroke: #000000; stroke-width: 0.8"/>
      </g>
     </g>
     <g id="text_3">
      <!-- 40 -->
      <g transform="translate(187.419951 322.942281)scale(0.11 -0.11)">
       <defs>
        <path id="DejaVuSans-34" d="M 2419 4116 
L 825 1625 
L 2419 1625 
L 2419 4116 
z
M 2253 4666 
L 3047 4666 
L 3047 1625 
L 3713 1625 
L 3713 1100 
L 3047 1100 
L 3047 0 
L 2419 0 
L 2419 1100 
L 313 1100 
L 313 1709 
L 2253 4666 
z
" transform="scale(0.015625)"/>
       </defs>
       <use xlink:href="#DejaVuSans-34"/>
       <use xlink:href="#DejaVuSans-30" x="63.623047"/>
      </g>
     </g>
    </g>
    <g id="xtick_4">
     <g id="line2d_4">
      <g>
       <use xlink:href="#m4aa861ad45" x="256.257662" y="307.584" style="stroke: #000000; stroke-width: 0.8"/>
      </g>
     </g>
     <g id="text_4">
      <!-- 60 -->
      <g transform="translate(249.258912 322.942281)scale(0.11 -0.11)">
       <defs>
        <path id="DejaVuSans-36" d="M 2113 2584 
Q 1688 2584 1439 2293 
Q 1191 2003 1191 1497 
Q 1191 994 1439 701 
Q 1688 409 2113 409 
Q 2538 409 2786 701 
Q 3034 994 3034 1497 
Q 3034 2003 2786 2293 
Q 2538 2584 2113 2584 
z
M 3366 4563 
L 3366 3988 
Q 3128 4100 2886 4159 
Q 2644 4219 2406 4219 
Q 1781 4219 1451 3797 
Q 1122 3375 1075 2522 
Q 1259 2794 1537 2939 
Q 1816 3084 2150 3084 
Q 2853 3084 3261 2657 
Q 3669 2231 3669 1497 
Q 3669 778 3244 343 
Q 2819 -91 2113 -91 
Q 1303 -91 875 529 
Q 447 1150 447 2328 
Q 447 3434 972 4092 
Q 1497 4750 2381 4750 
Q 2619 4750 2861 4703 
Q 3103 4656 3366 4563 
z
" transform="scale(0.015625)"/>
       </defs>
       <use xlink:href="#DejaVuSans-36"/>
       <use xlink:href="#DejaVuSans-30" x="63.623047"/>
      </g>
     </g>
    </g>
    <g id="xtick_5">
     <g id="line2d_5">
      <g>
       <use xlink:href="#m4aa861ad45" x="318.096623" y="307.584" style="stroke: #000000; stroke-width: 0.8"/>
      </g>
     </g>
     <g id="text_5">
      <!-- 80 -->
      <g transform="translate(311.097873 322.942281)scale(0.11 -0.11)">
       <defs>
        <path id="DejaVuSans-38" d="M 2034 2216 
Q 1584 2216 1326 1975 
Q 1069 1734 1069 1313 
Q 1069 891 1326 650 
Q 1584 409 2034 409 
Q 2484 409 2743 651 
Q 3003 894 3003 1313 
Q 3003 1734 2745 1975 
Q 2488 2216 2034 2216 
z
M 1403 2484 
Q 997 2584 770 2862 
Q 544 3141 544 3541 
Q 544 4100 942 4425 
Q 1341 4750 2034 4750 
Q 2731 4750 3128 4425 
Q 3525 4100 3525 3541 
Q 3525 3141 3298 2862 
Q 3072 2584 2669 2484 
Q 3125 2378 3379 2068 
Q 3634 1759 3634 1313 
Q 3634 634 3220 271 
Q 2806 -91 2034 -91 
Q 1263 -91 848 271 
Q 434 634 434 1313 
Q 434 1759 690 2068 
Q 947 2378 1403 2484 
z
M 1172 3481 
Q 1172 3119 1398 2916 
Q 1625 2713 2034 2713 
Q 2441 2713 2670 2916 
Q 2900 3119 2900 3481 
Q 2900 3844 2670 4047 
Q 2441 4250 2034 4250 
Q 1625 4250 1398 4047 
Q 1172 3844 1172 3481 
z
" transform="scale(0.015625)"/>
       </defs>
       <use xlink:href="#DejaVuSans-38"/>
       <use xlink:href="#DejaVuSans-30" x="63.623047"/>
      </g>
     </g>
    </g>
    <g id="xtick_6">
     <g id="line2d_6">
      <g>
       <use xlink:href="#m4aa861ad45" x="379.935584" y="307.584" style="stroke: #000000; stroke-width: 0.8"/>
      </g>
     </g>
     <g id="text_6">
      <!-- 100 -->
      <g transform="translate(369.437459 322.942281)scale(0.11 -0.11)">
       <defs>
        <path id="DejaVuSans-31" d="M 794 531 
L 1825 531 
L 1825 4091 
L 703 3866 
L 703 4441 
L 1819 4666 
L 2450 4666 
L 2450 531 
L 3481 531 
L 3481 0 
L 794 0 
L 794 531 
z
" transform="scale(0.015625)"/>
       </defs>
       <use xlink:href="#DejaVuSans-31"/>
       <use xlink:href="#DejaVuSans-30" x="63.623047"/>
       <use xlink:href="#DejaVuSans-30" x="127.246094"/>
      </g>
     </g>
    </g>
    <g id="text_7">
     <!-- object instance bounding box width -->
     <g transform="translate(137.994453 337.588219)scale(0.11 -0.11)">
      <defs>
       <path id="DejaVuSans-6f" d="M 1959 3097 
Q 1497 3097 1228 2736 
Q 959 2375 959 1747 
Q 959 1119 1226 758 
Q 1494 397 1959 397 
Q 2419 397 2687 759 
Q 2956 1122 2956 1747 
Q 2956 2369 2687 2733 
Q 2419 3097 1959 3097 
z
M 1959 3584 
Q 2709 3584 3137 3096 
Q 3566 2609 3566 1747 
Q 3566 888 3137 398 
Q 2709 -91 1959 -91 
Q 1206 -91 779 398 
Q 353 888 353 1747 
Q 353 2609 779 3096 
Q 1206 3584 1959 3584 
z
" transform="scale(0.015625)"/>
       <path id="DejaVuSans-62" d="M 3116 1747 
Q 3116 2381 2855 2742 
Q 2594 3103 2138 3103 
Q 1681 3103 1420 2742 
Q 1159 2381 1159 1747 
Q 1159 1113 1420 752 
Q 1681 391 2138 391 
Q 2594 391 2855 752 
Q 3116 1113 3116 1747 
z
M 1159 2969 
Q 1341 3281 1617 3432 
Q 1894 3584 2278 3584 
Q 2916 3584 3314 3078 
Q 3713 2572 3713 1747 
Q 3713 922 3314 415 
Q 2916 -91 2278 -91 
Q 1894 -91 1617 61 
Q 1341 213 1159 525 
L 1159 0 
L 581 0 
L 581 4863 
L 1159 4863 
L 1159 2969 
z
" transform="scale(0.015625)"/>
       <path id="DejaVuSans-6a" d="M 603 3500 
L 1178 3500 
L 1178 -63 
Q 1178 -731 923 -1031 
Q 669 -1331 103 -1331 
L -116 -1331 
L -116 -844 
L 38 -844 
Q 366 -844 484 -692 
Q 603 -541 603 -63 
L 603 3500 
z
M 603 4863 
L 1178 4863 
L 1178 4134 
L 603 4134 
L 603 4863 
z
" transform="scale(0.015625)"/>
       <path id="DejaVuSans-65" d="M 3597 1894 
L 3597 1613 
L 953 1613 
Q 991 1019 1311 708 
Q 1631 397 2203 397 
Q 2534 397 2845 478 
Q 3156 559 3463 722 
L 3463 178 
Q 3153 47 2828 -22 
Q 2503 -91 2169 -91 
Q 1331 -91 842 396 
Q 353 884 353 1716 
Q 353 2575 817 3079 
Q 1281 3584 2069 3584 
Q 2775 3584 3186 3129 
Q 3597 2675 3597 1894 
z
M 3022 2063 
Q 3016 2534 2758 2815 
Q 2500 3097 2075 3097 
Q 1594 3097 1305 2825 
Q 1016 2553 972 2059 
L 3022 2063 
z
" transform="scale(0.015625)"/>
       <path id="DejaVuSans-63" d="M 3122 3366 
L 3122 2828 
Q 2878 2963 2633 3030 
Q 2388 3097 2138 3097 
Q 1578 3097 1268 2742 
Q 959 2388 959 1747 
Q 959 1106 1268 751 
Q 1578 397 2138 397 
Q 2388 397 2633 464 
Q 2878 531 3122 666 
L 3122 134 
Q 2881 22 2623 -34 
Q 2366 -91 2075 -91 
Q 1284 -91 818 406 
Q 353 903 353 1747 
Q 353 2603 823 3093 
Q 1294 3584 2113 3584 
Q 2378 3584 2631 3529 
Q 2884 3475 3122 3366 
z
" transform="scale(0.015625)"/>
       <path id="DejaVuSans-74" d="M 1172 4494 
L 1172 3500 
L 2356 3500 
L 2356 3053 
L 1172 3053 
L 1172 1153 
Q 1172 725 1289 603 
Q 1406 481 1766 481 
L 2356 481 
L 2356 0 
L 1766 0 
Q 1100 0 847 248 
Q 594 497 594 1153 
L 594 3053 
L 172 3053 
L 172 3500 
L 594 3500 
L 594 4494 
L 1172 4494 
z
" transform="scale(0.015625)"/>
       <path id="DejaVuSans-20" transform="scale(0.015625)"/>
       <path id="DejaVuSans-69" d="M 603 3500 
L 1178 3500 
L 1178 0 
L 603 0 
L 603 3500 
z
M 603 4863 
L 1178 4863 
L 1178 4134 
L 603 4134 
L 603 4863 
z
" transform="scale(0.015625)"/>
       <path id="DejaVuSans-6e" d="M 3513 2113 
L 3513 0 
L 2938 0 
L 2938 2094 
Q 2938 2591 2744 2837 
Q 2550 3084 2163 3084 
Q 1697 3084 1428 2787 
Q 1159 2491 1159 1978 
L 1159 0 
L 581 0 
L 581 3500 
L 1159 3500 
L 1159 2956 
Q 1366 3272 1645 3428 
Q 1925 3584 2291 3584 
Q 2894 3584 3203 3211 
Q 3513 2838 3513 2113 
z
" transform="scale(0.015625)"/>
       <path id="DejaVuSans-73" d="M 2834 3397 
L 2834 2853 
Q 2591 2978 2328 3040 
Q 2066 3103 1784 3103 
Q 1356 3103 1142 2972 
Q 928 2841 928 2578 
Q 928 2378 1081 2264 
Q 1234 2150 1697 2047 
L 1894 2003 
Q 2506 1872 2764 1633 
Q 3022 1394 3022 966 
Q 3022 478 2636 193 
Q 2250 -91 1575 -91 
Q 1294 -91 989 -36 
Q 684 19 347 128 
L 347 722 
Q 666 556 975 473 
Q 1284 391 1588 391 
Q 1994 391 2212 530 
Q 2431 669 2431 922 
Q 2431 1156 2273 1281 
Q 2116 1406 1581 1522 
L 1381 1569 
Q 847 1681 609 1914 
Q 372 2147 372 2553 
Q 372 3047 722 3315 
Q 1072 3584 1716 3584 
Q 2034 3584 2315 3537 
Q 2597 3491 2834 3397 
z
" transform="scale(0.015625)"/>
       <path id="DejaVuSans-61" d="M 2194 1759 
Q 1497 1759 1228 1600 
Q 959 1441 959 1056 
Q 959 750 1161 570 
Q 1363 391 1709 391 
Q 2188 391 2477 730 
Q 2766 1069 2766 1631 
L 2766 1759 
L 2194 1759 
z
M 3341 1997 
L 3341 0 
L 2766 0 
L 2766 531 
Q 2569 213 2275 61 
Q 1981 -91 1556 -91 
Q 1019 -91 701 211 
Q 384 513 384 1019 
Q 384 1609 779 1909 
Q 1175 2209 1959 2209 
L 2766 2209 
L 2766 2266 
Q 2766 2663 2505 2880 
Q 2244 3097 1772 3097 
Q 1472 3097 1187 3025 
Q 903 2953 641 2809 
L 641 3341 
Q 956 3463 1253 3523 
Q 1550 3584 1831 3584 
Q 2591 3584 2966 3190 
Q 3341 2797 3341 1997 
z
" transform="scale(0.015625)"/>
       <path id="DejaVuSans-75" d="M 544 1381 
L 544 3500 
L 1119 3500 
L 1119 1403 
Q 1119 906 1312 657 
Q 1506 409 1894 409 
Q 2359 409 2629 706 
Q 2900 1003 2900 1516 
L 2900 3500 
L 3475 3500 
L 3475 0 
L 2900 0 
L 2900 538 
Q 2691 219 2414 64 
Q 2138 -91 1772 -91 
Q 1169 -91 856 284 
Q 544 659 544 1381 
z
M 1991 3584 
L 1991 3584 
z
" transform="scale(0.015625)"/>
       <path id="DejaVuSans-64" d="M 2906 2969 
L 2906 4863 
L 3481 4863 
L 3481 0 
L 2906 0 
L 2906 525 
Q 2725 213 2448 61 
Q 2172 -91 1784 -91 
Q 1150 -91 751 415 
Q 353 922 353 1747 
Q 353 2572 751 3078 
Q 1150 3584 1784 3584 
Q 2172 3584 2448 3432 
Q 2725 3281 2906 2969 
z
M 947 1747 
Q 947 1113 1208 752 
Q 1469 391 1925 391 
Q 2381 391 2643 752 
Q 2906 1113 2906 1747 
Q 2906 2381 2643 2742 
Q 2381 3103 1925 3103 
Q 1469 3103 1208 2742 
Q 947 2381 947 1747 
z
" transform="scale(0.015625)"/>
       <path id="DejaVuSans-67" d="M 2906 1791 
Q 2906 2416 2648 2759 
Q 2391 3103 1925 3103 
Q 1463 3103 1205 2759 
Q 947 2416 947 1791 
Q 947 1169 1205 825 
Q 1463 481 1925 481 
Q 2391 481 2648 825 
Q 2906 1169 2906 1791 
z
M 3481 434 
Q 3481 -459 3084 -895 
Q 2688 -1331 1869 -1331 
Q 1566 -1331 1297 -1286 
Q 1028 -1241 775 -1147 
L 775 -588 
Q 1028 -725 1275 -790 
Q 1522 -856 1778 -856 
Q 2344 -856 2625 -561 
Q 2906 -266 2906 331 
L 2906 616 
Q 2728 306 2450 153 
Q 2172 0 1784 0 
Q 1141 0 747 490 
Q 353 981 353 1791 
Q 353 2603 747 3093 
Q 1141 3584 1784 3584 
Q 2172 3584 2450 3431 
Q 2728 3278 2906 2969 
L 2906 3500 
L 3481 3500 
L 3481 434 
z
" transform="scale(0.015625)"/>
       <path id="DejaVuSans-78" d="M 3513 3500 
L 2247 1797 
L 3578 0 
L 2900 0 
L 1881 1375 
L 863 0 
L 184 0 
L 1544 1831 
L 300 3500 
L 978 3500 
L 1906 2253 
L 2834 3500 
L 3513 3500 
z
" transform="scale(0.015625)"/>
       <path id="DejaVuSans-77" d="M 269 3500 
L 844 3500 
L 1563 769 
L 2278 3500 
L 2956 3500 
L 3675 769 
L 4391 3500 
L 4966 3500 
L 4050 0 
L 3372 0 
L 2619 2869 
L 1863 0 
L 1184 0 
L 269 3500 
z
" transform="scale(0.015625)"/>
       <path id="DejaVuSans-68" d="M 3513 2113 
L 3513 0 
L 2938 0 
L 2938 2094 
Q 2938 2591 2744 2837 
Q 2550 3084 2163 3084 
Q 1697 3084 1428 2787 
Q 1159 2491 1159 1978 
L 1159 0 
L 581 0 
L 581 4863 
L 1159 4863 
L 1159 2956 
Q 1366 3272 1645 3428 
Q 1925 3584 2291 3584 
Q 2894 3584 3203 3211 
Q 3513 2838 3513 2113 
z
" transform="scale(0.015625)"/>
      </defs>
      <use xlink:href="#DejaVuSans-6f"/>
      <use xlink:href="#DejaVuSans-62" x="61.181641"/>
      <use xlink:href="#DejaVuSans-6a" x="124.658203"/>
      <use xlink:href="#DejaVuSans-65" x="152.441406"/>
      <use xlink:href="#DejaVuSans-63" x="213.964844"/>
      <use xlink:href="#DejaVuSans-74" x="268.945312"/>
      <use xlink:href="#DejaVuSans-20" x="308.154297"/>
      <use xlink:href="#DejaVuSans-69" x="339.941406"/>
      <use xlink:href="#DejaVuSans-6e" x="367.724609"/>
      <use xlink:href="#DejaVuSans-73" x="431.103516"/>
      <use xlink:href="#DejaVuSans-74" x="483.203125"/>
      <use xlink:href="#DejaVuSans-61" x="522.412109"/>
      <use xlink:href="#DejaVuSans-6e" x="583.691406"/>
      <use xlink:href="#DejaVuSans-63" x="647.070312"/>
      <use xlink:href="#DejaVuSans-65" x="702.050781"/>
      <use xlink:href="#DejaVuSans-20" x="763.574219"/>
      <use xlink:href="#DejaVuSans-62" x="795.361328"/>
      <use xlink:href="#DejaVuSans-6f" x="858.837891"/>
      <use xlink:href="#DejaVuSans-75" x="920.019531"/>
      <use xlink:href="#DejaVuSans-6e" x="983.398438"/>
      <use xlink:href="#DejaVuSans-64" x="1046.777344"/>
      <use xlink:href="#DejaVuSans-69" x="1110.253906"/>
      <use xlink:href="#DejaVuSans-6e" x="1138.037109"/>
      <use xlink:href="#DejaVuSans-67" x="1201.416016"/>
      <use xlink:href="#DejaVuSans-20" x="1264.892578"/>
      <use xlink:href="#DejaVuSans-62" x="1296.679688"/>
      <use xlink:href="#DejaVuSans-6f" x="1360.15625"/>
      <use xlink:href="#DejaVuSans-78" x="1418.212891"/>
      <use xlink:href="#DejaVuSans-20" x="1477.392578"/>
      <use xlink:href="#DejaVuSans-77" x="1509.179688"/>
      <use xlink:href="#DejaVuSans-69" x="1590.966797"/>
      <use xlink:href="#DejaVuSans-64" x="1618.75"/>
      <use xlink:href="#DejaVuSans-74" x="1682.226562"/>
      <use xlink:href="#DejaVuSans-68" x="1721.435547"/>
     </g>
    </g>
   </g>
   <g id="matplotlib.axis_2">
    <g id="ytick_1">
     <g id="line2d_7">
      <defs>
       <path id="md3132c96ba" d="M 0 0 
L -3.5 0 
" style="stroke: #000000; stroke-width: 0.8"/>
      </defs>
      <g>
       <use xlink:href="#md3132c96ba" x="57.6" y="295.488" style="stroke: #000000; stroke-width: 0.8"/>
      </g>
     </g>
     <g id="text_8">
      <!-- $\mathdefault{10^{0}}$ -->
      <g transform="translate(31.24 299.667141)scale(0.11 -0.11)">
       <use xlink:href="#DejaVuSans-31" transform="translate(0 0.765625)"/>
       <use xlink:href="#DejaVuSans-30" transform="translate(63.623047 0.765625)"/>
       <use xlink:href="#DejaVuSans-30" transform="translate(128.203125 39.046875)scale(0.7)"/>
      </g>
     </g>
    </g>
    <g id="ytick_2">
     <g id="line2d_8">
      <g>
       <use xlink:href="#md3132c96ba" x="57.6" y="240.734541" style="stroke: #000000; stroke-width: 0.8"/>
      </g>
     </g>
     <g id="text_9">
      <!-- $\mathdefault{10^{1}}$ -->
      <g transform="translate(31.24 244.913682)scale(0.11 -0.11)">
       <use xlink:href="#DejaVuSans-31" transform="translate(0 0.684375)"/>
       <use xlink:href="#DejaVuSans-30" transform="translate(63.623047 0.684375)"/>
       <use xlink:href="#DejaVuSans-31" transform="translate(128.203125 38.965625)scale(0.7)"/>
      </g>
     </g>
    </g>
    <g id="ytick_3">
     <g id="line2d_9">
      <g>
       <use xlink:href="#md3132c96ba" x="57.6" y="185.981083" style="stroke: #000000; stroke-width: 0.8"/>
      </g>
     </g>
     <g id="text_10">
      <!-- $\mathdefault{10^{2}}$ -->
      <g transform="translate(31.24 190.160223)scale(0.11 -0.11)">
       <use xlink:href="#DejaVuSans-31" transform="translate(0 0.765625)"/>
       <use xlink:href="#DejaVuSans-30" transform="translate(63.623047 0.765625)"/>
       <use xlink:href="#DejaVuSans-32" transform="translate(128.203125 39.046875)scale(0.7)"/>
      </g>
     </g>
    </g>
    <g id="ytick_4">
     <g id="line2d_10">
      <g>
       <use xlink:href="#md3132c96ba" x="57.6" y="131.227624" style="stroke: #000000; stroke-width: 0.8"/>
      </g>
     </g>
     <g id="text_11">
      <!-- $\mathdefault{10^{3}}$ -->
      <g transform="translate(31.24 135.406764)scale(0.11 -0.11)">
       <defs>
        <path id="DejaVuSans-33" d="M 2597 2516 
Q 3050 2419 3304 2112 
Q 3559 1806 3559 1356 
Q 3559 666 3084 287 
Q 2609 -91 1734 -91 
Q 1441 -91 1130 -33 
Q 819 25 488 141 
L 488 750 
Q 750 597 1062 519 
Q 1375 441 1716 441 
Q 2309 441 2620 675 
Q 2931 909 2931 1356 
Q 2931 1769 2642 2001 
Q 2353 2234 1838 2234 
L 1294 2234 
L 1294 2753 
L 1863 2753 
Q 2328 2753 2575 2939 
Q 2822 3125 2822 3475 
Q 2822 3834 2567 4026 
Q 2313 4219 1838 4219 
Q 1578 4219 1281 4162 
Q 984 4106 628 3988 
L 628 4550 
Q 988 4650 1302 4700 
Q 1616 4750 1894 4750 
Q 2613 4750 3031 4423 
Q 3450 4097 3450 3541 
Q 3450 3153 3228 2886 
Q 3006 2619 2597 2516 
z
" transform="scale(0.015625)"/>
       </defs>
       <use xlink:href="#DejaVuSans-31" transform="translate(0 0.765625)"/>
       <use xlink:href="#DejaVuSans-30" transform="translate(63.623047 0.765625)"/>
       <use xlink:href="#DejaVuSans-33" transform="translate(128.203125 39.046875)scale(0.7)"/>
      </g>
     </g>
    </g>
    <g id="ytick_5">
     <g id="line2d_11">
      <g>
       <use xlink:href="#md3132c96ba" x="57.6" y="76.474165" style="stroke: #000000; stroke-width: 0.8"/>
      </g>
     </g>
     <g id="text_12">
      <!-- $\mathdefault{10^{4}}$ -->
      <g transform="translate(31.24 80.653306)scale(0.11 -0.11)">
       <use xlink:href="#DejaVuSans-31" transform="translate(0 0.684375)"/>
       <use xlink:href="#DejaVuSans-30" transform="translate(63.623047 0.684375)"/>
       <use xlink:href="#DejaVuSans-34" transform="translate(128.203125 38.965625)scale(0.7)"/>
      </g>
     </g>
    </g>
    <g id="ytick_6">
     <g id="line2d_12">
      <defs>
       <path id="mde8931a73e" d="M 0 0 
L -2 0 
" style="stroke: #000000; stroke-width: 0.6"/>
      </defs>
      <g>
       <use xlink:href="#mde8931a73e" x="57.6" y="303.969418" style="stroke: #000000; stroke-width: 0.6"/>
      </g>
     </g>
    </g>
    <g id="ytick_7">
     <g id="line2d_13">
      <g>
       <use xlink:href="#mde8931a73e" x="57.6" y="300.794158" style="stroke: #000000; stroke-width: 0.6"/>
      </g>
     </g>
    </g>
    <g id="ytick_8">
     <g id="line2d_14">
      <g>
       <use xlink:href="#mde8931a73e" x="57.6" y="297.993381" style="stroke: #000000; stroke-width: 0.6"/>
      </g>
     </g>
    </g>
    <g id="ytick_9">
     <g id="line2d_15">
      <g>
       <use xlink:href="#mde8931a73e" x="57.6" y="279.005567" style="stroke: #000000; stroke-width: 0.6"/>
      </g>
     </g>
    </g>
    <g id="ytick_10">
     <g id="line2d_16">
      <g>
       <use xlink:href="#mde8931a73e" x="57.6" y="269.363961" style="stroke: #000000; stroke-width: 0.6"/>
      </g>
     </g>
    </g>
    <g id="ytick_11">
     <g id="line2d_17">
      <g>
       <use xlink:href="#mde8931a73e" x="57.6" y="262.523133" style="stroke: #000000; stroke-width: 0.6"/>
      </g>
     </g>
    </g>
    <g id="ytick_12">
     <g id="line2d_18">
      <g>
       <use xlink:href="#mde8931a73e" x="57.6" y="257.216975" style="stroke: #000000; stroke-width: 0.6"/>
      </g>
     </g>
    </g>
    <g id="ytick_13">
     <g id="line2d_19">
      <g>
       <use xlink:href="#mde8931a73e" x="57.6" y="252.881528" style="stroke: #000000; stroke-width: 0.6"/>
      </g>
     </g>
    </g>
    <g id="ytick_14">
     <g id="line2d_20">
      <g>
       <use xlink:href="#mde8931a73e" x="57.6" y="249.215959" style="stroke: #000000; stroke-width: 0.6"/>
      </g>
     </g>
    </g>
    <g id="ytick_15">
     <g id="line2d_21">
      <g>
       <use xlink:href="#mde8931a73e" x="57.6" y="246.0407" style="stroke: #000000; stroke-width: 0.6"/>
      </g>
     </g>
    </g>
    <g id="ytick_16">
     <g id="line2d_22">
      <g>
       <use xlink:href="#mde8931a73e" x="57.6" y="243.239922" style="stroke: #000000; stroke-width: 0.6"/>
      </g>
     </g>
    </g>
    <g id="ytick_17">
     <g id="line2d_23">
      <g>
       <use xlink:href="#mde8931a73e" x="57.6" y="224.252108" style="stroke: #000000; stroke-width: 0.6"/>
      </g>
     </g>
    </g>
    <g id="ytick_18">
     <g id="line2d_24">
      <g>
       <use xlink:href="#mde8931a73e" x="57.6" y="214.610502" style="stroke: #000000; stroke-width: 0.6"/>
      </g>
     </g>
    </g>
    <g id="ytick_19">
     <g id="line2d_25">
      <g>
       <use xlink:href="#mde8931a73e" x="57.6" y="207.769674" style="stroke: #000000; stroke-width: 0.6"/>
      </g>
     </g>
    </g>
    <g id="ytick_20">
     <g id="line2d_26">
      <g>
       <use xlink:href="#mde8931a73e" x="57.6" y="202.463516" style="stroke: #000000; stroke-width: 0.6"/>
      </g>
     </g>
    </g>
    <g id="ytick_21">
     <g id="line2d_27">
      <g>
       <use xlink:href="#mde8931a73e" x="57.6" y="198.128069" style="stroke: #000000; stroke-width: 0.6"/>
      </g>
     </g>
    </g>
    <g id="ytick_22">
     <g id="line2d_28">
      <g>
       <use xlink:href="#mde8931a73e" x="57.6" y="194.462501" style="stroke: #000000; stroke-width: 0.6"/>
      </g>
     </g>
    </g>
    <g id="ytick_23">
     <g id="line2d_29">
      <g>
       <use xlink:href="#mde8931a73e" x="57.6" y="191.287241" style="stroke: #000000; stroke-width: 0.6"/>
      </g>
     </g>
    </g>
    <g id="ytick_24">
     <g id="line2d_30">
      <g>
       <use xlink:href="#mde8931a73e" x="57.6" y="188.486463" style="stroke: #000000; stroke-width: 0.6"/>
      </g>
     </g>
    </g>
    <g id="ytick_25">
     <g id="line2d_31">
      <g>
       <use xlink:href="#mde8931a73e" x="57.6" y="169.498649" style="stroke: #000000; stroke-width: 0.6"/>
      </g>
     </g>
    </g>
    <g id="ytick_26">
     <g id="line2d_32">
      <g>
       <use xlink:href="#mde8931a73e" x="57.6" y="159.857044" style="stroke: #000000; stroke-width: 0.6"/>
      </g>
     </g>
    </g>
    <g id="ytick_27">
     <g id="line2d_33">
      <g>
       <use xlink:href="#mde8931a73e" x="57.6" y="153.016216" style="stroke: #000000; stroke-width: 0.6"/>
      </g>
     </g>
    </g>
    <g id="ytick_28">
     <g id="line2d_34">
      <g>
       <use xlink:href="#mde8931a73e" x="57.6" y="147.710057" style="stroke: #000000; stroke-width: 0.6"/>
      </g>
     </g>
    </g>
    <g id="ytick_29">
     <g id="line2d_35">
      <g>
       <use xlink:href="#mde8931a73e" x="57.6" y="143.37461" style="stroke: #000000; stroke-width: 0.6"/>
      </g>
     </g>
    </g>
    <g id="ytick_30">
     <g id="line2d_36">
      <g>
       <use xlink:href="#mde8931a73e" x="57.6" y="139.709042" style="stroke: #000000; stroke-width: 0.6"/>
      </g>
     </g>
    </g>
    <g id="ytick_31">
     <g id="line2d_37">
      <g>
       <use xlink:href="#mde8931a73e" x="57.6" y="136.533782" style="stroke: #000000; stroke-width: 0.6"/>
      </g>
     </g>
    </g>
    <g id="ytick_32">
     <g id="line2d_38">
      <g>
       <use xlink:href="#mde8931a73e" x="57.6" y="133.733005" style="stroke: #000000; stroke-width: 0.6"/>
      </g>
     </g>
    </g>
    <g id="ytick_33">
     <g id="line2d_39">
      <g>
       <use xlink:href="#mde8931a73e" x="57.6" y="114.74519" style="stroke: #000000; stroke-width: 0.6"/>
      </g>
     </g>
    </g>
    <g id="ytick_34">
     <g id="line2d_40">
      <g>
       <use xlink:href="#mde8931a73e" x="57.6" y="105.103585" style="stroke: #000000; stroke-width: 0.6"/>
      </g>
     </g>
    </g>
    <g id="ytick_35">
     <g id="line2d_41">
      <g>
       <use xlink:href="#mde8931a73e" x="57.6" y="98.262757" style="stroke: #000000; stroke-width: 0.6"/>
      </g>
     </g>
    </g>
    <g id="ytick_36">
     <g id="line2d_42">
      <g>
       <use xlink:href="#mde8931a73e" x="57.6" y="92.956599" style="stroke: #000000; stroke-width: 0.6"/>
      </g>
     </g>
    </g>
    <g id="ytick_37">
     <g id="line2d_43">
      <g>
       <use xlink:href="#mde8931a73e" x="57.6" y="88.621151" style="stroke: #000000; stroke-width: 0.6"/>
      </g>
     </g>
    </g>
    <g id="ytick_38">
     <g id="line2d_44">
      <g>
       <use xlink:href="#mde8931a73e" x="57.6" y="84.955583" style="stroke: #000000; stroke-width: 0.6"/>
      </g>
     </g>
    </g>
    <g id="ytick_39">
     <g id="line2d_45">
      <g>
       <use xlink:href="#mde8931a73e" x="57.6" y="81.780324" style="stroke: #000000; stroke-width: 0.6"/>
      </g>
     </g>
    </g>
    <g id="ytick_40">
     <g id="line2d_46">
      <g>
       <use xlink:href="#mde8931a73e" x="57.6" y="78.979546" style="stroke: #000000; stroke-width: 0.6"/>
      </g>
     </g>
    </g>
    <g id="ytick_41">
     <g id="line2d_47">
      <g>
       <use xlink:href="#mde8931a73e" x="57.6" y="59.991732" style="stroke: #000000; stroke-width: 0.6"/>
      </g>
     </g>
    </g>
    <g id="ytick_42">
     <g id="line2d_48">
      <g>
       <use xlink:href="#mde8931a73e" x="57.6" y="50.350126" style="stroke: #000000; stroke-width: 0.6"/>
      </g>
     </g>
    </g>
    <g id="ytick_43">
     <g id="line2d_49">
      <g>
       <use xlink:href="#mde8931a73e" x="57.6" y="43.509298" style="stroke: #000000; stroke-width: 0.6"/>
      </g>
     </g>
    </g>
    <g id="text_13">
     <!-- number of objects -->
     <g transform="translate(24.952344 224.6055)rotate(-90)scale(0.11 -0.11)">
      <defs>
       <path id="DejaVuSans-6d" d="M 3328 2828 
Q 3544 3216 3844 3400 
Q 4144 3584 4550 3584 
Q 5097 3584 5394 3201 
Q 5691 2819 5691 2113 
L 5691 0 
L 5113 0 
L 5113 2094 
Q 5113 2597 4934 2840 
Q 4756 3084 4391 3084 
Q 3944 3084 3684 2787 
Q 3425 2491 3425 1978 
L 3425 0 
L 2847 0 
L 2847 2094 
Q 2847 2600 2669 2842 
Q 2491 3084 2119 3084 
Q 1678 3084 1418 2786 
Q 1159 2488 1159 1978 
L 1159 0 
L 581 0 
L 581 3500 
L 1159 3500 
L 1159 2956 
Q 1356 3278 1631 3431 
Q 1906 3584 2284 3584 
Q 2666 3584 2933 3390 
Q 3200 3197 3328 2828 
z
" transform="scale(0.015625)"/>
       <path id="DejaVuSans-72" d="M 2631 2963 
Q 2534 3019 2420 3045 
Q 2306 3072 2169 3072 
Q 1681 3072 1420 2755 
Q 1159 2438 1159 1844 
L 1159 0 
L 581 0 
L 581 3500 
L 1159 3500 
L 1159 2956 
Q 1341 3275 1631 3429 
Q 1922 3584 2338 3584 
Q 2397 3584 2469 3576 
Q 2541 3569 2628 3553 
L 2631 2963 
z
" transform="scale(0.015625)"/>
       <path id="DejaVuSans-66" d="M 2375 4863 
L 2375 4384 
L 1825 4384 
Q 1516 4384 1395 4259 
Q 1275 4134 1275 3809 
L 1275 3500 
L 2222 3500 
L 2222 3053 
L 1275 3053 
L 1275 0 
L 697 0 
L 697 3053 
L 147 3053 
L 147 3500 
L 697 3500 
L 697 3744 
Q 697 4328 969 4595 
Q 1241 4863 1831 4863 
L 2375 4863 
z
" transform="scale(0.015625)"/>
      </defs>
      <use xlink:href="#DejaVuSans-6e"/>
      <use xlink:href="#DejaVuSans-75" x="63.378906"/>
      <use xlink:href="#DejaVuSans-6d" x="126.757812"/>
      <use xlink:href="#DejaVuSans-62" x="224.169922"/>
      <use xlink:href="#DejaVuSans-65" x="287.646484"/>
      <use xlink:href="#DejaVuSans-72" x="349.169922"/>
      <use xlink:href="#DejaVuSans-20" x="390.283203"/>
      <use xlink:href="#DejaVuSans-6f" x="422.070312"/>
      <use xlink:href="#DejaVuSans-66" x="483.251953"/>
      <use xlink:href="#DejaVuSans-20" x="518.457031"/>
      <use xlink:href="#DejaVuSans-6f" x="550.244141"/>
      <use xlink:href="#DejaVuSans-62" x="611.425781"/>
      <use xlink:href="#DejaVuSans-6a" x="674.902344"/>
      <use xlink:href="#DejaVuSans-65" x="702.685547"/>
      <use xlink:href="#DejaVuSans-63" x="764.208984"/>
      <use xlink:href="#DejaVuSans-74" x="819.189453"/>
      <use xlink:href="#DejaVuSans-73" x="858.398438"/>
     </g>
    </g>
   </g>
   <g id="patch_203">
    <path d="M 57.6 307.584 
L 57.6 41.472 
" style="fill: none; stroke: #000000; stroke-width: 0.8; stroke-linejoin: miter; stroke-linecap: square"/>
   </g>
   <g id="patch_204">
    <path d="M 414.72 307.584 
L 414.72 41.472 
" style="fill: none; stroke: #000000; stroke-width: 0.8; stroke-linejoin: miter; stroke-linecap: square"/>
   </g>
   <g id="patch_205">
    <path d="M 57.6 307.584 
L 414.72 307.584 
" style="fill: none; stroke: #000000; stroke-width: 0.8; stroke-linejoin: miter; stroke-linecap: square"/>
   </g>
   <g id="patch_206">
    <path d="M 57.6 41.472 
L 414.72 41.472 
" style="fill: none; stroke: #000000; stroke-width: 0.8; stroke-linejoin: miter; stroke-linecap: square"/>
   </g>
   <g id="text_14">
    <!-- Bounding Box width pixel overview -->
    <g transform="translate(120.447562 20.690888)scale(0.132 -0.132)">
     <defs>
      <path id="DejaVuSans-42" d="M 1259 2228 
L 1259 519 
L 2272 519 
Q 2781 519 3026 730 
Q 3272 941 3272 1375 
Q 3272 1813 3026 2020 
Q 2781 2228 2272 2228 
L 1259 2228 
z
M 1259 4147 
L 1259 2741 
L 2194 2741 
Q 2656 2741 2882 2914 
Q 3109 3088 3109 3444 
Q 3109 3797 2882 3972 
Q 2656 4147 2194 4147 
L 1259 4147 
z
M 628 4666 
L 2241 4666 
Q 2963 4666 3353 4366 
Q 3744 4066 3744 3513 
Q 3744 3084 3544 2831 
Q 3344 2578 2956 2516 
Q 3422 2416 3680 2098 
Q 3938 1781 3938 1306 
Q 3938 681 3513 340 
Q 3088 0 2303 0 
L 628 0 
L 628 4666 
z
" transform="scale(0.015625)"/>
      <path id="DejaVuSans-70" d="M 1159 525 
L 1159 -1331 
L 581 -1331 
L 581 3500 
L 1159 3500 
L 1159 2969 
Q 1341 3281 1617 3432 
Q 1894 3584 2278 3584 
Q 2916 3584 3314 3078 
Q 3713 2572 3713 1747 
Q 3713 922 3314 415 
Q 2916 -91 2278 -91 
Q 1894 -91 1617 61 
Q 1341 213 1159 525 
z
M 3116 1747 
Q 3116 2381 2855 2742 
Q 2594 3103 2138 3103 
Q 1681 3103 1420 2742 
Q 1159 2381 1159 1747 
Q 1159 1113 1420 752 
Q 1681 391 2138 391 
Q 2594 391 2855 752 
Q 3116 1113 3116 1747 
z
" transform="scale(0.015625)"/>
      <path id="DejaVuSans-6c" d="M 603 4863 
L 1178 4863 
L 1178 0 
L 603 0 
L 603 4863 
z
" transform="scale(0.015625)"/>
      <path id="DejaVuSans-76" d="M 191 3500 
L 800 3500 
L 1894 563 
L 2988 3500 
L 3597 3500 
L 2284 0 
L 1503 0 
L 191 3500 
z
" transform="scale(0.015625)"/>
     </defs>
     <use xlink:href="#DejaVuSans-42"/>
     <use xlink:href="#DejaVuSans-6f" x="68.603516"/>
     <use xlink:href="#DejaVuSans-75" x="129.785156"/>
     <use xlink:href="#DejaVuSans-6e" x="193.164062"/>
     <use xlink:href="#DejaVuSans-64" x="256.542969"/>
     <use xlink:href="#DejaVuSans-69" x="320.019531"/>
     <use xlink:href="#DejaVuSans-6e" x="347.802734"/>
     <use xlink:href="#DejaVuSans-67" x="411.181641"/>
     <use xlink:href="#DejaVuSans-20" x="474.658203"/>
     <use xlink:href="#DejaVuSans-42" x="506.445312"/>
     <use xlink:href="#DejaVuSans-6f" x="575.048828"/>
     <use xlink:href="#DejaVuSans-78" x="633.105469"/>
     <use xlink:href="#DejaVuSans-20" x="692.285156"/>
     <use xlink:href="#DejaVuSans-77" x="724.072266"/>
     <use xlink:href="#DejaVuSans-69" x="805.859375"/>
     <use xlink:href="#DejaVuSans-64" x="833.642578"/>
     <use xlink:href="#DejaVuSans-74" x="897.119141"/>
     <use xlink:href="#DejaVuSans-68" x="936.328125"/>
     <use xlink:href="#DejaVuSans-20" x="999.707031"/>
     <use xlink:href="#DejaVuSans-70" x="1031.494141"/>
     <use xlink:href="#DejaVuSans-69" x="1094.970703"/>
     <use xlink:href="#DejaVuSans-78" x="1122.753906"/>
     <use xlink:href="#DejaVuSans-65" x="1178.808594"/>
     <use xlink:href="#DejaVuSans-6c" x="1240.332031"/>
     <use xlink:href="#DejaVuSans-20" x="1268.115234"/>
     <use xlink:href="#DejaVuSans-6f" x="1299.902344"/>
     <use xlink:href="#DejaVuSans-76" x="1361.083984"/>
     <use xlink:href="#DejaVuSans-65" x="1420.263672"/>
     <use xlink:href="#DejaVuSans-72" x="1481.787109"/>
     <use xlink:href="#DejaVuSans-76" x="1522.900391"/>
     <use xlink:href="#DejaVuSans-69" x="1582.080078"/>
     <use xlink:href="#DejaVuSans-65" x="1609.863281"/>
     <use xlink:href="#DejaVuSans-77" x="1671.386719"/>
    </g>
    <!-- median = 12 pixels, mean = 13 pixels -->
    <g transform="translate(109.950469 35.472)scale(0.132 -0.132)">
     <defs>
      <path id="DejaVuSans-3d" d="M 678 2906 
L 4684 2906 
L 4684 2381 
L 678 2381 
L 678 2906 
z
M 678 1631 
L 4684 1631 
L 4684 1100 
L 678 1100 
L 678 1631 
z
" transform="scale(0.015625)"/>
      <path id="DejaVuSans-2c" d="M 750 794 
L 1409 794 
L 1409 256 
L 897 -744 
L 494 -744 
L 750 256 
L 750 794 
z
" transform="scale(0.015625)"/>
     </defs>
     <use xlink:href="#DejaVuSans-6d"/>
     <use xlink:href="#DejaVuSans-65" x="97.412109"/>
     <use xlink:href="#DejaVuSans-64" x="158.935547"/>
     <use xlink:href="#DejaVuSans-69" x="222.412109"/>
     <use xlink:href="#DejaVuSans-61" x="250.195312"/>
     <use xlink:href="#DejaVuSans-6e" x="311.474609"/>
     <use xlink:href="#DejaVuSans-20" x="374.853516"/>
     <use xlink:href="#DejaVuSans-3d" x="406.640625"/>
     <use xlink:href="#DejaVuSans-20" x="490.429688"/>
     <use xlink:href="#DejaVuSans-31" x="522.216797"/>
     <use xlink:href="#DejaVuSans-32" x="585.839844"/>
     <use xlink:href="#DejaVuSans-20" x="649.462891"/>
     <use xlink:href="#DejaVuSans-70" x="681.25"/>
     <use xlink:href="#DejaVuSans-69" x="744.726562"/>
     <use xlink:href="#DejaVuSans-78" x="772.509766"/>
     <use xlink:href="#DejaVuSans-65" x="828.564453"/>
     <use xlink:href="#DejaVuSans-6c" x="890.087891"/>
     <use xlink:href="#DejaVuSans-73" x="917.871094"/>
     <use xlink:href="#DejaVuSans-2c" x="969.970703"/>
     <use xlink:href="#DejaVuSans-20" x="1001.757812"/>
     <use xlink:href="#DejaVuSans-6d" x="1033.544922"/>
     <use xlink:href="#DejaVuSans-65" x="1130.957031"/>
     <use xlink:href="#DejaVuSans-61" x="1192.480469"/>
     <use xlink:href="#DejaVuSans-6e" x="1253.759766"/>
     <use xlink:href="#DejaVuSans-20" x="1317.138672"/>
     <use xlink:href="#DejaVuSans-3d" x="1348.925781"/>
     <use xlink:href="#DejaVuSans-20" x="1432.714844"/>
     <use xlink:href="#DejaVuSans-31" x="1464.501953"/>
     <use xlink:href="#DejaVuSans-33" x="1528.125"/>
     <use xlink:href="#DejaVuSans-20" x="1591.748047"/>
     <use xlink:href="#DejaVuSans-70" x="1623.535156"/>
     <use xlink:href="#DejaVuSans-69" x="1687.011719"/>
     <use xlink:href="#DejaVuSans-78" x="1714.794922"/>
     <use xlink:href="#DejaVuSans-65" x="1770.849609"/>
     <use xlink:href="#DejaVuSans-6c" x="1832.373047"/>
     <use xlink:href="#DejaVuSans-73" x="1860.15625"/>
    </g>
   </g>
  </g>
 </g>
 <defs>
  <clipPath id="p21dd99f830">
   <rect x="57.6" y="41.472" width="357.12" height="266.112"/>
  </clipPath>
 </defs>
</svg>
